AndikaPendot-Regular.glyphspackage
{
glyphname = exclam;
layers = (
{
layerId = m01;
shapes = (
{
ref = period;
},
{
closed = 0;
nodes = (
(310,1700,l),
(310,1600,o),
(310,500,o),
(310,400,c)
);
}
);
width = 620;
},
{
layerId = "FDE4885D-BB7A-448A-91AC-7911E70BCCB6";
shapes = (
{
closed = 1;
nodes = (
(390,-53.333,o),
(390,0,c),
(390,3.333,o),
(390,6.667,o),
(390,10,c),
(390,63.333,o),
(350,90,o),
(310,90,c),
(270,90,o),
(230,63.333,o),
(230,10,c),
(230,6.667,o),
(230,3.333,o),
(230,0,c),
(230,-53.333,o),
(270,-80,o),
(310,-80,c),
(350,-80,o)
);
},
{
closed = 1;
nodes = (
(230,1753.333,o),
(230,1700,c),
(230,1266.667,o),
(230,833.333,o),
(230,400,c),
(230,346.667,o),
(270,320,o),
(310,320,c),
(350,320,o),
(390,346.667,o),
(390,400,c),
(390,833.333,o),
(390,1266.667,o),
(390,1700,c),
(390,1753.333,o),
(350,1780,o),
(310,1780,c),
(270,1780,o)
);
},
{
closed = 1;
nodes = (
(0,1718,l),
(620,1718,l),
(620,1774,l),
(0,1774,l)
);
},
{
closed = 1;
nodes = (
(0,1008,l),
(620,1008,l),
(620,1064,l),
(0,1064,l)
);
},
{
closed = 1;
nodes = (
(0,-96,l),
(620,-96,l),
(620,-18,l),
(0,-18,l)
);
},
{
closed = 1;
nodes = (
(0,-574,l),
(620,-574,l),
(620,-518,l),
(0,-518,l)
);
}
);
width = 620;
},
{
layerId = "88FD4E68-2D1A-46CE-87AD-7FBA89BDFB80";
width = 600;
},
{
layerId = "5BD49938-778C-46FB-8B52-6AA10854A152";
width = 600;
}
);
unicode = 33;
}
{
glyphname = quotedbl;
layers = (
{
layerId = m01;
shapes = (
{
ref = quotesingle;
},
{
pos = (290,0);
ref = quotesingle;
}
);
width = 910;
},
{
layerId = "FDE4885D-BB7A-448A-91AC-7911E70BCCB6";
shapes = (
{
closed = 1;
nodes = (
(230,1753.333,o),
(230,1700,c),
(230,1533.333,o),
(230,1366.667,o),
(230,1200,c),
(230,1146.667,o),
(270,1120,o),
(310,1120,c),
(350,1120,o),
(390,1146.667,o),
(390,1200,c),
(390,1366.667,o),
(390,1533.333,o),
(390,1700,c),
(390,1753.333,o),
(350,1780,o),
(310,1780,c),
(270,1780,o)
);
},
{
closed = 1;
nodes = (
(520,1753.333,o),
(520,1700,c),
(520,1533.333,o),
(520,1366.667,o),
(520,1200,c),
(520,1146.667,o),
(560,1120,o),
(600,1120,c),
(640,1120,o),
(680,1146.667,o),
(680,1200,c),
(680,1366.667,o),
(680,1533.333,o),
(680,1700,c),
(680,1753.333,o),
(640,1780,o),
(600,1780,c),
(560,1780,o)
);
},
{
closed = 1;
nodes = (
(0,1700,l),
(910,1700,l),
(910,1764,l),
(0,1764,l)
);
},
{
closed = 1;
nodes = (
(0,1000,l),
(910,1000,l),
(910,1064,l),
(0,1064,l)
);
},
{
closed = 1;
nodes = (
(0,0,l),
(910,0,l),
(910,92,l),
(0,92,l)
);
},
{
closed = 1;
nodes = (
(0,-500,l),
(910,-500,l),
(910,-436,l),
(0,-436,l)
);
}
);
width = 910;
},
{
layerId = "88FD4E68-2D1A-46CE-87AD-7FBA89BDFB80";
width = 600;
},
{
layerId = "5BD49938-778C-46FB-8B52-6AA10854A152";
width = 600;
}
);
unicode = 34;
}
{
glyphname = quotesingle;
layers = (
{
layerId = m01;
shapes = (
{
closed = 0;
nodes = (
(310,1700,l),
(310,1600,o),
(310,1300,o),
(310,1200,c)
);
}
);
width = 620;
},
{
layerId = "FDE4885D-BB7A-448A-91AC-7911E70BCCB6";
shapes = (
{
closed = 1;
nodes = (
(230,1753.333,o),
(230,1700,c),
(230,1533.333,o),
(230,1366.667,o),
(230,1200,c),
(230,1146.667,o),
(270,1120,o),
(310,1120,c),
(350,1120,o),
(390,1146.667,o),
(390,1200,c),
(390,1366.667,o),
(390,1533.333,o),
(390,1700,c),
(390,1753.333,o),
(350,1780,o),
(310,1780,c),
(270,1780,o)
);
},
{
closed = 1;
nodes = (
(0,1700,l),
(620,1700,l),
(620,1764,l),
(0,1764,l)
);
},
{
closed = 1;
nodes = (
(0,1000,l),
(620,1000,l),
(620,1064,l),
(0,1064,l)
);
},
{
closed = 1;
nodes = (
(0,0,l),
(620,0,l),
(620,92,l),
(0,92,l)
);
},
{
closed = 1;
nodes = (
(0,-500,l),
(620,-500,l),
(620,-436,l),
(0,-436,l)
);
}
);
width = 620;
},
{
layerId = "88FD4E68-2D1A-46CE-87AD-7FBA89BDFB80";
width = 600;
},
{
layerId = "5BD49938-778C-46FB-8B52-6AA10854A152";
width = 600;
}
);
unicode = 39;
}
{
glyphname = parenleft;
layers = (
{
layerId = m01;
shapes = (
{
angle = 180;
pos = (830,1700);
ref = parenright;
}
);
width = 830;
},
{
layerId = "FDE4885D-BB7A-448A-91AC-7911E70BCCB6";
shapes = (
{
closed = 1;
nodes = (
(674.281,-81.144,o),
(636.569,-43.431,c),
(408.243,184.894,o),
(330,537.621,o),
(330,850,c),
(330,1162.379,o),
(408.243,1515.106,o),
(636.569,1743.431,c),
(674.281,1781.144,o),
(664.853,1828.284,o),
(636.569,1856.569,c),
(608.284,1884.853,o),
(561.144,1894.281,o),
(523.431,1856.569,c),
(264.236,1597.373,o),
(170,1206.062,o),
(170,850,c),
(170,493.938,o),
(264.236,102.627,o),
(523.431,-156.569,c),
(561.144,-194.281,o),
(608.284,-184.853,o),
(636.569,-156.569,c),
(664.853,-128.284,o)
);
},
{
closed = 1;
nodes = (
(0,1718,l),
(830,1718,l),
(830,1774,l),
(0,1774,l)
);
},
{
closed = 1;
nodes = (
(0,1008,l),
(830,1008,l),
(830,1064,l),
(0,1064,l)
);
},
{
closed = 1;
nodes = (
(0,-96,l),
(830,-96,l),
(830,-18,l),
(0,-18,l)
);
},
{
closed = 1;
nodes = (
(0,-574,l),
(830,-574,l),
(830,-518,l),
(0,-518,l)
);
}
);
width = 830;
},
{
layerId = "88FD4E68-2D1A-46CE-87AD-7FBA89BDFB80";
width = 600;
},
{
layerId = "5BD49938-778C-46FB-8B52-6AA10854A152";
width = 600;
}
);
unicode = 40;
}
{
glyphname = parenright;
layers = (
{
layerId = m01;
shapes = (
{
closed = 0;
nodes = (
(250,1800,l),
(430,1620,o),
(580,1300,o),
(580,850,cs),
(580,400,o),
(430,80,o),
(250,-100,c)
);
}
);
width = 830;
},
{
layerId = "FDE4885D-BB7A-448A-91AC-7911E70BCCB6";
shapes = (
{
closed = 1;
nodes = (
(155.719,1781.144,o),
(193.431,1743.431,c),
(421.757,1515.106,o),
(500,1162.379,o),
(500,850,c),
(500,537.621,o),
(421.757,184.894,o),
(193.431,-43.431,c),
(155.719,-81.144,o),
(165.147,-128.284,o),
(193.431,-156.569,c),
(221.716,-184.853,o),
(268.856,-194.281,o),
(306.569,-156.569,c),
(565.764,102.627,o),
(660,493.938,o),
(660,850,c),
(660,1206.062,o),
(565.764,1597.373,o),
(306.569,1856.569,c),
(268.856,1894.281,o),
(221.716,1884.853,o),
(193.431,1856.569,c),
(165.147,1828.284,o)
);
},
{
closed = 1;
nodes = (
(0,1700,l),
(830,1700,l),
(830,1764,l),
(0,1764,l)
);
},
{
closed = 1;
nodes = (
(0,1000,l),
(830,1000,l),
(830,1064,l),
(0,1064,l)
);
},
{
closed = 1;
nodes = (
(0,0,l),
(830,0,l),
(830,92,l),
(0,92,l)
);
},
{
closed = 1;
nodes = (
(0,-500,l),
(830,-500,l),
(830,-436,l),
(0,-436,l)
);
}
);
width = 830;
},
{
layerId = "88FD4E68-2D1A-46CE-87AD-7FBA89BDFB80";
width = 600;
},
{
layerId = "5BD49938-778C-46FB-8B52-6AA10854A152";
width = 600;
}
);
unicode = 41;
}
{
glyphname = asterisk;
layers = (
{
layerId = m01;
shapes = (
{
closed = 0;
nodes = (
(596,1700,l),
(596,1600,o),
(596,1000,o),
(596,900,c)
);
},
{
closed = 0;
nodes = (
(942,1100,l),
(856,1150,o),
(336,1450,o),
(250,1500,c)
);
},
{
closed = 0;
nodes = (
(250,1100,l),
(336,1150,o),
(856,1450,o),
(942,1500,c)
);
}
);
width = 1192;
},
{
layerId = "FDE4885D-BB7A-448A-91AC-7911E70BCCB6";
shapes = (
{
closed = 1;
nodes = (
(516,1753.333,o),
(516,1700,c),
(516,1433.333,o),
(516,1166.667,o),
(516,900,c),
(516,846.667,o),
(556,820,o),
(596,820,c),
(636,820,o),
(676,846.667,o),
(676,900,c),
(676,1166.667,o),
(676,1433.333,o),
(676,1700,c),
(676,1753.333,o),
(636,1780,o),
(596,1780,c),
(556,1780,o)
);
},
{
closed = 1;
nodes = (
(1028.317,1142.354,o),
(982.21,1169.161,c),
(751.88,1303.073,o),
(520.539,1435.248,o),
(290.21,1569.161,c),
(244.103,1595.967,o),
(200.944,1574.79,o),
(180.839,1540.21,c),
(160.735,1505.629,o),
(163.683,1457.646,o),
(209.79,1430.839,c),
(440.12,1296.927,o),
(671.461,1164.752,o),
(901.79,1030.839,c),
(947.897,1004.033,o),
(991.056,1025.21,o),
(1011.161,1059.79,c),
(1031.265,1094.371,o)
);
},
{
closed = 1;
nodes = (
(244.103,1004.033,o),
(290.21,1030.839,c),
(520.539,1164.752,o),
(751.88,1296.927,o),
(982.21,1430.839,c),
(1028.317,1457.646,o),
(1031.265,1505.629,o),
(1011.161,1540.21,c),
(991.056,1574.79,o),
(947.897,1595.967,o),
(901.79,1569.161,c),
(671.461,1435.248,o),
(440.12,1303.073,o),
(209.79,1169.161,c),
(163.683,1142.354,o),
(160.735,1094.371,o),
(180.839,1059.79,c),
(200.944,1025.21,o)
);
},
{
closed = 1;
nodes = (
(0,1718,l),
(1192,1718,l),
(1192,1774,l),
(0,1774,l)
);
},
{
closed = 1;
nodes = (
(0,1008,l),
(1192,1008,l),
(1192,1064,l),
(0,1064,l)
);
},
{
closed = 1;
nodes = (
(0,-96,l),
(1192,-96,l),
(1192,-18,l),
(0,-18,l)
);
},
{
closed = 1;
nodes = (
(0,-574,l),
(1192,-574,l),
(1192,-518,l),
(0,-518,l)
);
}
);
width = 1192;
},
{
layerId = "88FD4E68-2D1A-46CE-87AD-7FBA89BDFB80";
width = 600;
},
{
layerId = "5BD49938-778C-46FB-8B52-6AA10854A152";
width = 600;
}
);
unicode = 42;
}
{
glyphname = hyphen;
layers = (
{
layerId = m01;
shapes = (
{
closed = 0;
nodes = (
(150,800,l),
(250,800,o),
(750,800,o),
(850,800,c)
);
}
);
width = 1000;
},
{
layerId = "FDE4885D-BB7A-448A-91AC-7911E70BCCB6";
shapes = (
{
closed = 1;
nodes = (
(96.667,720,o),
(150,720,c),
(383.333,720,o),
(616.667,720,o),
(850,720,c),
(903.333,720,o),
(930,760,o),
(930,800,c),
(930,840,o),
(903.333,880,o),
(850,880,c),
(616.667,880,o),
(383.333,880,o),
(150,880,c),
(96.667,880,o),
(70,840,o),
(70,800,c),
(70,760,o)
);
},
{
closed = 1;
nodes = (
(0,1700,l),
(1000,1700,l),
(1000,1764,l),
(0,1764,l)
);
},
{
closed = 1;
nodes = (
(0,1000,l),
(1000,1000,l),
(1000,1064,l),
(0,1064,l)
);
},
{
closed = 1;
nodes = (
(0,0,l),
(1000,0,l),
(1000,92,l),
(0,92,l)
);
},
{
closed = 1;
nodes = (
(0,-500,l),
(1000,-500,l),
(1000,-436,l),
(0,-436,l)
);
}
);
width = 1000;
},
{
layerId = "88FD4E68-2D1A-46CE-87AD-7FBA89BDFB80";
width = 600;
},
{
layerId = "5BD49938-778C-46FB-8B52-6AA10854A152";
width = 600;
}
);
unicode = 45;
}
{
glyphname = slash;
layers = (
{
layerId = m01;
shapes = (
{
closed = 0;
nodes = (
(170,-100,l),
(215,0,o),
(925,1700,o),
(970,1800,c)
);
}
);
width = 1140;
},
{
layerId = "FDE4885D-BB7A-448A-91AC-7911E70BCCB6";
shapes = (
{
closed = 1;
nodes = (
(222.993,-180.226,o),
(243.715,-131.083,c),
(510.71,502.112,o),
(776.72,1135.722,o),
(1043.715,1768.917,c),
(1064.437,1818.06,o),
(1037.94,1858.173,o),
(1001.083,1873.715,c),
(964.225,1889.256,o),
(917.007,1880.226,o),
(896.285,1831.083,c),
(629.29,1197.888,o),
(363.28,564.278,o),
(96.285,-68.917,c),
(75.563,-118.06,o),
(102.06,-158.173,o),
(138.917,-173.715,c),
(175.775,-189.256,o)
);
},
{
closed = 1;
nodes = (
(0,1700,l),
(1140,1700,l),
(1140,1764,l),
(0,1764,l)
);
},
{
closed = 1;
nodes = (
(0,1000,l),
(1140,1000,l),
(1140,1064,l),
(0,1064,l)
);
},
{
closed = 1;
nodes = (
(0,0,l),
(1140,0,l),
(1140,92,l),
(0,92,l)
);
},
{
closed = 1;
nodes = (
(0,-500,l),
(1140,-500,l),
(1140,-436,l),
(0,-436,l)
);
}
);
width = 1140;
},
{
layerId = "88FD4E68-2D1A-46CE-87AD-7FBA89BDFB80";
width = 600;
},
{
associatedMasterId = m01;
layerId = "5D0B07EB-A82F-44AF-8DE3-E9A63FE6C388";
name = "Pendot Quick Preview";
width = 1140;
},
{
layerId = "5BD49938-778C-46FB-8B52-6AA10854A152";
width = 600;
}
);
unicode = 47;
}
{
glyphname = zero;
layers = (
{
layerId = m01;
shapes = (
{
pos = (-10,0);
ref = O;
}
);
width = 1500;
},
{
layerId = "FDE4885D-BB7A-448A-91AC-7911E70BCCB6";
shapes = (
{
closed = 1;
nodes = (
(805.333,1780,o),
(752,1780,c),
(260.502,1780,o),
(90,1283.238,o),
(90,870,c),
(90,464.152,o),
(255.549,-80,o),
(750,-80,c),
(1244.451,-80,o),
(1410,464.152,o),
(1410,870,c),
(1410,1282.213,o),
(1242.436,1780,o),
(751,1780,c),
(697.667,1780,o),
(671,1740,o),
(671,1700,c),
(671,1660,o),
(697.667,1620,o),
(751,1620,c),
(1141.4,1620,o),
(1250,1184.858,o),
(1250,870,c),
(1250,561.743,o),
(1143.04,80,o),
(750,80,c),
(356.96,80,o),
(250,561.743,o),
(250,870,c),
(250,1186.058,o),
(361.209,1620,o),
(752,1620,c),
(805.333,1620,o),
(832,1660,o),
(832,1700,c),
(832,1740,o)
);
},
{
closed = 1;
nodes = (
(0,1718,l),
(1500,1718,l),
(1500,1774,l),
(0,1774,l)
);
},
{
closed = 1;
nodes = (
(0,1008,l),
(1500,1008,l),
(1500,1064,l),
(0,1064,l)
);
},
{
closed = 1;
nodes = (
(0,-96,l),
(1500,-96,l),
(1500,-18,l),
(0,-18,l)
);
},
{
closed = 1;
nodes = (
(0,-574,l),
(1500,-574,l),
(1500,-518,l),
(0,-518,l)
);
}
);
width = 1500;
},
{
layerId = "88FD4E68-2D1A-46CE-87AD-7FBA89BDFB80";
width = 600;
},
{
layerId = "5BD49938-778C-46FB-8B52-6AA10854A152";
width = 600;
}
);
unicode = 48;
}
{
glyphname = one;
layers = (
{
layerId = m01;
shapes = (
{
closed = 0;
nodes = (
(188,0,l),
(288,0,o),
(1212,0,o),
(1312,0,c)
);
},
{
closed = 0;
nodes = (
(188,1300,l),
(323,1398,o),
(650,1618,o),
(750,1700,c,{
co.uk.corvelsoftware.Dotter = {
locally_forced = 1;
};
}),
(750,1600,o),
(750,100,o),
(750,0,c)
);
}
);
width = 1500;
},
{
layerId = "FDE4885D-BB7A-448A-91AC-7911E70BCCB6";
shapes = (
{
closed = 1;
nodes = (
(134.667,-80,o),
(188,-80,c),
(562.667,-80,o),
(937.333,-80,o),
(1312,-80,c),
(1365.333,-80,o),
(1392,-40,o),
(1392,0,c),
(1392,40,o),
(1365.333,80,o),
(1312,80,c),
(937.333,80,o),
(562.667,80,o),
(188,80,c),
(134.667,80,o),
(108,40,o),
(108,0,c),
(108,-40,o)
);
},
{
closed = 1;
nodes = (
(191.836,1203.929,o),
(234.997,1235.26,c),
(421.692,1370.787,o),
(622.514,1492.004,o),
(800.726,1638.139,c),
(824.327,1657.491,o),
(791.645,1688.217,o),
(753.064,1706.474,c),
(714.482,1724.732,o),
(670,1730.521,o),
(670,1700,c),
(670,1133.333,o),
(670,566.667,o),
(670,0,c),
(670,-53.333,o),
(710,-80,o),
(750,-80,c),
(790,-80,o),
(830,-53.333,o),
(830,0,c),
(830,566.667,o),
(830,1133.333,o),
(830,1700,c),
(830,1730.521,o),
(809.119,1755.662,o),
(782.337,1768.336,c),
(755.556,1781.009,o),
(722.874,1781.214,o),
(699.274,1761.861,c),
(523.587,1617.798,o),
(325.101,1498.382,o),
(141.003,1364.74,c),
(97.843,1333.409,o),
(99.761,1285.374,o),
(123.26,1253.003,c),
(146.758,1220.633,o)
);
},
{
closed = 1;
nodes = (
(0,1718,l),
(1500,1718,l),
(1500,1774,l),
(0,1774,l)
);
},
{
closed = 1;
nodes = (
(0,1008,l),
(1500,1008,l),
(1500,1064,l),
(0,1064,l)
);
},
{
closed = 1;
nodes = (
(0,-96,l),
(1500,-96,l),
(1500,-18,l),
(0,-18,l)
);
},
{
closed = 1;
nodes = (
(0,-574,l),
(1500,-574,l),
(1500,-518,l),
(0,-518,l)
);
}
);
width = 1500;
},
{
layerId = "88FD4E68-2D1A-46CE-87AD-7FBA89BDFB80";
width = 600;
},
{
layerId = "5BD49938-778C-46FB-8B52-6AA10854A152";
width = 600;
}
);
unicode = 49;
}
{
glyphname = four;
layers = (
{
layerId = m01;
shapes = (
{
pos = (700,0);
ref = _c.stemLA;
},
{
closed = 0;
nodes = (
(1330,530,l),
(1230,530,o),
(270,530,o),
(170,530,c,{
co.uk.corvelsoftware.Dotter = {
forced = 1;
};
}),
(308,747,o),
(870,1520,o),
(980,1700,c,{
co.uk.corvelsoftware.Dotter = {
locally_forced = 1;
};
})
);
}
);
width = 1500;
},
{
layerId = "FDE4885D-BB7A-448A-91AC-7911E70BCCB6";
shapes = (
{
closed = 1;
nodes = (
(870,1753.333,o),
(870,1700,c),
(870,1423.333,o),
(870,1146.667,o),
(870,870,c),
(870,580,o),
(870,290,o),
(870,0,c),
(870,-53.333,o),
(910,-80,o),
(950,-80,c),
(990,-80,o),
(1030,-53.333,o),
(1030,0,c),
(1030,290,o),
(1030,580,o),
(1030,870,c),
(1030,1146.667,o),
(1030,1423.333,o),
(1030,1700,c),
(1030,1753.333,o),
(990,1780,o),
(950,1780,c),
(910,1780,o)
);
},
{
closed = 1;
nodes = (
(1383.333,610,o),
(1330,610,c),
(943.333,610,o),
(556.667,610,o),
(170,610,c),
(142.338,610,o),
(151.793,567.597,o),
(171.873,531.029,c),
(191.954,494.461,o),
(222.662,463.728,o),
(237.506,487.07,c),
(418.002,770.894,o),
(623.08,1042.102,o),
(816.251,1317.493,c),
(894.864,1429.567,o),
(976.85,1541.427,o),
(1048.263,1658.284,c),
(1076.073,1703.792,o),
(1055.847,1747.405,o),
(1021.716,1768.263,c),
(987.585,1789.121,o),
(939.548,1787.224,o),
(911.737,1741.716,c),
(842.094,1627.753,o),
(761.931,1518.674,o),
(685.265,1409.377,c),
(490.696,1131.993,o),
(284.299,858.812,o),
(102.494,572.93,c),
(87.65,549.588,o),
(90.696,518.856,o),
(104.368,493.959,c),
(118.04,469.062,o),
(142.338,450,o),
(170,450,c),
(556.667,450,o),
(943.333,450,o),
(1330,450,c),
(1383.333,450,o),
(1410,490,o),
(1410,530,c),
(1410,570,o)
);
},
{
closed = 1;
nodes = (
(0,1700,l),
(1500,1700,l),
(1500,1764,l),
(0,1764,l)
);
},
{
closed = 1;
nodes = (
(0,1000,l),
(1500,1000,l),
(1500,1064,l),
(0,1064,l)
);
},
{
closed = 1;
nodes = (
(0,0,l),
(1500,0,l),
(1500,92,l),
(0,92,l)
);
},
{
closed = 1;
nodes = (
(0,-500,l),
(1500,-500,l),
(1500,-436,l),
(0,-436,l)
);
}
);
width = 1500;
},
{
layerId = "88FD4E68-2D1A-46CE-87AD-7FBA89BDFB80";
width = 600;
},
{
layerId = "5BD49938-778C-46FB-8B52-6AA10854A152";
width = 600;
}
);
unicode = 52;
}
{
glyphname = five;
layers = (
{
layerId = m01;
shapes = (
{
closed = 0;
nodes = (
(220,330,l),
(289,155,o),
(490,0,o),
(740,0,cs),
(1020,0,o),
(1270,175,o),
(1270,520,cs),
(1270,800,o),
(1076,1000,o),
(740,1000,cs),
(567,1000,o),
(397,937,o),
(250,800,c),
(250,1700,l,{
co.uk.corvelsoftware.Dotter = {
forced = 1;
};
}),
(1230,1700,l)
);
}
);
width = 1500;
},
{
layerId = "FDE4885D-BB7A-448A-91AC-7911E70BCCB6";
shapes = (
{
closed = 1;
nodes = (
(126.013,350.272,o),
(145.576,300.656,c),
(238.599,64.727,o),
(492.369,-80,o),
(740,-80,c),
(1092.025,-80,o),
(1350,164.063,o),
(1350,520,c),
(1350,874.441,o),
(1078.154,1080,o),
(740,1080,c),
(534.753,1080,o),
(344.804,997.712,o),
(195.457,858.524,c),
(172.004,836.666,o),
(205.64,806.005,o),
(245.139,788.824,c),
(284.638,771.643,o),
(330,767.94,o),
(330,800,c),
(330,1100,o),
(330,1400,o),
(330,1700,c),
(330,1715.621,o),
(302.19,1695.621,o),
(278.284,1671.716,c),
(254.379,1647.81,o),
(234.379,1620,o),
(250,1620,c),
(576.667,1620,o),
(903.333,1620,o),
(1230,1620,c),
(1283.333,1620,o),
(1310,1660,o),
(1310,1700,c),
(1310,1740,o),
(1283.333,1780,o),
(1230,1780,c),
(903.333,1780,o),
(576.667,1780,o),
(250,1780,c),
(234.379,1780,o),
(214.379,1767.81,o),
(198.284,1751.716,c),
(182.19,1735.621,o),
(170,1715.621,o),
(170,1700,c),
(170,1400,o),
(170,1100,o),
(170,800,c),
(170,767.94,o),
(191.909,742.38,o),
(219.682,730.3,c),
(247.454,718.219,o),
(281.09,719.618,o),
(304.543,741.476,c),
(424.352,853.135,o),
(575.144,920,o),
(740,920,c),
(989.716,920,o),
(1190,785.541,o),
(1190,520,c),
(1190,252.199,o),
(1004.277,80,o),
(740,80,c),
(558.143,80,o),
(363.321,184.604,o),
(294.424,359.344,c),
(274.861,408.96,o),
(227.868,419.096,o),
(190.656,404.424,c),
(153.444,389.752,o)
);
},
{
closed = 1;
nodes = (
(0,1700,l),
(1500,1700,l),
(1500,1764,l),
(0,1764,l)
);
},
{
closed = 1;
nodes = (
(0,1000,l),
(1500,1000,l),
(1500,1064,l),
(0,1064,l)
);
},
{
closed = 1;
nodes = (
(0,0,l),
(1500,0,l),
(1500,92,l),
(0,92,l)
);
},
{
closed = 1;
nodes = (
(0,-500,l),
(1500,-500,l),
(1500,-436,l),
(0,-436,l)
);
}
);
width = 1500;
},
{
layerId = "88FD4E68-2D1A-46CE-87AD-7FBA89BDFB80";
width = 600;
},
{
layerId = "5BD49938-778C-46FB-8B52-6AA10854A152";
width = 600;
}
);
unicode = 53;
}
{
glyphname = six;
layers = (
{
background = {
shapes = (
{
closed = 0;
nodes = (
(1219,1400,l),
(1113,1632,o),
(931,1700,o),
(750,1700,cs),
(425,1700,o),
(170,1420,o),
(170,870,cs),
(170,310,o),
(425,0,o),
(750,0,cs),
(1075,0,o),
(1330,310,o),
(1330,870,cs),
(1330,990,o),
(1318,1098,o),
(1295,1192,c)
);
}
);
};
layerId = m01;
shapes = (
{
closed = 0;
nodes = (
(1230,1460,l),
(1104,1622,o),
(961,1700,o),
(770,1700,cs),
(445,1700,o),
(190,1420,o),
(190,870,cs),
(190,290,o),
(445,0,o),
(770,0,cs),
(1095,0,o),
(1280,260,o),
(1280,520,cs),
(1280,780,o),
(1097,1000,o),
(770,1000,cs),
(503,1000,o),
(325,831,o),
(209,610,c)
);
}
);
width = 1500;
},
{
layerId = "FDE4885D-BB7A-448A-91AC-7911E70BCCB6";
shapes = (
{
closed = 1;
nodes = (
(1325.892,1467.016,o),
(1293.148,1509.115,c),
(1160.588,1679.55,o),
(989.062,1780,o),
(770,1780,c),
(278.543,1780,o),
(110,1282.555,o),
(110,870,c),
(110,457.443,o),
(267.731,-80,o),
(770,-80,c),
(1107.03,-80,o),
(1360,186.078,o),
(1360,520,c),
(1360,858.289,o),
(1098.856,1080,o),
(770,1080,c),
(478.121,1080,o),
(267.921,894.388,o),
(138.165,647.18,c),
(113.378,599.957,o),
(136.402,557.755,o),
(171.82,539.165,c),
(207.237,520.575,o),
(255.048,525.596,o),
(279.835,572.82,c),
(381.486,766.482,o),
(539.159,920,o),
(770,920,c),
(1010.691,920,o),
(1200,770.1,o),
(1200,520,c),
(1200,273.858,o),
(1018.92,80,o),
(770,80,c),
(369.218,80,o),
(270,555.022,o),
(270,870,c),
(270,1185.258,o),
(379.468,1620,o),
(770,1620,c),
(939.588,1620,o),
(1064.549,1542.417,o),
(1166.852,1410.885,c),
(1199.595,1368.786,o),
(1247.541,1372.294,o),
(1279.115,1396.852,c),
(1310.689,1421.409,o)
);
},
{
closed = 1;
nodes = (
(0,1718,l),
(1500,1718,l),
(1500,1774,l),
(0,1774,l)
);
},
{
closed = 1;
nodes = (
(0,1008,l),
(1500,1008,l),
(1500,1064,l),
(0,1064,l)
);
},
{
closed = 1;
nodes = (
(0,-96,l),
(1500,-96,l),
(1500,-18,l),
(0,-18,l)
);
},
{
closed = 1;
nodes = (
(0,-574,l),
(1500,-574,l),
(1500,-518,l),
(0,-518,l)
);
}
);
width = 1500;
},
{
layerId = "88FD4E68-2D1A-46CE-87AD-7FBA89BDFB80";
width = 600;
},
{
layerId = "5BD49938-778C-46FB-8B52-6AA10854A152";
width = 600;
}
);
unicode = 54;
}
{
glyphname = seven;
layers = (
{
layerId = m01;
shapes = (
{
closed = 0;
nodes = (
(170,1700,l),
(1330,1700,l,{
co.uk.corvelsoftware.Dotter = {
forced = 1;
};
}),
(550,0,l)
);
}
);
width = 1500;
},
{
layerId = "FDE4885D-BB7A-448A-91AC-7911E70BCCB6";
shapes = (
{
closed = 1;
nodes = (
(116.667,1620,o),
(170,1620,c),
(556.667,1620,o),
(943.333,1620,o),
(1330,1620,c),
(1354.539,1620,o),
(1341.478,1659.492,o),
(1319.723,1693.408,c),
(1297.969,1727.325,o),
(1267.522,1755.665,o),
(1257.288,1733.362,c),
(997.288,1166.695,o),
(737.288,600.029,o),
(477.288,33.362,c),
(455.047,-15.113,o),
(480.282,-56.031,o),
(516.638,-72.712,c),
(552.994,-89.393,o),
(600.47,-81.836,o),
(622.712,-33.362,c),
(882.712,533.305,o),
(1142.712,1099.972,o),
(1402.712,1666.638,c),
(1412.945,1688.941,o),
(1407.036,1717.282,o),
(1392.435,1740.047,c),
(1377.833,1762.811,o),
(1354.539,1780,o),
(1330,1780,c),
(943.333,1780,o),
(556.667,1780,o),
(170,1780,c),
(116.667,1780,o),
(90,1740,o),
(90,1700,c),
(90,1660,o)
);
},
{
closed = 1;
nodes = (
(0,1718,l),
(1500,1718,l),
(1500,1774,l),
(0,1774,l)
);
},
{
closed = 1;
nodes = (
(0,1008,l),
(1500,1008,l),
(1500,1064,l),
(0,1064,l)
);
},
{
closed = 1;
nodes = (
(0,-96,l),
(1500,-96,l),
(1500,-18,l),
(0,-18,l)
);
},
{
closed = 1;
nodes = (
(0,-574,l),
(1500,-574,l),
(1500,-518,l),
(0,-518,l)
);
}
);
width = 1500;
},
{
layerId = "88FD4E68-2D1A-46CE-87AD-7FBA89BDFB80";
width = 600;
},
{
layerId = "5BD49938-778C-46FB-8B52-6AA10854A152";
width = 600;
}
);
unicode = 55;
}
{
glyphname = eight;
layers = (
{
background = {
shapes = (
{
closed = 0;
nodes = (
(752,900,l),
(484,900,o),
(220,721,o),
(220,450,cs),
(220,155,o),
(472,0,o),
(750,0,cs),
(1029,0,o),
(1280,155,o),
(1280,450,cs),
(1280,721,o),
(1018,900,o),
(750,900,cs)
);
},
{
closed = 0;
nodes = (
(751,1700,l),
(512,1700,o),
(280,1569,o),
(280,1310,cs),
(280,1065,o),
(520,900,o),
(750,900,cs),
(980,900,o),
(1220,1065,o),
(1220,1310,cs),
(1220,1569,o),
(989,1700,o),
(750,1700,cs)
);
}
);
};
layerId = m01;
shapes = (
{
closed = 0;
nodes = (
(751,1700,l),
(512,1700,o),
(280,1570,o),
(280,1310,cs),
(280,1050,o),
(520,900,o),
(750,900,cs,{
co.uk.corvelsoftware.Dotter = {
forced = 1;
};
}),
(980,900,o),
(1280,770,o),
(1280,460,cs),
(1280,130,o),
(989,0,o),
(750,0,cs),
(511,0,o),
(224,130,o),
(224,460,cs),
(224,770,o),
(580,900,o),
(750,900,cs,{
co.uk.corvelsoftware.Dotter = {
forced = 1;
};
}),
(920,900,o),
(1213,1050,o),
(1213,1310,cs),
(1213,1570,o),
(1049,1700,o),
(749,1700,cs)
);
}
);
width = 1500;
},
{
layerId = "FDE4885D-BB7A-448A-91AC-7911E70BCCB6";
shapes = (
{
closed = 1;
nodes = (
(804.333,1780,o),
(751,1780,c),
(471.772,1780,o),
(200,1615.385,o),
(200,1310,c),
(200,1011.786,o),
(470.126,820,o),
(750,820,c),
(964.141,820,o),
(1200,700.575,o),
(1200,460,c),
(1200,207.233,o),
(980.941,80,o),
(750,80,c),
(518.643,80,o),
(304,207.904,o),
(304,460,c),
(304,676.255,o),
(554.513,820,o),
(750,820,c),
(1009.089,820,o),
(1293,1038.419,o),
(1293,1310,c),
(1293,1639.045,o),
(1051.96,1780,o),
(749,1780,c),
(695.667,1780,o),
(669,1740,o),
(669,1700,c),
(669,1660,o),
(695.667,1620,o),
(749,1620,c),
(962.813,1620,o),
(1133,1547.613,o),
(1133,1310,c),
(1133,1127.878,o),
(920.072,980,o),
(750,980,c),
(464.557,980,o),
(144,767.355,o),
(144,460,c),
(144,117.856,o),
(429.883,-80,o),
(750,-80,c),
(1069.843,-80,o),
(1360,116.995,o),
(1360,460,c),
(1360,792.052,o),
(1054.061,980,o),
(750,980,c),
(559.166,980,o),
(360,1101.609,o),
(360,1310,c),
(360,1523.888,o),
(561.81,1620,o),
(751,1620,c),
(804.333,1620,o),
(831,1660,o),
(831,1700,c),
(831,1740,o)
);
},
{
closed = 1;
nodes = (
(0,1718,l),
(1500,1718,l),
(1500,1774,l),
(0,1774,l)
);
},
{
closed = 1;
nodes = (
(0,1008,l),
(1500,1008,l),
(1500,1064,l),
(0,1064,l)
);
},
{
closed = 1;
nodes = (
(0,-96,l),
(1500,-96,l),
(1500,-18,l),
(0,-18,l)
);
},
{
closed = 1;
nodes = (
(0,-574,l),
(1500,-574,l),
(1500,-518,l),
(0,-518,l)
);
}
);
width = 1500;
},
{
layerId = "88FD4E68-2D1A-46CE-87AD-7FBA89BDFB80";
width = 600;
},
{
layerId = "5BD49938-778C-46FB-8B52-6AA10854A152";
width = 600;
}
);
unicode = 56;
}
{
glyphname = nine;
layers = (
{
layerId = m01;
shapes = (
{
closed = 0;
nodes = (
(250,300,l),
(366,88,o),
(529,0,o),
(730,0,cs),
(1055,0,o),
(1310,350,o),
(1310,900,cs),
(1310,1460,o),
(1055,1700,o),
(730,1700,cs),
(405,1700,o),
(220,1440,o),
(220,1180,cs),
(220,920,o),
(403,700,o),
(730,700,cs),
(967,700,o),
(1169,832,o),
(1305,1053,c)
);
}
);
width = 1500;
},
{
layerId = "FDE4885D-BB7A-448A-91AC-7911E70BCCB6";
shapes = (
{
pos = (250,300);
ref = _dot;
},
{
pos = (1305,1053);
ref = _dot;
},
{
pos = (319.739,194.115);
ref = _dot;
},
{
pos = (409.162,104.41);
ref = _dot;
},
{
pos = (518.096,39.981);
ref = _dot;
},
{
pos = (640.156,6.358);
ref = _dot;
},
{
pos = (766.756,1.526);
ref = _dot;
},
{
pos = (889.982,30.092);
ref = _dot;
},
{
pos = (1000.458,91.845);
ref = _dot;
},
{
pos = (1092.684,178.691);
ref = _dot;
},
{
pos = (1165.908,282.181);
ref = _dot;
},
{
pos = (1221.656,396.107);
ref = _dot;
},
{
pos = (1262.118,516.35);
ref = _dot;
},
{
pos = (1289.25,640.306);
ref = _dot;
},
{
pos = (1304.737,766.261);
ref = _dot;
},
{
pos = (1309.924,893.068);
ref = _dot;
},
{
pos = (1290.934,1145.938);
ref = _dot;
},
{
pos = (1262.625,1269.607);
ref = _dot;
},
{
pos = (1217.559,1388.141);
ref = _dot;
},
{
pos = (1152.193,1496.711);
ref = _dot;
},
{
pos = (1064.485,1588.043);
ref = _dot;
},
{
pos = (956.601,1654.246);
ref = _dot;
},
{
pos = (835.427,1691.005);
ref = _dot;
},
{
pos = (709.005,1699.623);
ref = _dot;
},
{
pos = (583.766,1680.765);
ref = _dot;
},
{
pos = (467.193,1631.446);
ref = _dot;
},
{
pos = (367.733,1553.172);
ref = _dot;
},
{
pos = (291.7,1451.937);
ref = _dot;
},
{
pos = (242.26,1335.336);
ref = _dot;
},
{
pos = (220.851,1210.494);
ref = _dot;
},
{
pos = (228.634,1084.082);
ref = _dot;
},
{
pos = (267.437,963.601);
ref = _dot;
},
{
pos = (337.519,858.273);
ref = _dot;
},
{
pos = (434.609,777.162);
ref = _dot;
},
{
pos = (550.113,725.357);
ref = _dot;
},
{
pos = (674.675,702.187);
ref = _dot;
},
{
pos = (801.407,704.082);
ref = _dot;
},
{
pos = (925.061,731.739);
ref = _dot;
},
{
pos = (1040.279,784.495);
ref = _dot;
},
{
pos = (1143.014,858.749);
ref = _dot;
},
{
pos = (1231.328,949.745);
ref = _dot;
}
);
width = 1500;
},
{
layerId = "88FD4E68-2D1A-46CE-87AD-7FBA89BDFB80";
width = 600;
},
{
layerId = "5BD49938-778C-46FB-8B52-6AA10854A152";
width = 600;
}
);
unicode = 57;
}
{
glyphname = semicolon;
layers = (
{
layerId = m01;
shapes = (
{
ref = comma;
},
{
pos = (0,800);
ref = period;
}
);
width = 620;
},
{
layerId = "FDE4885D-BB7A-448A-91AC-7911E70BCCB6";
shapes = (
{
closed = 1;
nodes = (
(215.532,-295.989,o),
(258.133,-263.9,c),
(340.659,-201.738,o),
(456,-114.889,o),
(456,0,c),
(456,70.067,o),
(412.093,135.021,o),
(356.784,174.894,c),
(313.521,206.084,o),
(268.498,189.231,o),
(245.106,156.784,c),
(221.714,124.337,o),
(219.953,76.295,o),
(263.216,45.106,c),
(275.032,36.587,o),
(296,16.239,o),
(296,0,c),
(296,-40.071,o),
(188.236,-116.238,o),
(161.867,-136.1,c),
(119.267,-168.188,o),
(122.033,-216.183,o),
(146.1,-248.133,c),
(170.166,-280.083,o)
);
},
{
closed = 1;
nodes = (
(390,746.667,o),
(390,800,c),
(390,803.333,o),
(390,806.667,o),
(390,810,c),
(390,863.333,o),
(350,890,o),
(310,890,c),
(270,890,o),
(230,863.333,o),
(230,810,c),
(230,806.667,o),
(230,803.333,o),
(230,800,c),
(230,746.667,o),
(270,720,o),
(310,720,c),
(350,720,o)
);
},
{
closed = 1;
nodes = (
(0,1700,l),
(620,1700,l),
(620,1764,l),
(0,1764,l)
);
},
{
closed = 1;
nodes = (
(0,1000,l),
(620,1000,l),
(620,1064,l),
(0,1064,l)
);
},
{
closed = 1;
nodes = (
(0,0,l),
(620,0,l),
(620,92,l),
(0,92,l)
);
},
{
closed = 1;
nodes = (
(0,-500,l),
(620,-500,l),
(620,-436,l),
(0,-436,l)
);
}
);
width = 620;
},
{
layerId = "88FD4E68-2D1A-46CE-87AD-7FBA89BDFB80";
width = 600;
},
{
layerId = "5BD49938-778C-46FB-8B52-6AA10854A152";
width = 600;
}
);
unicode = 59;
}
{
color = 1;
glyphname = question;
layers = (
{
layerId = m01;
shapes = (
{
ref = period;
}
);
width = 620;
},
{
layerId = "FDE4885D-BB7A-448A-91AC-7911E70BCCB6";
shapes = (
{
closed = 1;
nodes = (
(390,-53.333,o),
(390,0,c),
(390,3.333,o),
(390,6.667,o),
(390,10,c),
(390,63.333,o),
(350,90,o),
(310,90,c),
(270,90,o),
(230,63.333,o),
(230,10,c),
(230,6.667,o),
(230,3.333,o),
(230,0,c),
(230,-53.333,o),
(270,-80,o),
(310,-80,c),
(350,-80,o)
);
},
{
closed = 1;
nodes = (
(0,1718,l),
(620,1718,l),
(620,1774,l),
(0,1774,l)
);
},
{
closed = 1;
nodes = (
(0,1008,l),
(620,1008,l),
(620,1064,l),
(0,1064,l)
);
},
{
closed = 1;
nodes = (
(0,-96,l),
(620,-96,l),
(620,-18,l),
(0,-18,l)
);
},
{
closed = 1;
nodes = (
(0,-574,l),
(620,-574,l),
(620,-518,l),
(0,-518,l)
);
}
);
width = 620;
},
{
layerId = "88FD4E68-2D1A-46CE-87AD-7FBA89BDFB80";
width = 600;
},
{
layerId = "5BD49938-778C-46FB-8B52-6AA10854A152";
width = 600;
}
);
unicode = 63;
}
{
glyphname = A;
layers = (
{
anchors = (
{
name = bottom;
pos = (760,-100);
},
{
name = ogonek;
pos = (1370,-100);
},
{
name = top;
pos = (760,1770);
}
);
layerId = m01;
shapes = (
{
closed = 0;
nodes = (
(1370,0,l),
(760,1710,l,{
co.uk.corvelsoftware.Dotter = {
forced = 1;
};
}),
(150,0,l)
);
},
{
closed = 0;
nodes = (
(364,600,l),
(464,600,o),
(1056,600,o),
(1156,600,c)
);
}
);
userData = {
"co.uk.corvelsoftware.Dotter.Dot 4 Test B.contourSource" = DotAltBold;
"co.uk.corvelsoftware.Dotter.Dot 5 Test B.contourSource" = DotAltBold;
};
width = 1520;
},
{
layerId = "FDE4885D-BB7A-448A-91AC-7911E70BCCB6";
shapes = (
{
closed = 1;
nodes = (
(1463.269,-23.354,o),
(1445.349,26.879,c),
(1242.016,596.879,o),
(1038.683,1166.879,o),
(835.349,1736.879,c),
(823.451,1770.234,o),
(791.725,1786.912,o),
(760,1786.912,c),
(728.275,1786.912,o),
(696.549,1770.234,o),
(684.651,1736.879,c),
(481.317,1166.879,o),
(277.984,596.879,o),
(74.651,26.879,c),
(56.731,-23.354,o),
(85.446,-61.91,o),
(123.121,-75.349,c),
(160.796,-88.789,o),
(207.43,-77.112,o),
(225.349,-26.879,c),
(428.683,543.121,o),
(632.016,1113.121,o),
(835.349,1683.121,c),
(847.248,1716.476,o),
(803.624,1733.154,o),
(760,1733.154,c),
(716.376,1733.154,o),
(672.752,1716.476,o),
(684.651,1683.121,c),
(887.984,1113.121,o),
(1091.317,543.121,o),
(1294.651,-26.879,c),
(1312.57,-77.112,o),
(1359.204,-88.789,o),
(1396.879,-75.349,c),
(1434.554,-61.91,o)
);
},
{
closed = 1;
nodes = (
(310.667,520,o),
(364,520,c),
(628,520,o),
(892,520,o),
(1156,520,c),
(1209.333,520,o),
(1236,560,o),
(1236,600,c),
(1236,640,o),
(1209.333,680,o),
(1156,680,c),
(892,680,o),
(628,680,o),
(364,680,c),
(310.667,680,o),
(284,640,o),
(284,600,c),
(284,560,o)
);
},
{
closed = 1;
nodes = (
(0,1718,l),
(1520,1718,l),
(1520,1774,l),
(0,1774,l)
);
},
{
closed = 1;
nodes = (
(0,1008,l),
(1520,1008,l),
(1520,1064,l),
(0,1064,l)
);
},
{
closed = 1;
nodes = (
(0,-96,l),
(1520,-96,l),
(1520,-18,l),
(0,-18,l)
);
},
{
closed = 1;
nodes = (
(0,-574,l),
(1520,-574,l),
(1520,-518,l),
(0,-518,l)
);
}
);
width = 1520;
},
{
layerId = "88FD4E68-2D1A-46CE-87AD-7FBA89BDFB80";
width = 600;
},
{
associatedMasterId = m01;
layerId = "EAFA4B33-F2F7-429D-AA7F-1218C221B7AC";
name = "Pendot Quick Preview";
shapes = (
{
closed = 1;
nodes = (
(1427,15.117,o),
(1420.995,29.615,o),
(1410.305,40.305,c),
(1399.615,50.995,o),
(1385.117,57,o),
(1370,57,c),
(1354.883,57,o),
(1340.385,50.995,o),
(1329.695,40.305,c),
(1319.005,29.615,o),
(1313,15.117,o),
(1313,0,c),
(1313,-15.117,o),
(1319.005,-29.615,o),
(1329.695,-40.305,c),
(1340.385,-50.995,o),
(1354.883,-57,o),
(1370,-57,c),
(1385.117,-57,o),
(1399.615,-50.995,o),
(1410.305,-40.305,c),
(1420.995,-29.615,o),
(1427,-15.117,o),
(1427,0,c)
);
},
{
closed = 1;
nodes = (
(1209.782,627.696,o),
(1203.776,642.194,o),
(1193.086,652.883,c),
(1182.397,663.573,o),
(1167.899,669.579,o),
(1152.782,669.579,c),
(1137.664,669.579,o),
(1123.166,663.573,o),
(1112.477,652.883,c),
(1101.787,642.194,o),
(1095.782,627.696,o),
(1095.782,612.579,c),
(1095.782,597.461,o),
(1101.787,582.963,o),
(1112.477,572.274,c),
(1123.166,561.584,o),
(1137.664,555.579,o),
(1152.782,555.579,c),
(1167.899,555.579,o),
(1182.397,561.584,o),
(1193.086,572.274,c),
(1203.776,582.963,o),
(1209.782,597.461,o),
(1209.782,612.579,c)
);
},
{
closed = 1;
nodes = (
(817,1725.117,o),
(810.995,1739.615,o),
(800.305,1750.305,c),
(789.615,1760.995,o),
(775.117,1767,o),
(760,1767,c),
(744.883,1767,o),
(730.385,1760.995,o),
(719.695,1750.305,c),
(709.005,1739.615,o),
(703,1725.117,o),
(703,1710,c),
(703,1694.883,o),
(709.005,1680.385,o),
(719.695,1669.695,c),
(730.385,1659.005,o),
(744.883,1653,o),
(760,1653,c),
(775.117,1653,o),
(789.615,1659.005,o),
(800.305,1669.695,c),
(810.995,1680.385,o),
(817,1694.883,o),
(817,1710,c)
);
},
{
closed = 1;
nodes = (
(423.775,627.696,o),
(417.77,642.194,o),
(407.08,652.883,c),
(396.391,663.573,o),
(381.893,669.579,o),
(366.775,669.579,c),
(351.658,669.579,o),
(337.16,663.573,o),
(326.471,652.883,c),
(315.781,642.194,o),
(309.775,627.696,o),
(309.775,612.579,c),
(309.775,597.461,o),
(315.781,582.963,o),
(326.471,572.274,c),
(337.16,561.584,o),
(351.658,555.579,o),
(366.775,555.579,c),
(381.893,555.579,o),
(396.391,561.584,o),
(407.08,572.274,c),
(417.77,582.963,o),
(423.775,597.461,o),
(423.775,612.579,c)
);
},
{
closed = 1;
nodes = (
(207,15.117,o),
(200.995,29.615,o),
(190.305,40.305,c),
(179.615,50.995,o),
(165.117,57,o),
(150,57,c),
(134.883,57,o),
(120.385,50.995,o),
(109.695,40.305,c),
(99.005,29.615,o),
(93,15.117,o),
(93,0,c),
(93,-15.117,o),
(99.005,-29.615,o),
(109.695,-40.305,c),
(120.385,-50.995,o),
(134.883,-57,o),
(150,-57,c),
(165.117,-57,o),
(179.615,-50.995,o),
(190.305,-40.305,c),
(200.995,-29.615,o),
(207,-15.117,o),
(207,0,c)
);
},
{
closed = 1;
nodes = (
(1371.396,171.528,o),
(1365.39,186.026,o),
(1354.7,196.715,c),
(1344.011,207.405,o),
(1329.513,213.41,o),
(1314.396,213.41,c),
(1299.278,213.41,o),
(1284.78,207.405,o),
(1274.091,196.715,c),
(1263.401,186.026,o),
(1257.396,171.528,o),
(1257.396,156.41,c),
(1257.396,141.293,o),
(1263.401,126.795,o),
(1274.091,116.106,c),
(1284.78,105.416,o),
(1299.278,99.41,o),
(1314.396,99.41,c),
(1329.513,99.41,o),
(1344.011,105.416,o),
(1354.7,116.106,c),
(1365.39,126.795,o),
(1371.396,141.293,o),
(1371.396,156.41,c)
);
},
{
closed = 1;
nodes = (
(1315.911,327.98,o),
(1309.906,342.478,o),
(1299.216,353.168,c),
(1288.526,363.858,o),
(1274.028,369.863,o),
(1258.911,369.863,c),
(1243.794,369.863,o),
(1229.295,363.858,o),
(1218.606,353.168,c),
(1207.916,342.478,o),
(1201.911,327.98,o),
(1201.911,312.863,c),
(1201.911,297.746,o),
(1207.916,283.247,o),
(1218.606,272.558,c),
(1229.295,261.868,o),
(1243.794,255.863,o),
(1258.911,255.863,c),
(1274.028,255.863,o),
(1288.526,261.868,o),
(1299.216,272.558,c),
(1309.906,283.247,o),
(1315.911,297.746,o),
(1315.911,312.863,c)
);
},
{
closed = 1;
nodes = (
(1260.489,484.455,o),
(1254.484,498.953,o),
(1243.794,509.643,c),
(1233.105,520.333,o),
(1218.607,526.338,o),
(1203.489,526.338,c),
(1188.372,526.338,o),
(1173.874,520.333,o),
(1163.185,509.643,c),
(1152.495,498.953,o),
(1146.489,484.455,o),
(1146.489,469.338,c),
(1146.489,454.221,o),
(1152.495,439.722,o),
(1163.185,429.033,c),
(1173.874,418.343,o),
(1188.372,412.338,o),
(1203.489,412.338,c),
(1218.607,412.338,o),
(1233.105,418.343,o),
(1243.794,429.033,c),
(1254.484,439.722,o),
(1260.489,454.221,o),
(1260.489,469.338,c)
);
},
{
closed = 1;
nodes = (
(1154.211,784.668,o),
(1148.206,799.166,o),
(1137.516,809.855,c),
(1126.827,820.545,o),
(1112.329,826.55,o),
(1097.211,826.55,c),
(1082.094,826.55,o),
(1067.596,820.545,o),
(1056.907,809.855,c),
(1046.217,799.166,o),
(1040.211,784.668,o),
(1040.211,769.55,c),
(1040.211,754.433,o),
(1046.217,739.935,o),
(1056.907,729.246,c),
(1067.596,718.556,o),
(1082.094,712.55,o),
(1097.211,712.55,c),
(1112.329,712.55,o),
(1126.827,718.556,o),
(1137.516,729.246,c),
(1148.206,739.935,o),
(1154.211,754.433,o),
(1154.211,769.55,c)
);
},
{
closed = 1;
nodes = (
(1098.61,941.628,o),
(1092.605,956.127,o),
(1081.915,966.816,c),
(1071.226,977.506,o),
(1056.727,983.511,o),
(1041.61,983.511,c),
(1026.493,983.511,o),
(1011.995,977.506,o),
(1001.305,966.816,c),
(990.615,956.127,o),
(984.61,941.628,o),
(984.61,926.511,c),
(984.61,911.394,o),
(990.615,896.896,o),
(1001.305,886.206,c),
(1011.995,875.516,o),
(1026.493,869.511,o),
(1041.61,869.511,c),
(1056.727,869.511,o),
(1071.226,875.516,o),
(1081.915,886.206,c),
(1092.605,896.896,o),
(1098.61,911.394,o),
(1098.61,926.511,c)
);
},
{
closed = 1;
nodes = (
(1042.944,1098.566,o),
(1036.939,1113.064,o),
(1026.249,1123.754,c),
(1015.559,1134.443,o),
(1001.061,1140.449,o),
(985.944,1140.449,c),
(970.827,1140.449,o),
(956.328,1134.443,o),
(945.639,1123.754,c),
(934.949,1113.064,o),
(928.944,1098.566,o),
(928.944,1083.449,c),
(928.944,1068.332,o),
(934.949,1053.833,o),
(945.639,1043.144,c),
(956.328,1032.454,o),
(970.827,1026.449,o),
(985.944,1026.449,c),
(1001.061,1026.449,o),
(1015.559,1032.454,o),
(1026.249,1043.144,c),
(1036.939,1053.833,o),
(1042.944,1068.332,o),
(1042.944,1083.449,c)
);
},
{
closed = 1;
nodes = (
(987.163,1255.463,o),
(981.158,1269.961,o),
(970.468,1280.651,c),
(959.779,1291.341,o),
(945.281,1297.346,o),
(930.163,1297.346,c),
(915.046,1297.346,o),
(900.548,1291.341,o),
(889.859,1280.651,c),
(879.169,1269.961,o),
(873.163,1255.463,o),
(873.163,1240.346,c),
(873.163,1225.229,o),
(879.169,1210.73,o),
(889.859,1200.041,c),
(900.548,1189.351,o),
(915.046,1183.346,o),
(930.163,1183.346,c),
(945.281,1183.346,o),
(959.779,1189.351,o),
(970.468,1200.041,c),
(981.158,1210.73,o),
(987.163,1225.229,o),
(987.163,1240.346,c)
);
},
{
closed = 1;
nodes = (
(931.182,1412.289,o),
(925.177,1426.787,o),
(914.487,1437.476,c),
(903.798,1448.166,o),
(889.3,1454.172,o),
(874.182,1454.172,c),
(859.065,1454.172,o),
(844.567,1448.166,o),
(833.878,1437.476,c),
(823.188,1426.787,o),
(817.182,1412.289,o),
(817.182,1397.172,c),
(817.182,1382.054,o),
(823.188,1367.556,o),
(833.878,1356.867,c),
(844.567,1346.177,o),
(859.065,1340.172,o),
(874.182,1340.172,c),
(889.3,1340.172,o),
(903.798,1346.177,o),
(914.487,1356.867,c),
(925.177,1367.556,o),
(931.182,1382.054,o),
(931.182,1397.172,c)
);
},
{
closed = 1;
nodes = (
(874.8,1568.971,o),
(868.795,1583.469,o),
(858.105,1594.158,c),
(847.416,1604.848,o),
(832.917,1610.853,o),
(817.8,1610.853,c),
(802.683,1610.853,o),
(788.185,1604.848,o),
(777.495,1594.158,c),
(766.805,1583.469,o),
(760.8,1568.971,o),
(760.8,1553.853,c),
(760.8,1538.736,o),
(766.805,1524.238,o),
(777.495,1513.549,c),
(788.185,1502.859,o),
(802.683,1496.853,o),
(817.8,1496.853,c),
(832.917,1496.853,o),
(847.416,1502.859,o),
(858.105,1513.549,c),
(868.795,1524.238,o),
(874.8,1538.736,o),
(874.8,1553.853,c)
);
},
{
closed = 1;
nodes = (
(759.121,1568.963,o),
(753.115,1583.461,o),
(742.425,1594.15,c),
(731.736,1604.84,o),
(717.238,1610.846,o),
(702.121,1610.846,c),
(687.003,1610.846,o),
(672.505,1604.84,o),
(661.816,1594.15,c),
(651.126,1583.461,o),
(645.121,1568.963,o),
(645.121,1553.846,c),
(645.121,1538.728,o),
(651.126,1524.23,o),
(661.816,1513.541,c),
(672.505,1502.851,o),
(687.003,1496.846,o),
(702.121,1496.846,c),
(717.238,1496.846,o),
(731.736,1502.851,o),
(742.425,1513.541,c),
(753.115,1524.23,o),
(759.121,1538.728,o),
(759.121,1553.846,c)
);
},
{
closed = 1;
nodes = (
(702.644,1412.293,o),
(696.638,1426.791,o),
(685.948,1437.48,c),
(675.259,1448.17,o),
(660.761,1454.175,o),
(645.644,1454.175,c),
(630.526,1454.175,o),
(616.028,1448.17,o),
(605.339,1437.48,c),
(594.649,1426.791,o),
(588.644,1412.293,o),
(588.644,1397.175,c),
(588.644,1382.058,o),
(594.649,1367.56,o),
(605.339,1356.871,c),
(616.028,1346.181,o),
(630.526,1340.175,o),
(645.644,1340.175,c),
(660.761,1340.175,o),
(675.259,1346.181,o),
(685.948,1356.871,c),
(696.638,1367.56,o),
(702.644,1382.058,o),
(702.644,1397.175,c)
);
},
{
closed = 1;
nodes = (
(646.574,1255.476,o),
(640.569,1269.974,o),
(629.879,1280.663,c),
(619.19,1291.353,o),
(604.692,1297.359,o),
(589.574,1297.359,c),
(574.457,1297.359,o),
(559.959,1291.353,o),
(549.27,1280.663,c),
(538.58,1269.974,o),
(532.574,1255.476,o),
(532.574,1240.359,c),
(532.574,1225.241,o),
(538.58,1210.743,o),
(549.27,1200.054,c),
(559.959,1189.364,o),
(574.457,1183.359,o),
(589.574,1183.359,c),
(604.692,1183.359,o),
(619.19,1189.364,o),
(629.879,1200.054,c),
(640.569,1210.743,o),
(646.574,1225.241,o),
(646.574,1240.359,c)
);
},
{
closed = 1;
nodes = (
(590.718,1098.583,o),
(584.713,1113.081,o),
(574.023,1123.771,c),
(563.334,1134.461,o),
(548.836,1140.466,o),
(533.718,1140.466,c),
(518.601,1140.466,o),
(504.103,1134.461,o),
(493.414,1123.771,c),
(482.724,1113.081,o),
(476.718,1098.583,o),
(476.718,1083.466,c),
(476.718,1068.349,o),
(482.724,1053.85,o),
(493.414,1043.161,c),
(504.103,1032.471,o),
(518.601,1026.466,o),
(533.718,1026.466,c),
(548.836,1026.466,o),
(563.334,1032.471,o),
(574.023,1043.161,c),
(584.713,1053.85,o),
(590.718,1068.349,o),
(590.718,1083.466,c)
);
},
{
closed = 1;
nodes = (
(534.993,941.644,o),
(528.988,956.142,o),
(518.298,966.831,c),
(507.609,977.521,o),
(493.111,983.527,o),
(477.993,983.527,c),
(462.876,983.527,o),
(448.378,977.521,o),
(437.689,966.831,c),
(426.999,956.142,o),
(420.993,941.644,o),
(420.993,926.527,c),
(420.993,911.409,o),
(426.999,896.911,o),
(437.689,886.222,c),
(448.378,875.532,o),
(462.876,869.527,o),
(477.993,869.527,c),
(493.111,869.527,o),
(507.609,875.532,o),
(518.298,886.222,c),
(528.988,896.911,o),
(534.993,911.409,o),
(534.993,926.527,c)
);
},
{
closed = 1;
nodes = (
(479.354,784.674,o),
(473.349,799.172,o),
(462.659,809.862,c),
(451.97,820.551,o),
(437.472,826.557,o),
(422.354,826.557,c),
(407.237,826.557,o),
(392.739,820.551,o),
(382.05,809.862,c),
(371.36,799.172,o),
(365.354,784.674,o),
(365.354,769.557,c),
(365.354,754.44,o),
(371.36,739.941,o),
(382.05,729.252,c),
(392.739,718.562,o),
(407.237,712.557,o),
(422.354,712.557,c),
(437.472,712.557,o),
(451.97,718.562,o),
(462.659,729.252,c),
(473.349,739.941,o),
(479.354,754.44,o),
(479.354,769.557,c)
);
},
{
closed = 1;
nodes = (
(368.405,471.203,o),
(362.4,485.701,o),
(351.71,496.39,c),
(341.02,507.08,o),
(326.522,513.085,o),
(311.405,513.085,c),
(296.288,513.085,o),
(281.789,507.08,o),
(271.1,496.39,c),
(260.41,485.701,o),
(254.405,471.203,o),
(254.405,456.085,c),
(254.405,440.968,o),
(260.41,426.47,o),
(271.1,415.781,c),
(281.789,405.091,o),
(296.288,399.085,o),
(311.405,399.085,c),
(326.522,399.085,o),
(341.02,405.091,o),
(351.71,415.781,c),
(362.4,426.47,o),
(368.405,440.968,o),
(368.405,456.085,c)
);
},
{
closed = 1;
nodes = (
(313.046,314.705,o),
(307.041,329.204,o),
(296.351,339.893,c),
(285.662,350.583,o),
(271.163,356.588,o),
(256.046,356.588,c),
(240.929,356.588,o),
(226.431,350.583,o),
(215.741,339.893,c),
(205.051,329.204,o),
(199.046,314.705,o),
(199.046,299.588,c),
(199.046,284.471,o),
(205.051,269.973,o),
(215.741,259.283,c),
(226.431,248.593,o),
(240.929,242.588,o),
(256.046,242.588,c),
(271.163,242.588,o),
(285.662,248.593,o),
(296.351,259.283,c),
(307.041,269.973,o),
(313.046,284.471,o),
(313.046,299.588,c)
);
},
{
closed = 1;
nodes = (
(257.675,158.213,o),
(251.67,172.711,o),
(240.98,183.4,c),
(230.29,194.09,o),
(215.792,200.095,o),
(200.675,200.095,c),
(185.558,200.095,o),
(171.059,194.09,o),
(160.37,183.4,c),
(149.68,172.711,o),
(143.675,158.213,o),
(143.675,143.095,c),
(143.675,127.978,o),
(149.68,113.48,o),
(160.37,102.791,c),
(171.059,92.101,o),
(185.558,86.095,o),
(200.675,86.095,c),
(215.792,86.095,o),
(230.29,92.101,o),
(240.98,102.791,c),
(251.67,113.48,o),
(257.675,127.978,o),
(257.675,143.095,c)
);
},
{
closed = 1;
nodes = (
(620.101,627.117,o),
(614.096,641.615,o),
(603.406,652.305,c),
(592.717,662.995,o),
(578.219,669,o),
(563.101,669,c),
(547.984,669,o),
(533.486,662.995,o),
(522.797,652.305,c),
(512.107,641.615,o),
(506.101,627.117,o),
(506.101,612,c),
(506.101,596.883,o),
(512.107,582.385,o),
(522.797,571.695,c),
(533.486,561.005,o),
(547.984,555,o),
(563.101,555,c),
(578.219,555,o),
(592.717,561.005,o),
(603.406,571.695,c),
(614.096,582.385,o),
(620.101,596.883,o),
(620.101,612,c)
);
},
{
closed = 1;
nodes = (
(816.677,627.117,o),
(810.672,641.615,o),
(799.982,652.305,c),
(789.292,662.995,o),
(774.794,669,o),
(759.677,669,c),
(744.56,669,o),
(730.061,662.995,o),
(719.372,652.305,c),
(708.682,641.615,o),
(702.677,627.117,o),
(702.677,612,c),
(702.677,596.883,o),
(708.682,582.385,o),
(719.372,571.695,c),
(730.061,561.005,o),
(744.56,555,o),
(759.677,555,c),
(774.794,555,o),
(789.292,561.005,o),
(799.982,571.695,c),
(810.672,582.385,o),
(816.677,596.883,o),
(816.677,612,c)
);
},
{
closed = 1;
nodes = (
(1013.253,627.117,o),
(1007.247,641.615,o),
(996.557,652.305,c),
(985.868,662.995,o),
(971.37,669,o),
(956.253,669,c),
(941.135,669,o),
(926.637,662.995,o),
(915.948,652.305,c),
(905.258,641.615,o),
(899.253,627.117,o),
(899.253,612,c),
(899.253,596.883,o),
(905.258,582.385,o),
(915.948,571.695,c),
(926.637,561.005,o),
(941.135,555,o),
(956.253,555,c),
(971.37,555,o),
(985.868,561.005,o),
(996.557,571.695,c),
(1007.247,582.385,o),
(1013.253,596.883,o),
(1013.253,612,c)
);
}
);
visible = 1;
width = 1520;
},
{
anchors = (
{
name = bottom;
pos = (760,-100);
},
{
name = ogonek;
pos = (1370,-100);
},
{
name = top;
pos = (760,1770);
}
);
layerId = "5BD49938-778C-46FB-8B52-6AA10854A152";
shapes = (
{
closed = 0;
nodes = (
(1370,0,l),
(1167,570,o),
(825,1544,o),
(760,1710,c,{
co.uk.corvelsoftware.Dotter = {
forced = "1";
};
}),
(695,1544,o),
(352,570,o),
(150,0,c)
);
},
{
closed = 0;
nodes = (
(365,612,l),
(465,612,o),
(1055,612,o),
(1155,612,c)
);
}
);
width = 1520;
}
);
unicode = 65;
}
{
glyphname = B;
layers = (
{
anchors = (
{
name = bottom;
pos = (665,-100);
},
{
name = center;
pos = (353,435);
},
{
name = top;
pos = (665,1770);
}
);
layerId = m01;
shapes = (
{
closed = 0;
nodes = (
(250,1700,l),
(350,1700,o),
(539,1700,o),
(639,1700,cs),
(905,1700,o),
(1150,1587,o),
(1150,1307,cs),
(1150,1027,o),
(975,870,o),
(710,870,cs),
(610,870,o),
(350,870,o),
(250,870,c)
);
},
{
closed = 0;
nodes = (
(749,870,l),
(1015,870,o),
(1210,747,o),
(1210,457,cs),
(1210,167,o),
(995,0,o),
(700,0,cs),
(600,0,o),
(350,0,o),
(250,0,c)
);
},
{
ref = _c.stemLA;
}
);
userData = {
"co.uk.corvelsoftware.Dotter.Dot D1 TestA.contourSource" = DotAlt;
};
width = 1410;
},
{
layerId = "FDE4885D-BB7A-448A-91AC-7911E70BCCB6";
shapes = (
{
pos = (250,1700);
ref = _dot;
},
{
pos = (250,870);
ref = _dot;
},
{
pos = (749,870);
ref = _dot;
},
{
pos = (250,0);
ref = _dot;
},
{
pos = (376.562,1700);
ref = _dot;
},
{
pos = (503.125,1700);
ref = _dot;
},
{
pos = (629.687,1700);
ref = _dot;
},
{
pos = (755.904,1692.273);
ref = _dot;
},
{
pos = (879.079,1664.012);
ref = _dot;
},
{
pos = (992.858,1609.415);
ref = _dot;
},
{
pos = (1084.444,1523.039);
ref = _dot;
},
{
pos = (1137.74,1409.107);
ref = _dot;
},
{
pos = (1149.575,1283.553);
ref = _dot;
},
{
pos = (1130.985,1158.662);
ref = _dot;
},
{
pos = (1079.335,1043.687);
ref = _dot;
},
{
pos = (992.562,952.468);
ref = _dot;
},
{
pos = (880.204,895.383);
ref = _dot;
},
{
pos = (629.687,870);
ref = _dot;
},
{
pos = (503.125,870);
ref = _dot;
},
{
pos = (376.562,870);
ref = _dot;
},
{
pos = (999.269,821.806);
ref = _dot;
},
{
pos = (1104.502,749.38);
ref = _dot;
},
{
pos = (1175.586,643.37);
ref = _dot;
},
{
pos = (1206.765,519.282);
ref = _dot;
},
{
pos = (1206.097,391.124);
ref = _dot;
},
{
pos = (1173.547,267.337);
ref = _dot;
},
{
pos = (1105.462,159.098);
ref = _dot;
},
{
pos = (1007.032,77.388);
ref = _dot;
},
{
pos = (889.668,26.106);
ref = _dot;
},
{
pos = (763.623,2.694);
ref = _dot;
},
{
pos = (635.275,0);
ref = _dot;
},
{
pos = (506.85,0);
ref = _dot;
},
{
pos = (378.425,0);
ref = _dot;
},
{
pos = (250,1561.667);
ref = _dot;
},
{
pos = (250,1423.333);
ref = _dot;
},
{
pos = (250,1285);
ref = _dot;
},
{
pos = (250,1146.667);
ref = _dot;
},
{
pos = (250,1008.333);
ref = _dot;
},
{
pos = (250,725);
ref = _dot;
},
{
pos = (250,580);
ref = _dot;
},
{
pos = (250,435);
ref = _dot;
},
{
pos = (250,290);
ref = _dot;
},
{
pos = (250,145);
ref = _dot;
}
);
width = 1410;
},
{
anchors = (
{
name = bottom;
pos = (665,-100);
},
{
name = center;
pos = (353,435);
},
{
name = top;
pos = (665,1770);
}
);
layerId = "88FD4E68-2D1A-46CE-87AD-7FBA89BDFB80";
shapes = (
{
closed = 0;
nodes = (
(250,1700,l),
(350,1700,o),
(539,1700,o),
(639,1700,cs),
(905,1700,o),
(1150,1587,o),
(1150,1307,cs),
(1150,1027,o),
(955,870,o),
(690,870,cs),
(590,870,o),
(350,870,o),
(250,870,c)
);
},
{
closed = 0;
nodes = (
(719,870,l),
(985,870,o),
(1210,747,o),
(1210,457,cs),
(1210,167,o),
(995,0,o),
(700,0,cs),
(600,0,o),
(350,0,o),
(250,0,c)
);
},
{
ref = _c.stemLA;
}
);
width = 1410;
},
{
associatedMasterId = m01;
layerId = "6F490A63-EC82-4CB5-B0C7-46585B518E4E";
name = "Pendot Quick Preview";
shapes = (
{
closed = 1;
nodes = (
(307,1715.117,o),
(300.995,1729.615,o),
(290.305,1740.305,c),
(279.615,1750.995,o),
(265.117,1757,o),
(250,1757,c),
(234.883,1757,o),
(220.385,1750.995,o),
(209.695,1740.305,c),
(199.005,1729.615,o),
(193,1715.117,o),
(193,1700,c),
(193,1684.883,o),
(199.005,1670.385,o),
(209.695,1659.695,c),
(220.385,1649.005,o),
(234.883,1643,o),
(250,1643,c),
(265.117,1643,o),
(279.615,1649.005,o),
(290.305,1659.695,c),
(300.995,1670.385,o),
(307,1684.883,o),
(307,1700,c)
);
},
{
closed = 1;
nodes = (
(307,885.117,o),
(300.995,899.615,o),
(290.305,910.305,c),
(279.615,920.995,o),
(265.117,927,o),
(250,927,c),
(234.883,927,o),
(220.385,920.995,o),
(209.695,910.305,c),
(199.005,899.615,o),
(193,885.117,o),
(193,870,c),
(193,854.883,o),
(199.005,840.385,o),
(209.695,829.695,c),
(220.385,819.005,o),
(234.883,813,o),
(250,813,c),
(265.117,813,o),
(279.615,819.005,o),
(290.305,829.695,c),
(300.995,840.385,o),
(307,854.883,o),
(307,870,c)
);
},
{
closed = 1;
nodes = (
(806,885.117,o),
(799.995,899.615,o),
(789.305,910.305,c),
(778.615,920.995,o),
(764.117,927,o),
(749,927,c),
(733.883,927,o),
(719.385,920.995,o),
(708.695,910.305,c),
(698.005,899.615,o),
(692,885.117,o),
(692,870,c),
(692,854.883,o),
(698.005,840.385,o),
(708.695,829.695,c),
(719.385,819.005,o),
(733.883,813,o),
(749,813,c),
(764.117,813,o),
(778.615,819.005,o),
(789.305,829.695,c),
(799.995,840.385,o),
(806,854.883,o),
(806,870,c)
);
},
{
closed = 1;
nodes = (
(307,15.117,o),
(300.995,29.615,o),
(290.305,40.305,c),
(279.615,50.995,o),
(265.117,57,o),
(250,57,c),
(234.883,57,o),
(220.385,50.995,o),
(209.695,40.305,c),
(199.005,29.615,o),
(193,15.117,o),
(193,0,c),
(193,-15.117,o),
(199.005,-29.615,o),
(209.695,-40.305,c),
(220.385,-50.995,o),
(234.883,-57,o),
(250,-57,c),
(265.117,-57,o),
(279.615,-50.995,o),
(290.305,-40.305,c),
(300.995,-29.615,o),
(307,-15.117,o),
(307,0,c)
);
},
{
closed = 1;
nodes = (
(482.24,1715.117,o),
(476.235,1729.615,o),
(465.545,1740.305,c),
(454.856,1750.995,o),
(440.357,1757,o),
(425.24,1757,c),
(410.123,1757,o),
(395.625,1750.995,o),
(384.935,1740.305,c),
(374.245,1729.615,o),
(368.24,1715.117,o),
(368.24,1700,c),
(368.24,1684.883,o),
(374.245,1670.385,o),
(384.935,1659.695,c),
(395.625,1649.005,o),
(410.123,1643,o),
(425.24,1643,c),
(440.357,1643,o),
(454.856,1649.005,o),
(465.545,1659.695,c),
(476.235,1670.385,o),
(482.24,1684.883,o),
(482.24,1700,c)
);
},
{
closed = 1;
nodes = (
(657.48,1715.117,o),
(651.475,1729.615,o),
(640.785,1740.305,c),
(630.096,1750.995,o),
(615.597,1757,o),
(600.48,1757,c),
(585.363,1757,o),
(570.865,1750.995,o),
(560.175,1740.305,c),
(549.485,1729.615,o),
(543.48,1715.117,o),
(543.48,1700,c),
(543.48,1684.883,o),
(549.485,1670.385,o),
(560.175,1659.695,c),
(570.865,1649.005,o),
(585.363,1643,o),
(600.48,1643,c),
(615.597,1643,o),
(630.096,1649.005,o),
(640.785,1659.695,c),
(651.475,1670.385,o),
(657.48,1684.883,o),
(657.48,1700,c)
);
},
{
closed = 1;
nodes = (
(832.158,1704.495,o),
(826.152,1718.994,o),
(815.462,1729.683,c),
(804.773,1740.373,o),
(790.275,1746.378,o),
(775.158,1746.378,c),
(760.04,1746.378,o),
(745.542,1740.373,o),
(734.853,1729.683,c),
(724.163,1718.994,o),
(718.158,1704.495,o),
(718.158,1689.378,c),
(718.158,1674.261,o),
(724.163,1659.763,o),
(734.853,1649.073,c),
(745.542,1638.383,o),
(760.04,1632.378,o),
(775.158,1632.378,c),
(790.275,1632.378,o),
(804.773,1638.383,o),
(815.462,1649.073,c),
(826.152,1659.763,o),
(832.158,1674.261,o),
(832.158,1689.378,c)
);
},
{
closed = 1;
nodes = (
(999.144,1653.431,o),
(993.139,1667.929,o),
(982.449,1678.619,c),
(971.76,1689.309,o),
(957.262,1695.314,o),
(942.144,1695.314,c),
(927.027,1695.314,o),
(912.529,1689.309,o),
(901.84,1678.619,c),
(891.15,1667.929,o),
(885.144,1653.431,o),
(885.144,1638.314,c),
(885.144,1623.197,o),
(891.15,1608.698,o),
(901.84,1598.009,c),
(912.529,1587.319,o),
(927.027,1581.314,o),
(942.144,1581.314,c),
(957.262,1581.314,o),
(971.76,1587.319,o),
(982.449,1598.009,c),
(993.139,1608.698,o),
(999.144,1623.197,o),
(999.144,1638.314,c)
);
},
{
closed = 1;
nodes = (
(1135.592,1545.936,o),
(1129.587,1560.434,o),
(1118.897,1571.123,c),
(1108.208,1581.813,o),
(1093.71,1587.819,o),
(1078.592,1587.819,c),
(1063.475,1587.819,o),
(1048.977,1581.813,o),
(1038.288,1571.123,c),
(1027.598,1560.434,o),
(1021.592,1545.936,o),
(1021.592,1530.819,c),
(1021.592,1515.701,o),
(1027.598,1501.203,o),
(1038.288,1490.514,c),
(1048.977,1479.824,o),
(1063.475,1473.819,o),
(1078.592,1473.819,c),
(1093.71,1473.819,o),
(1108.208,1479.824,o),
(1118.897,1490.514,c),
(1129.587,1501.203,o),
(1135.592,1515.701,o),
(1135.592,1530.819,c)
);
},
{
closed = 1;
nodes = (
(1202.42,1386.074,o),
(1196.414,1400.572,o),
(1185.724,1411.261,c),
(1175.035,1421.951,o),
(1160.537,1427.956,o),
(1145.42,1427.956,c),
(1130.302,1427.956,o),
(1115.804,1421.951,o),
(1105.115,1411.261,c),
(1094.425,1400.572,o),
(1088.42,1386.074,o),
(1088.42,1370.956,c),
(1088.42,1355.839,o),
(1094.425,1341.341,o),
(1105.115,1330.652,c),
(1115.804,1319.962,o),
(1130.302,1313.956,o),
(1145.42,1313.956,c),
(1160.537,1313.956,o),
(1175.035,1319.962,o),
(1185.724,1330.652,c),
(1196.414,1341.341,o),
(1202.42,1355.839,o),
(1202.42,1370.956,c)
);
},
{
closed = 1;
nodes = (
(1196.909,1211.674,o),
(1190.904,1226.172,o),
(1180.214,1236.861,c),
(1169.525,1247.551,o),
(1155.027,1253.557,o),
(1139.909,1253.557,c),
(1124.792,1253.557,o),
(1110.294,1247.551,o),
(1099.605,1236.861,c),
(1088.915,1226.172,o),
(1082.909,1211.674,o),
(1082.909,1196.557,c),
(1082.909,1181.439,o),
(1088.915,1166.941,o),
(1099.605,1156.252,c),
(1110.294,1145.562,o),
(1124.792,1139.557,o),
(1139.909,1139.557,c),
(1155.027,1139.557,o),
(1169.525,1145.562,o),
(1180.214,1156.252,c),
(1190.904,1166.941,o),
(1196.909,1181.439,o),
(1196.909,1196.557,c)
);
},
{
closed = 1;
nodes = (
(1130.853,1050.76,o),
(1124.847,1065.258,o),
(1114.157,1075.948,c),
(1103.468,1086.638,o),
(1088.97,1092.643,o),
(1073.853,1092.643,c),
(1058.735,1092.643,o),
(1044.237,1086.638,o),
(1033.548,1075.948,c),
(1022.858,1065.258,o),
(1016.853,1050.76,o),
(1016.853,1035.643,c),
(1016.853,1020.526,o),
(1022.858,1006.027,o),
(1033.548,995.338,c),
(1044.237,984.648,o),
(1058.735,978.643,o),
(1073.853,978.643,c),
(1088.97,978.643,o),
(1103.468,984.648,o),
(1114.157,995.338,c),
(1124.847,1006.027,o),
(1130.853,1020.526,o),
(1130.853,1035.643,c)
);
},
{
closed = 1;
nodes = (
(999.992,936.798,o),
(993.987,951.296,o),
(983.297,961.985,c),
(972.608,972.675,o),
(958.11,978.68,o),
(942.992,978.68,c),
(927.875,978.68,o),
(913.377,972.675,o),
(902.688,961.985,c),
(891.998,951.296,o),
(885.992,936.798,o),
(885.992,921.68,c),
(885.992,906.563,o),
(891.998,892.065,o),
(902.688,881.376,c),
(913.377,870.686,o),
(927.875,864.68,o),
(942.992,864.68,c),
(958.11,864.68,o),
(972.608,870.686,o),
(983.297,881.376,c),
(993.987,892.065,o),
(999.992,906.563,o),
(999.992,921.68,c)
);
},
{
closed = 1;
nodes = (
(657.48,885.117,o),
(651.475,899.615,o),
(640.785,910.305,c),
(630.096,920.995,o),
(615.597,927,o),
(600.48,927,c),
(585.363,927,o),
(570.865,920.995,o),
(560.175,910.305,c),
(549.485,899.615,o),
(543.48,885.117,o),
(543.48,870,c),
(543.48,854.883,o),
(549.485,840.385,o),
(560.175,829.695,c),
(570.865,819.005,o),
(585.363,813,o),
(600.48,813,c),
(615.597,813,o),
(630.096,819.005,o),
(640.785,829.695,c),
(651.475,840.385,o),
(657.48,854.883,o),
(657.48,870,c)
);
},
{
closed = 1;
nodes = (
(482.24,885.117,o),
(476.235,899.615,o),
(465.545,910.305,c),
(454.856,920.995,o),
(440.357,927,o),
(425.24,927,c),
(410.123,927,o),
(395.625,920.995,o),
(384.935,910.305,c),
(374.245,899.615,o),
(368.24,885.117,o),
(368.24,870,c),
(368.24,854.883,o),
(374.245,840.385,o),
(384.935,829.695,c),
(395.625,819.005,o),
(410.123,813,o),
(425.24,813,c),
(440.357,813,o),
(454.856,819.005,o),
(465.545,829.695,c),
(476.235,840.385,o),
(482.24,854.883,o),
(482.24,870,c)
);
},
{
closed = 1;
nodes = (
(1135.516,787.956,o),
(1129.511,802.454,o),
(1118.821,813.143,c),
(1108.132,823.833,o),
(1093.633,829.838,o),
(1078.516,829.838,c),
(1063.399,829.838,o),
(1048.901,823.833,o),
(1038.211,813.143,c),
(1027.522,802.454,o),
(1021.516,787.956,o),
(1021.516,772.838,c),
(1021.516,757.721,o),
(1027.522,743.223,o),
(1038.211,732.534,c),
(1048.901,721.844,o),
(1063.399,715.838,o),
(1078.516,715.838,c),
(1093.633,715.838,o),
(1108.132,721.844,o),
(1118.821,732.534,c),
(1129.511,743.223,o),
(1135.516,757.721,o),
(1135.516,772.838,c)
);
},
{
closed = 1;
nodes = (
(1236.996,647.679,o),
(1230.99,662.177,o),
(1220.3,672.866,c),
(1209.611,683.556,o),
(1195.113,689.562,o),
(1179.996,689.562,c),
(1164.878,689.562,o),
(1150.38,683.556,o),
(1139.691,672.866,c),
(1129.001,662.177,o),
(1122.996,647.679,o),
(1122.996,632.562,c),
(1122.996,617.444,o),
(1129.001,602.946,o),
(1139.691,592.257,c),
(1150.38,581.567,o),
(1164.878,575.562,o),
(1179.996,575.562,c),
(1195.113,575.562,o),
(1209.611,581.567,o),
(1220.3,592.257,c),
(1230.99,602.946,o),
(1236.996,617.444,o),
(1236.996,632.562,c)
);
},
{
closed = 1;
nodes = (
(1266.94,476.134,o),
(1260.935,490.633,o),
(1250.245,501.322,c),
(1239.556,512.012,o),
(1225.057,518.017,o),
(1209.94,518.017,c),
(1194.823,518.017,o),
(1180.325,512.012,o),
(1169.635,501.322,c),
(1158.945,490.633,o),
(1152.94,476.134,o),
(1152.94,461.017,c),
(1152.94,445.9,o),
(1158.945,431.402,o),
(1169.635,420.712,c),
(1180.325,410.022,o),
(1194.823,404.017,o),
(1209.94,404.017,c),
(1225.057,404.017,o),
(1239.556,410.022,o),
(1250.245,420.712,c),
(1260.935,431.402,o),
(1266.94,445.9,o),
(1266.94,461.017,c)
);
},
{
closed = 1;
nodes = (
(1239.101,304.176,o),
(1233.096,318.675,o),
(1222.406,329.364,c),
(1211.717,340.054,o),
(1197.218,346.059,o),
(1182.101,346.059,c),
(1166.984,346.059,o),
(1152.486,340.054,o),
(1141.796,329.364,c),
(1131.106,318.675,o),
(1125.101,304.176,o),
(1125.101,289.059,c),
(1125.101,273.942,o),
(1131.106,259.444,o),
(1141.796,248.754,c),
(1152.486,238.064,o),
(1166.984,232.059,o),
(1182.101,232.059,c),
(1197.218,232.059,o),
(1211.717,238.064,o),
(1222.406,248.754,c),
(1233.096,259.444,o),
(1239.101,273.942,o),
(1239.101,289.059,c)
);
},
{
closed = 1;
nodes = (
(1146.518,157.162,o),
(1140.513,171.66,o),
(1129.823,182.349,c),
(1119.133,193.039,o),
(1104.635,199.044,o),
(1089.518,199.044,c),
(1074.401,199.044,o),
(1059.903,193.039,o),
(1049.213,182.349,c),
(1038.523,171.66,o),
(1032.518,157.162,o),
(1032.518,142.044,c),
(1032.518,126.927,o),
(1038.523,112.429,o),
(1049.213,101.74,c),
(1059.903,91.05,o),
(1074.401,85.044,o),
(1089.518,85.044,c),
(1104.635,85.044,o),
(1119.133,91.05,o),
(1129.823,101.74,c),
(1140.513,112.429,o),
(1146.518,126.927,o),
(1146.518,142.044,c)
);
},
{
closed = 1;
nodes = (
(1001.616,60.844,o),
(995.61,75.342,o),
(984.92,86.032,c),
(974.231,96.722,o),
(959.733,102.727,o),
(944.616,102.727,c),
(929.498,102.727,o),
(915,96.722,o),
(904.311,86.032,c),
(893.621,75.342,o),
(887.616,60.844,o),
(887.616,45.727,c),
(887.616,30.61,o),
(893.621,16.111,o),
(904.311,5.422,c),
(915,-5.268,o),
(929.498,-11.273,o),
(944.616,-11.273,c),
(959.733,-11.273,o),
(974.231,-5.268,o),
(984.92,5.422,c),
(995.61,16.111,o),
(1001.616,30.61,o),
(1001.616,45.727,c)
);
},
{
closed = 1;
nodes = (
(832.246,18.907,o),
(826.24,33.405,o),
(815.55,44.094,c),
(804.861,54.784,o),
(790.363,60.79,o),
(775.246,60.79,c),
(760.128,60.79,o),
(745.63,54.784,o),
(734.941,44.094,c),
(724.251,33.405,o),
(718.246,18.907,o),
(718.246,3.79,c),
(718.246,-11.328,o),
(724.251,-25.826,o),
(734.941,-36.515,c),
(745.63,-47.205,o),
(760.128,-53.21,o),
(775.246,-53.21,c),
(790.363,-53.21,o),
(804.861,-47.205,o),
(815.55,-36.515,c),
(826.24,-25.826,o),
(832.246,-11.328,o),
(832.246,3.79,c)
);
},
{
closed = 1;
nodes = (
(657.25,15.117,o),
(651.244,29.615,o),
(640.554,40.305,c),
(629.865,50.995,o),
(615.367,57,o),
(600.25,57,c),
(585.132,57,o),
(570.634,50.995,o),
(559.945,40.305,c),
(549.255,29.615,o),
(543.25,15.117,o),
(543.25,0,c),
(543.25,-15.117,o),
(549.255,-29.615,o),
(559.945,-40.305,c),
(570.634,-50.995,o),
(585.132,-57,o),
(600.25,-57,c),
(615.367,-57,o),
(629.865,-50.995,o),
(640.554,-40.305,c),
(651.244,-29.615,o),
(657.25,-15.117,o),
(657.25,0,c)
);
},
{
closed = 1;
nodes = (
(482.125,15.117,o),
(476.119,29.615,o),
(465.43,40.305,c),
(454.74,50.995,o),
(440.242,57,o),
(425.125,57,c),
(410.008,57,o),
(395.509,50.995,o),
(384.82,40.305,c),
(374.13,29.615,o),
(368.125,15.117,o),
(368.125,0,c),
(368.125,-15.117,o),
(374.13,-29.615,o),
(384.82,-40.305,c),
(395.509,-50.995,o),
(410.008,-57,o),
(425.125,-57,c),
(440.242,-57,o),
(454.74,-50.995,o),
(465.43,-40.305,c),
(476.119,-29.615,o),
(482.125,-15.117,o),
(482.125,0,c)
);
},
{
closed = 1;
nodes = (
(307,1549.117,o),
(300.995,1563.615,o),
(290.305,1574.305,c),
(279.615,1584.995,o),
(265.117,1591,o),
(250,1591,c),
(234.883,1591,o),
(220.385,1584.995,o),
(209.695,1574.305,c),
(199.005,1563.615,o),
(193,1549.117,o),
(193,1534,c),
(193,1518.883,o),
(199.005,1504.385,o),
(209.695,1493.695,c),
(220.385,1483.005,o),
(234.883,1477,o),
(250,1477,c),
(265.117,1477,o),
(279.615,1483.005,o),
(290.305,1493.695,c),
(300.995,1504.385,o),
(307,1518.883,o),
(307,1534,c)
);
},
{
closed = 1;
nodes = (
(307,1383.117,o),
(300.995,1397.615,o),
(290.305,1408.305,c),
(279.615,1418.995,o),
(265.117,1425,o),
(250,1425,c),
(234.883,1425,o),
(220.385,1418.995,o),
(209.695,1408.305,c),
(199.005,1397.615,o),
(193,1383.117,o),
(193,1368,c),
(193,1352.883,o),
(199.005,1338.385,o),
(209.695,1327.695,c),
(220.385,1317.005,o),
(234.883,1311,o),
(250,1311,c),
(265.117,1311,o),
(279.615,1317.005,o),
(290.305,1327.695,c),
(300.995,1338.385,o),
(307,1352.883,o),
(307,1368,c)
);
},
{
closed = 1;
nodes = (
(307,1217.117,o),
(300.995,1231.615,o),
(290.305,1242.305,c),
(279.615,1252.995,o),
(265.117,1259,o),
(250,1259,c),
(234.883,1259,o),
(220.385,1252.995,o),
(209.695,1242.305,c),
(199.005,1231.615,o),
(193,1217.117,o),
(193,1202,c),
(193,1186.883,o),
(199.005,1172.385,o),
(209.695,1161.695,c),
(220.385,1151.005,o),
(234.883,1145,o),
(250,1145,c),
(265.117,1145,o),
(279.615,1151.005,o),
(290.305,1161.695,c),
(300.995,1172.385,o),
(307,1186.883,o),
(307,1202,c)
);
},
{
closed = 1;
nodes = (
(307,1051.117,o),
(300.995,1065.615,o),
(290.305,1076.305,c),
(279.615,1086.995,o),
(265.117,1093,o),
(250,1093,c),
(234.883,1093,o),
(220.385,1086.995,o),
(209.695,1076.305,c),
(199.005,1065.615,o),
(193,1051.117,o),
(193,1036,c),
(193,1020.883,o),
(199.005,1006.385,o),
(209.695,995.695,c),
(220.385,985.005,o),
(234.883,979,o),
(250,979,c),
(265.117,979,o),
(279.615,985.005,o),
(290.305,995.695,c),
(300.995,1006.385,o),
(307,1020.883,o),
(307,1036,c)
);
},
{
closed = 1;
nodes = (
(307,711.117,o),
(300.995,725.615,o),
(290.305,736.305,c),
(279.615,746.995,o),
(265.117,753,o),
(250,753,c),
(234.883,753,o),
(220.385,746.995,o),
(209.695,736.305,c),
(199.005,725.615,o),
(193,711.117,o),
(193,696,c),
(193,680.883,o),
(199.005,666.385,o),
(209.695,655.695,c),
(220.385,645.005,o),
(234.883,639,o),
(250,639,c),
(265.117,639,o),
(279.615,645.005,o),
(290.305,655.695,c),
(300.995,666.385,o),
(307,680.883,o),
(307,696,c)
);
},
{
closed = 1;
nodes = (
(307,537.117,o),
(300.995,551.615,o),
(290.305,562.305,c),
(279.615,572.995,o),
(265.117,579,o),
(250,579,c),
(234.883,579,o),
(220.385,572.995,o),
(209.695,562.305,c),
(199.005,551.615,o),
(193,537.117,o),
(193,522,c),
(193,506.883,o),
(199.005,492.385,o),
(209.695,481.695,c),
(220.385,471.005,o),
(234.883,465,o),
(250,465,c),
(265.117,465,o),
(279.615,471.005,o),
(290.305,481.695,c),
(300.995,492.385,o),
(307,506.883,o),
(307,522,c)
);
},
{
closed = 1;
nodes = (
(307,363.117,o),
(300.995,377.615,o),
(290.305,388.305,c),
(279.615,398.995,o),
(265.117,405,o),
(250,405,c),
(234.883,405,o),
(220.385,398.995,o),
(209.695,388.305,c),
(199.005,377.615,o),
(193,363.117,o),
(193,348,c),
(193,332.883,o),
(199.005,318.385,o),
(209.695,307.695,c),
(220.385,297.005,o),
(234.883,291,o),
(250,291,c),
(265.117,291,o),
(279.615,297.005,o),
(290.305,307.695,c),
(300.995,318.385,o),
(307,332.883,o),
(307,348,c)
);
},
{
closed = 1;
nodes = (
(307,189.117,o),
(300.995,203.615,o),
(290.305,214.305,c),
(279.615,224.995,o),
(265.117,231,o),
(250,231,c),
(234.883,231,o),
(220.385,224.995,o),
(209.695,214.305,c),
(199.005,203.615,o),
(193,189.117,o),
(193,174,c),
(193,158.883,o),
(199.005,144.385,o),
(209.695,133.695,c),
(220.385,123.005,o),
(234.883,117,o),
(250,117,c),
(265.117,117,o),
(279.615,123.005,o),
(290.305,133.695,c),
(300.995,144.385,o),
(307,158.883,o),
(307,174,c)
);
}
);
visible = 1;
width = 1410;
},
{
layerId = "5BD49938-778C-46FB-8B52-6AA10854A152";
width = 600;
}
);
unicode = 66;
}
{
glyphname = D;
layers = (
{
anchors = (
{
name = bottom;
pos = (730,-100);
},
{
name = center;
pos = (375,870);
},
{
name = top;
pos = (730,1770);
}
);
background = {
shapes = (
{
closed = 0;
nodes = (
(750,0,l),
(1065,0,o),
(1320,267,o),
(1320,817,cs),
(1320,1367,o),
(1065,1600,o),
(749,1600,cs)
);
},
{
closed = 0;
nodes = (
(250,1600,l),
(250,1500,o),
(250,100,o),
(250,0,c)
);
}
);
};
layerId = m01;
shapes = (
{
closed = 0;
nodes = (
(250,1700,l),
(350,1700,o),
(460,1700,o),
(560,1700,cs),
(1025,1700,o),
(1320,1420,o),
(1320,870,cs),
(1320,320,o),
(1025,0,o),
(560,0,cs),
(460,0,o),
(350,0,o),
(250,0,c)
);
},
{
ref = _c.stemLA;
}
);
width = 1500;
},
{
layerId = "FDE4885D-BB7A-448A-91AC-7911E70BCCB6";
shapes = (
{
pos = (250,1700);
ref = _dot;
},
{
pos = (250,0);
ref = _dot;
},
{
pos = (250,870);
ref = _dot;
},
{
pos = (378.285,1700);
ref = _dot;
},
{
pos = (506.57,1700);
ref = _dot;
},
{
pos = (634.797,1697.464);
ref = _dot;
},
{
pos = (761.808,1680.192);
ref = _dot;
},
{
pos = (884.696,1643.903);
ref = _dot;
},
{
pos = (999.009,1586.131);
ref = _dot;
},
{
pos = (1099.313,1506.535);
ref = _dot;
},
{
pos = (1180.998,1407.911);
ref = _dot;
},
{
pos = (1242.18,1295.359);
ref = _dot;
},
{
pos = (1283.849,1174.16);
ref = _dot;
},
{
pos = (1308.553,1048.352);
ref = _dot;
},
{
pos = (1319.138,920.545);
ref = _dot;
},
{
pos = (1317.957,792.335);
ref = _dot;
},
{
pos = (1304.906,664.771);
ref = _dot;
},
{
pos = (1277.947,539.431);
ref = _dot;
},
{
pos = (1234.838,418.724);
ref = _dot;
},
{
pos = (1173.644,306.148);
ref = _dot;
},
{
pos = (1093.452,206.264);
ref = _dot;
},
{
pos = (995.484,123.779);
ref = _dot;
},
{
pos = (883.223,62.122);
ref = _dot;
},
{
pos = (761.463,22.271);
ref = _dot;
},
{
pos = (634.776,2.883);
ref = _dot;
},
{
pos = (506.57,0);
ref = _dot;
},
{
pos = (378.285,0);
ref = _dot;
},
{
pos = (250,1561.667);
ref = _dot;
},
{
pos = (250,1423.333);
ref = _dot;
},
{
pos = (250,1285);
ref = _dot;
},
{
pos = (250,1146.667);
ref = _dot;
},
{
pos = (250,1008.333);
ref = _dot;
},
{
pos = (250,725);
ref = _dot;
},
{
pos = (250,580);
ref = _dot;
},
{
pos = (250,435);
ref = _dot;
},
{
pos = (250,290);
ref = _dot;
},
{
pos = (250,145);
ref = _dot;
}
);
width = 1500;
},
{
anchors = (
{
name = bottom;
pos = (730,-100);
},
{
name = center;
pos = (375,870);
},
{
name = top;
pos = (730,1770);
}
);
layerId = "88FD4E68-2D1A-46CE-87AD-7FBA89BDFB80";
shapes = (
{
closed = 0;
nodes = (
(250,1700,l),
(350,1700,o),
(460,1700,o),
(560,1700,cs),
(1025,1700,o),
(1320,1420,o),
(1320,870,cs),
(1320,320,o),
(1025,0,o),
(560,0,cs),
(460,0,o),
(350,0,o),
(250,0,c)
);
},
{
ref = _c.stemLA;
}
);
width = 1500;
},
{
associatedMasterId = m01;
layerId = "8AF77976-E24C-4472-8FF8-450D9B8E822A";
name = "Pendot Quick Preview";
shapes = (
{
closed = 1;
nodes = (
(310,1715.913,o),
(303.679,1731.174,o),
(292.426,1742.426,c),
(281.174,1753.679,o),
(265.913,1760,o),
(250,1760,c),
(234.087,1760,o),
(218.826,1753.679,o),
(207.574,1742.426,c),
(196.321,1731.174,o),
(190,1715.913,o),
(190,1700,c),
(190,1684.087,o),
(196.321,1668.826,o),
(207.574,1657.574,c),
(218.826,1646.321,o),
(234.087,1640,o),
(250,1640,c),
(265.913,1640,o),
(281.174,1646.321,o),
(292.426,1657.574,c),
(303.679,1668.826,o),
(310,1684.087,o),
(310,1700,c)
);
},
{
closed = 1;
nodes = (
(310,15.913,o),
(303.679,31.174,o),
(292.426,42.426,c),
(281.174,53.679,o),
(265.913,60,o),
(250,60,c),
(234.087,60,o),
(218.826,53.679,o),
(207.574,42.426,c),
(196.321,31.174,o),
(190,15.913,o),
(190,0,c),
(190,-15.913,o),
(196.321,-31.174,o),
(207.574,-42.426,c),
(218.826,-53.679,o),
(234.087,-60,o),
(250,-60,c),
(265.913,-60,o),
(281.174,-53.679,o),
(292.426,-42.426,c),
(303.679,-31.174,o),
(310,-15.913,o),
(310,0,c)
);
},
{
closed = 1;
nodes = (
(310,885.913,o),
(303.679,901.174,o),
(292.426,912.426,c),
(281.174,923.679,o),
(265.913,930,o),
(250,930,c),
(234.087,930,o),
(218.826,923.679,o),
(207.574,912.426,c),
(196.321,901.174,o),
(190,885.913,o),
(190,870,c),
(190,854.087,o),
(196.321,838.826,o),
(207.574,827.574,c),
(218.826,816.321,o),
(234.087,810,o),
(250,810,c),
(265.913,810,o),
(281.174,816.321,o),
(292.426,827.574,c),
(303.679,838.826,o),
(310,854.087,o),
(310,870,c)
);
},
{
closed = 1;
nodes = (
(498.654,1715.913,o),
(492.333,1731.174,o),
(481.08,1742.426,c),
(469.829,1753.679,o),
(454.567,1760,o),
(438.654,1760,c),
(422.741,1760,o),
(407.48,1753.679,o),
(396.228,1742.426,c),
(384.976,1731.174,o),
(378.654,1715.913,o),
(378.654,1700,c),
(378.654,1684.087,o),
(384.976,1668.826,o),
(396.228,1657.574,c),
(407.48,1646.321,o),
(422.741,1640,o),
(438.654,1640,c),
(454.567,1640,o),
(469.829,1646.321,o),
(481.08,1657.574,c),
(492.333,1668.826,o),
(498.654,1684.087,o),
(498.654,1700,c)
);
},
{
closed = 1;
nodes = (
(687.267,1713.881,o),
(680.946,1729.142,o),
(669.693,1740.394,c),
(658.442,1751.647,o),
(643.18,1757.968,o),
(627.267,1757.968,c),
(611.355,1757.968,o),
(596.093,1751.647,o),
(584.841,1740.394,c),
(573.589,1729.142,o),
(567.267,1713.881,o),
(567.267,1697.968,c),
(567.267,1682.055,o),
(573.589,1666.794,o),
(584.841,1655.542,c),
(596.093,1644.289,o),
(611.355,1637.968,o),
(627.267,1637.968,c),
(643.18,1637.968,o),
(658.442,1644.289,o),
(669.693,1655.542,c),
(680.946,1666.794,o),
(687.267,1682.055,o),
(687.267,1697.968,c)
);
},
{
closed = 1;
nodes = (
(873.126,1683.629,o),
(866.805,1698.89,o),
(855.552,1710.142,c),
(844.3,1721.394,o),
(829.039,1727.716,o),
(813.126,1727.716,c),
(797.213,1727.716,o),
(781.952,1721.394,o),
(770.7,1710.142,c),
(759.447,1698.89,o),
(753.126,1683.629,o),
(753.126,1667.716,c),
(753.126,1651.803,o),
(759.447,1636.542,o),
(770.7,1625.29,c),
(781.952,1614.037,o),
(797.213,1607.716,o),
(813.126,1607.716,c),
(829.039,1607.716,o),
(844.3,1614.037,o),
(855.552,1625.29,c),
(866.805,1636.542,o),
(873.126,1651.803,o),
(873.126,1667.716,c)
);
},
{
closed = 1;
nodes = (
(1046.173,1609.98,o),
(1039.851,1625.242,o),
(1028.599,1636.493,c),
(1017.347,1647.746,o),
(1002.086,1654.067,o),
(986.173,1654.067,c),
(970.26,1654.067,o),
(954.998,1647.746,o),
(943.747,1636.493,c),
(932.494,1625.242,o),
(926.173,1609.98,o),
(926.173,1594.067,c),
(926.173,1578.154,o),
(932.494,1562.893,o),
(943.747,1551.641,c),
(954.998,1540.389,o),
(970.26,1534.067,o),
(986.173,1534.067,c),
(1002.086,1534.067,o),
(1017.347,1540.389,o),
(1028.599,1551.641,c),
(1039.851,1562.893,o),
(1046.173,1578.154,o),
(1046.173,1594.067,c)
);
},
{
closed = 1;
nodes = (
(1190.44,1489.582,o),
(1184.118,1504.844,o),
(1172.866,1516.095,c),
(1161.614,1527.348,o),
(1146.353,1533.669,o),
(1130.44,1533.669,c),
(1114.527,1533.669,o),
(1099.266,1527.348,o),
(1088.014,1516.095,c),
(1076.761,1504.844,o),
(1070.44,1489.582,o),
(1070.44,1473.669,c),
(1070.44,1457.756,o),
(1076.761,1442.495,o),
(1088.014,1431.243,c),
(1099.266,1419.991,o),
(1114.527,1413.669,o),
(1130.44,1413.669,c),
(1146.353,1413.669,o),
(1161.614,1419.991,o),
(1172.866,1431.243,c),
(1184.118,1442.495,o),
(1190.44,1457.756,o),
(1190.44,1473.669,c)
);
},
{
closed = 1;
nodes = (
(1292.868,1331.906,o),
(1286.546,1347.167,o),
(1275.294,1358.419,c),
(1264.042,1369.671,o),
(1248.78,1375.993,o),
(1232.868,1375.993,c),
(1216.955,1375.993,o),
(1201.693,1369.671,o),
(1190.442,1358.419,c),
(1179.189,1347.167,o),
(1172.868,1331.906,o),
(1172.868,1315.993,c),
(1172.868,1300.08,o),
(1179.189,1284.818,o),
(1190.442,1273.567,c),
(1201.693,1262.314,o),
(1216.955,1255.993,o),
(1232.868,1255.993,c),
(1248.78,1255.993,o),
(1264.042,1262.314,o),
(1275.294,1273.567,c),
(1286.546,1284.818,o),
(1292.868,1300.08,o),
(1292.868,1315.993,c)
);
},
{
closed = 1;
nodes = (
(1352.754,1153.409,o),
(1346.433,1168.671,o),
(1335.18,1179.923,c),
(1323.928,1191.175,o),
(1308.667,1197.497,o),
(1292.754,1197.497,c),
(1276.841,1197.497,o),
(1261.58,1191.175,o),
(1250.328,1179.923,c),
(1239.076,1168.671,o),
(1232.754,1153.409,o),
(1232.754,1137.497,c),
(1232.754,1121.584,o),
(1239.076,1106.322,o),
(1250.328,1095.071,c),
(1261.58,1083.818,o),
(1276.841,1077.497,o),
(1292.754,1077.497,c),
(1308.667,1077.497,o),
(1323.928,1083.818,o),
(1335.18,1095.071,c),
(1346.433,1106.322,o),
(1352.754,1121.584,o),
(1352.754,1137.497,c)
);
},
{
closed = 1;
nodes = (
(1377.789,966.615,o),
(1371.468,981.877,o),
(1360.215,993.128,c),
(1348.963,1004.381,o),
(1333.702,1010.702,o),
(1317.789,1010.702,c),
(1301.876,1010.702,o),
(1286.615,1004.381,o),
(1275.363,993.128,c),
(1264.11,981.877,o),
(1257.789,966.615,o),
(1257.789,950.702,c),
(1257.789,934.79,o),
(1264.11,919.528,o),
(1275.363,908.276,c),
(1286.615,897.024,o),
(1301.876,890.702,o),
(1317.789,890.702,c),
(1333.702,890.702,o),
(1348.963,897.024,o),
(1360.215,908.276,c),
(1371.468,919.528,o),
(1377.789,934.79,o),
(1377.789,950.702,c)
);
},
{
closed = 1;
nodes = (
(1376.019,778.126,o),
(1369.698,793.387,o),
(1358.445,804.639,c),
(1347.194,815.892,o),
(1331.932,822.213,o),
(1316.019,822.213,c),
(1300.106,822.213,o),
(1284.845,815.892,o),
(1273.593,804.639,c),
(1262.341,793.387,o),
(1256.019,778.126,o),
(1256.019,762.213,c),
(1256.019,746.3,o),
(1262.341,731.039,o),
(1273.593,719.787,c),
(1284.845,708.535,o),
(1300.106,702.213,o),
(1316.019,702.213,c),
(1331.932,702.213,o),
(1347.194,708.535,o),
(1358.445,719.787,c),
(1369.698,731.039,o),
(1376.019,746.3,o),
(1376.019,762.213,c)
);
},
{
closed = 1;
nodes = (
(1347.441,591.858,o),
(1341.119,607.119,o),
(1329.867,618.371,c),
(1318.615,629.623,o),
(1303.354,635.945,o),
(1287.441,635.945,c),
(1271.528,635.945,o),
(1256.267,629.623,o),
(1245.015,618.371,c),
(1233.762,607.119,o),
(1227.441,591.858,o),
(1227.441,575.945,c),
(1227.441,560.032,o),
(1233.762,544.771,o),
(1245.015,533.519,c),
(1256.267,522.266,o),
(1271.528,515.945,o),
(1287.441,515.945,c),
(1303.354,515.945,o),
(1318.615,522.266,o),
(1329.867,533.519,c),
(1341.119,544.771,o),
(1347.441,560.032,o),
(1347.441,575.945,c)
);
},
{
closed = 1;
nodes = (
(1285.392,414.065,o),
(1279.07,429.326,o),
(1267.818,440.578,c),
(1256.566,451.831,o),
(1241.305,458.152,o),
(1225.392,458.152,c),
(1209.479,458.152,o),
(1194.217,451.831,o),
(1182.966,440.578,c),
(1171.713,429.326,o),
(1165.392,414.065,o),
(1165.392,398.152,c),
(1165.392,382.239,o),
(1171.713,366.978,o),
(1182.966,355.726,c),
(1194.217,344.473,o),
(1209.479,338.152,o),
(1225.392,338.152,c),
(1241.305,338.152,o),
(1256.566,344.473,o),
(1267.818,355.726,c),
(1279.07,366.978,o),
(1285.392,382.239,o),
(1285.392,398.152,c)
);
},
{
closed = 1;
nodes = (
(1183.899,255.673,o),
(1177.578,270.934,o),
(1166.325,282.186,c),
(1155.074,293.439,o),
(1139.812,299.76,o),
(1123.899,299.76,c),
(1107.987,299.76,o),
(1092.725,293.439,o),
(1081.473,282.186,c),
(1070.221,270.934,o),
(1063.899,255.673,o),
(1063.899,239.76,c),
(1063.899,223.847,o),
(1070.221,208.586,o),
(1081.473,197.334,c),
(1092.725,186.082,o),
(1107.987,179.76,o),
(1123.899,179.76,c),
(1139.812,179.76,o),
(1155.074,186.082,o),
(1166.325,197.334,c),
(1177.578,208.586,o),
(1183.899,223.847,o),
(1183.899,239.76,c)
);
},
{
closed = 1;
nodes = (
(1042.935,131.309,o),
(1036.613,146.571,o),
(1025.361,157.822,c),
(1014.109,169.075,o),
(998.848,175.396,o),
(982.935,175.396,c),
(967.022,175.396,o),
(951.761,169.075,o),
(940.509,157.822,c),
(929.256,146.571,o),
(922.935,131.309,o),
(922.935,115.396,c),
(922.935,99.483,o),
(929.256,84.222,o),
(940.509,72.97,c),
(951.761,61.718,o),
(967.022,55.396,o),
(982.935,55.396,c),
(998.848,55.396,o),
(1014.109,61.718,o),
(1025.361,72.97,c),
(1036.613,84.222,o),
(1042.935,99.483,o),
(1042.935,115.396,c)
);
},
{
closed = 1;
nodes = (
(872.435,52.002,o),
(866.114,67.263,o),
(854.861,78.515,c),
(843.609,89.767,o),
(828.348,96.089,o),
(812.435,96.089,c),
(796.522,96.089,o),
(781.261,89.767,o),
(770.009,78.515,c),
(758.756,67.263,o),
(752.435,52.002,o),
(752.435,36.089,c),
(752.435,20.176,o),
(758.756,4.914,o),
(770.009,-6.337,c),
(781.261,-17.59,o),
(796.522,-23.911,o),
(812.435,-23.911,c),
(828.348,-23.911,o),
(843.609,-17.59,o),
(854.861,-6.337,c),
(866.114,4.914,o),
(872.435,20.176,o),
(872.435,36.089,c)
);
},
{
closed = 1;
nodes = (
(687.251,18.225,o),
(680.929,33.486,o),
(669.677,44.738,c),
(658.425,55.99,o),
(643.164,62.312,o),
(627.251,62.312,c),
(611.338,62.312,o),
(596.076,55.99,o),
(584.825,44.738,c),
(573.572,33.486,o),
(567.251,18.225,o),
(567.251,2.312,c),
(567.251,-13.601,o),
(573.572,-28.862,o),
(584.825,-40.114,c),
(596.076,-51.367,o),
(611.338,-57.688,o),
(627.251,-57.688,c),
(643.164,-57.688,o),
(658.425,-51.367,o),
(669.677,-40.114,c),
(680.929,-28.862,o),
(687.251,-13.601,o),
(687.251,2.312,c)
);
},
{
closed = 1;
nodes = (
(498.654,15.913,o),
(492.333,31.174,o),
(481.08,42.426,c),
(469.829,53.679,o),
(454.567,60,o),
(438.654,60,c),
(422.741,60,o),
(407.48,53.679,o),
(396.228,42.426,c),
(384.976,31.174,o),
(378.654,15.913,o),
(378.654,0,c),
(378.654,-15.913,o),
(384.976,-31.174,o),
(396.228,-42.426,c),
(407.48,-53.679,o),
(422.741,-60,o),
(438.654,-60,c),
(454.567,-60,o),
(469.829,-53.679,o),
(481.08,-42.426,c),
(492.333,-31.174,o),
(498.654,-15.913,o),
(498.654,0,c)
);
},
{
closed = 1;
nodes = (
(310,1535.913,o),
(303.679,1551.174,o),
(292.426,1562.426,c),
(281.174,1573.679,o),
(265.913,1580,o),
(250,1580,c),
(234.087,1580,o),
(218.826,1573.679,o),
(207.574,1562.426,c),
(196.321,1551.174,o),
(190,1535.913,o),
(190,1520,c),
(190,1504.087,o),
(196.321,1488.826,o),
(207.574,1477.574,c),
(218.826,1466.321,o),
(234.087,1460,o),
(250,1460,c),
(265.913,1460,o),
(281.174,1466.321,o),
(292.426,1477.574,c),
(303.679,1488.826,o),
(310,1504.087,o),
(310,1520,c)
);
},
{
closed = 1;
nodes = (
(310,1355.913,o),
(303.679,1371.174,o),
(292.426,1382.426,c),
(281.174,1393.679,o),
(265.913,1400,o),
(250,1400,c),
(234.087,1400,o),
(218.826,1393.679,o),
(207.574,1382.426,c),
(196.321,1371.174,o),
(190,1355.913,o),
(190,1340,c),
(190,1324.087,o),
(196.321,1308.826,o),
(207.574,1297.574,c),
(218.826,1286.321,o),
(234.087,1280,o),
(250,1280,c),
(265.913,1280,o),
(281.174,1286.321,o),
(292.426,1297.574,c),
(303.679,1308.826,o),
(310,1324.087,o),
(310,1340,c)
);
},
{
closed = 1;
nodes = (
(310,1175.913,o),
(303.679,1191.174,o),
(292.426,1202.426,c),
(281.174,1213.679,o),
(265.913,1220,o),
(250,1220,c),
(234.087,1220,o),
(218.826,1213.679,o),
(207.574,1202.426,c),
(196.321,1191.174,o),
(190,1175.913,o),
(190,1160,c),
(190,1144.087,o),
(196.321,1128.826,o),
(207.574,1117.574,c),
(218.826,1106.321,o),
(234.087,1100,o),
(250,1100,c),
(265.913,1100,o),
(281.174,1106.321,o),
(292.426,1117.574,c),
(303.679,1128.826,o),
(310,1144.087,o),
(310,1160,c)
);
},
{
closed = 1;
nodes = (
(310,705.913,o),
(303.679,721.174,o),
(292.426,732.426,c),
(281.174,743.679,o),
(265.913,750,o),
(250,750,c),
(234.087,750,o),
(218.826,743.679,o),
(207.574,732.426,c),
(196.321,721.174,o),
(190,705.913,o),
(190,690,c),
(190,674.087,o),
(196.321,658.826,o),
(207.574,647.574,c),
(218.826,636.321,o),
(234.087,630,o),
(250,630,c),
(265.913,630,o),
(281.174,636.321,o),
(292.426,647.574,c),
(303.679,658.826,o),
(310,674.087,o),
(310,690,c)
);
},
{
closed = 1;
nodes = (
(310,525.913,o),
(303.679,541.174,o),
(292.426,552.426,c),
(281.174,563.679,o),
(265.913,570,o),
(250,570,c),
(234.087,570,o),
(218.826,563.679,o),
(207.574,552.426,c),
(196.321,541.174,o),
(190,525.913,o),
(190,510,c),
(190,494.087,o),
(196.321,478.826,o),
(207.574,467.574,c),
(218.826,456.321,o),
(234.087,450,o),
(250,450,c),
(265.913,450,o),
(281.174,456.321,o),
(292.426,467.574,c),
(303.679,478.826,o),
(310,494.087,o),
(310,510,c)
);
},
{
closed = 1;
nodes = (
(310,345.913,o),
(303.679,361.174,o),
(292.426,372.426,c),
(281.174,383.679,o),
(265.913,390,o),
(250,390,c),
(234.087,390,o),
(218.826,383.679,o),
(207.574,372.426,c),
(196.321,361.174,o),
(190,345.913,o),
(190,330,c),
(190,314.087,o),
(196.321,298.826,o),
(207.574,287.574,c),
(218.826,276.321,o),
(234.087,270,o),
(250,270,c),
(265.913,270,o),
(281.174,276.321,o),
(292.426,287.574,c),
(303.679,298.826,o),
(310,314.087,o),
(310,330,c)
);
},
{
closed = 1;
nodes = (
(310,165.913,o),
(303.679,181.174,o),
(292.426,192.426,c),
(281.174,203.679,o),
(265.913,210,o),
(250,210,c),
(234.087,210,o),
(218.826,203.679,o),
(207.574,192.426,c),
(196.321,181.174,o),
(190,165.913,o),
(190,150,c),
(190,134.087,o),
(196.321,118.826,o),
(207.574,107.574,c),
(218.826,96.321,o),
(234.087,90,o),
(250,90,c),
(265.913,90,o),
(281.174,96.321,o),
(292.426,107.574,c),
(303.679,118.826,o),
(310,134.087,o),
(310,150,c)
);
}
);
visible = 1;
width = 1500;
},
{
layerId = "5BD49938-778C-46FB-8B52-6AA10854A152";
width = 600;
}
);
unicode = 68;
}
{
glyphname = E;
layers = (
{
anchors = (
{
name = bottom;
pos = (690,-100);
},
{
name = ogonek;
pos = (1130,-100);
},
{
name = top;
pos = (690,1770);
}
);
layerId = m01;
shapes = (
{
ref = _c.stemLA;
},
{
closed = 0;
nodes = (
(250,870,l,{
co.uk.corvelsoftware.Dotter = {
locally_forced = 1;
};
}),
(350,870,o),
(930,870,o),
(1030,870,c)
);
},
{
closed = 0;
nodes = (
(250,0,l,{
co.uk.corvelsoftware.Dotter = {
locally_forced = 1;
};
}),
(350,0,o),
(1030,0,o),
(1130,0,c)
);
},
{
closed = 0;
nodes = (
(250,1700,l,{
co.uk.corvelsoftware.Dotter = {
locally_forced = 1;
};
}),
(350,1700,o),
(1030,1700,o),
(1130,1700,c)
);
}
);
width = 1380;
},
{
layerId = "FDE4885D-BB7A-448A-91AC-7911E70BCCB6";
shapes = (
{
closed = 1;
nodes = (
(170,1753.333,o),
(170,1700,c),
(170,1423.333,o),
(170,1146.667,o),
(170,870,c),
(170,580,o),
(170,290,o),
(170,0,c),
(170,-53.333,o),
(210,-80,o),
(250,-80,c),
(290,-80,o),
(330,-53.333,o),
(330,0,c),
(330,290,o),
(330,580,o),
(330,870,c),
(330,1146.667,o),
(330,1423.333,o),
(330,1700,c),
(330,1753.333,o),
(290,1780,o),
(250,1780,c),
(210,1780,o)
);
},
{
closed = 1;
nodes = (
(196.667,790,o),
(250,790,c),
(510,790,o),
(770,790,o),
(1030,790,c),
(1083.333,790,o),
(1110,830,o),
(1110,870,c),
(1110,910,o),
(1083.333,950,o),
(1030,950,c),
(770,950,o),
(510,950,o),
(250,950,c),
(196.667,950,o),
(170,910,o),
(170,870,c),
(170,830,o)
);
},
{
closed = 1;
nodes = (
(196.667,-80,o),
(250,-80,c),
(543.333,-80,o),
(836.667,-80,o),
(1130,-80,c),
(1183.333,-80,o),
(1210,-40,o),
(1210,0,c),
(1210,40,o),
(1183.333,80,o),
(1130,80,c),
(836.667,80,o),
(543.333,80,o),
(250,80,c),
(196.667,80,o),
(170,40,o),
(170,0,c),
(170,-40,o)
);
},
{
closed = 1;
nodes = (
(196.667,1620,o),
(250,1620,c),
(543.333,1620,o),
(836.667,1620,o),
(1130,1620,c),
(1183.333,1620,o),
(1210,1660,o),
(1210,1700,c),
(1210,1740,o),
(1183.333,1780,o),
(1130,1780,c),
(836.667,1780,o),
(543.333,1780,o),
(250,1780,c),
(196.667,1780,o),
(170,1740,o),
(170,1700,c),
(170,1660,o)
);
},
{
closed = 1;
nodes = (
(0,1700,l),
(1380,1700,l),
(1380,1764,l),
(0,1764,l)
);
},
{
closed = 1;
nodes = (
(0,1000,l),
(1380,1000,l),
(1380,1064,l),
(0,1064,l)
);
},
{
closed = 1;
nodes = (
(0,0,l),
(1380,0,l),
(1380,92,l),
(0,92,l)
);
},
{
closed = 1;
nodes = (
(0,-500,l),
(1380,-500,l),
(1380,-436,l),
(0,-436,l)
);
}
);
width = 1380;
},
{
layerId = "88FD4E68-2D1A-46CE-87AD-7FBA89BDFB80";
width = 600;
},
{
associatedMasterId = m01;
layerId = "9603B5EE-F80A-40EE-AAFE-1819447820CD";
name = "Pendot Quick Preview";
shapes = (
{
closed = 1;
nodes = (
(290,1710.609,o),
(285.786,1720.783,o),
(278.284,1728.284,c),
(270.783,1735.786,o),
(260.609,1740,o),
(250,1740,c),
(239.391,1740,o),
(229.217,1735.786,o),
(221.716,1728.284,c),
(214.214,1720.783,o),
(210,1710.609,o),
(210,1700,c),
(210,1689.391,o),
(214.214,1679.217,o),
(221.716,1671.716,c),
(229.217,1664.214,o),
(239.391,1660,o),
(250,1660,c),
(260.609,1660,o),
(270.783,1664.214,o),
(278.284,1671.716,c),
(285.786,1679.217,o),
(290,1689.391,o),
(290,1700,c)
);
},
{
closed = 1;
nodes = (
(290,880.609,o),
(285.786,890.783,o),
(278.284,898.284,c),
(270.783,905.786,o),
(260.609,910,o),
(250,910,c),
(239.391,910,o),
(229.217,905.786,o),
(221.716,898.284,c),
(214.214,890.783,o),
(210,880.609,o),
(210,870,c),
(210,859.391,o),
(214.214,849.217,o),
(221.716,841.716,c),
(229.217,834.214,o),
(239.391,830,o),
(250,830,c),
(260.609,830,o),
(270.783,834.214,o),
(278.284,841.716,c),
(285.786,849.217,o),
(290,859.391,o),
(290,870,c)
);
},
{
closed = 1;
nodes = (
(290,10.609,o),
(285.786,20.783,o),
(278.284,28.284,c),
(270.783,35.786,o),
(260.609,40,o),
(250,40,c),
(239.391,40,o),
(229.217,35.786,o),
(221.716,28.284,c),
(214.214,20.783,o),
(210,10.609,o),
(210,0,c),
(210,-10.609,o),
(214.214,-20.783,o),
(221.716,-28.284,c),
(229.217,-35.786,o),
(239.391,-40,o),
(250,-40,c),
(260.609,-40,o),
(270.783,-35.786,o),
(278.284,-28.284,c),
(285.786,-20.783,o),
(290,-10.609,o),
(290,0,c)
);
},
{
closed = 1;
nodes = (
(1070,880.609,o),
(1065.786,890.783,o),
(1058.284,898.284,c),
(1050.783,905.786,o),
(1040.609,910,o),
(1030,910,c),
(1019.391,910,o),
(1009.217,905.786,o),
(1001.716,898.284,c),
(994.214,890.783,o),
(990,880.609,o),
(990,870,c),
(990,859.391,o),
(994.214,849.217,o),
(1001.716,841.716,c),
(1009.217,834.214,o),
(1019.391,830,o),
(1030,830,c),
(1040.609,830,o),
(1050.783,834.214,o),
(1058.284,841.716,c),
(1065.786,849.217,o),
(1070,859.391,o),
(1070,870,c)
);
},
{
closed = 1;
nodes = (
(1170,10.609,o),
(1165.786,20.783,o),
(1158.284,28.284,c),
(1150.783,35.786,o),
(1140.609,40,o),
(1130,40,c),
(1119.391,40,o),
(1109.217,35.786,o),
(1101.716,28.284,c),
(1094.214,20.783,o),
(1090,10.609,o),
(1090,0,c),
(1090,-10.609,o),
(1094.214,-20.783,o),
(1101.716,-28.284,c),
(1109.217,-35.786,o),
(1119.391,-40,o),
(1130,-40,c),
(1140.609,-40,o),
(1150.783,-35.786,o),
(1158.284,-28.284,c),
(1165.786,-20.783,o),
(1170,-10.609,o),
(1170,0,c)
);
},
{
closed = 1;
nodes = (
(1170,1710.609,o),
(1165.786,1720.783,o),
(1158.284,1728.284,c),
(1150.783,1735.786,o),
(1140.609,1740,o),
(1130,1740,c),
(1119.391,1740,o),
(1109.217,1735.786,o),
(1101.716,1728.284,c),
(1094.214,1720.783,o),
(1090,1710.609,o),
(1090,1700,c),
(1090,1689.391,o),
(1094.214,1679.217,o),
(1101.716,1671.716,c),
(1109.217,1664.214,o),
(1119.391,1660,o),
(1130,1660,c),
(1140.609,1660,o),
(1150.783,1664.214,o),
(1158.284,1671.716,c),
(1165.786,1679.217,o),
(1170,1689.391,o),
(1170,1700,c)
);
},
{
closed = 1;
nodes = (
(290,1572.275,o),
(285.786,1582.449,o),
(278.284,1589.951,c),
(270.783,1597.452,o),
(260.609,1601.667,o),
(250,1601.667,c),
(239.391,1601.667,o),
(229.217,1597.452,o),
(221.716,1589.951,c),
(214.214,1582.449,o),
(210,1572.275,o),
(210,1561.667,c),
(210,1551.058,o),
(214.214,1540.884,o),
(221.716,1533.383,c),
(229.217,1525.881,o),
(239.391,1521.667,o),
(250,1521.667,c),
(260.609,1521.667,o),
(270.783,1525.881,o),
(278.284,1533.383,c),
(285.786,1540.884,o),
(290,1551.058,o),
(290,1561.667,c)
);
},
{
closed = 1;
nodes = (
(290,1433.942,o),
(285.786,1444.116,o),
(278.284,1451.617,c),
(270.783,1459.119,o),
(260.609,1463.333,o),
(250,1463.333,c),
(239.391,1463.333,o),
(229.217,1459.119,o),
(221.716,1451.617,c),
(214.214,1444.116,o),
(210,1433.942,o),
(210,1423.333,c),
(210,1412.725,o),
(214.214,1402.551,o),
(221.716,1395.049,c),
(229.217,1387.548,o),
(239.391,1383.333,o),
(250,1383.333,c),
(260.609,1383.333,o),
(270.783,1387.548,o),
(278.284,1395.049,c),
(285.786,1402.551,o),
(290,1412.725,o),
(290,1423.333,c)
);
},
{
closed = 1;
nodes = (
(290,1295.609,o),
(285.786,1305.783,o),
(278.284,1313.284,c),
(270.783,1320.786,o),
(260.609,1325,o),
(250,1325,c),
(239.391,1325,o),
(229.217,1320.786,o),
(221.716,1313.284,c),
(214.214,1305.783,o),
(210,1295.609,o),
(210,1285,c),
(210,1274.391,o),
(214.214,1264.217,o),
(221.716,1256.716,c),
(229.217,1249.214,o),
(239.391,1245,o),
(250,1245,c),
(260.609,1245,o),
(270.783,1249.214,o),
(278.284,1256.716,c),
(285.786,1264.217,o),
(290,1274.391,o),
(290,1285,c)
);
},
{
closed = 1;
nodes = (
(290,1157.275,o),
(285.786,1167.449,o),
(278.284,1174.951,c),
(270.783,1182.452,o),
(260.609,1186.667,o),
(250,1186.667,c),
(239.391,1186.667,o),
(229.217,1182.452,o),
(221.716,1174.951,c),
(214.214,1167.449,o),
(210,1157.275,o),
(210,1146.667,c),
(210,1136.058,o),
(214.214,1125.884,o),
(221.716,1118.383,c),
(229.217,1110.881,o),
(239.391,1106.667,o),
(250,1106.667,c),
(260.609,1106.667,o),
(270.783,1110.881,o),
(278.284,1118.383,c),
(285.786,1125.884,o),
(290,1136.058,o),
(290,1146.667,c)
);
},
{
closed = 1;
nodes = (
(290,1018.942,o),
(285.786,1029.116,o),
(278.284,1036.617,c),
(270.783,1044.119,o),
(260.609,1048.333,o),
(250,1048.333,c),
(239.391,1048.333,o),
(229.217,1044.119,o),
(221.716,1036.617,c),
(214.214,1029.116,o),
(210,1018.942,o),
(210,1008.333,c),
(210,997.725,o),
(214.214,987.551,o),
(221.716,980.049,c),
(229.217,972.548,o),
(239.391,968.333,o),
(250,968.333,c),
(260.609,968.333,o),
(270.783,972.548,o),
(278.284,980.049,c),
(285.786,987.551,o),
(290,997.725,o),
(290,1008.333,c)
);
},
{
closed = 1;
nodes = (
(290,735.609,o),
(285.786,745.783,o),
(278.284,753.284,c),
(270.783,760.786,o),
(260.609,765,o),
(250,765,c),
(239.391,765,o),
(229.217,760.786,o),
(221.716,753.284,c),
(214.214,745.783,o),
(210,735.609,o),
(210,725,c),
(210,714.391,o),
(214.214,704.217,o),
(221.716,696.716,c),
(229.217,689.214,o),
(239.391,685,o),
(250,685,c),
(260.609,685,o),
(270.783,689.214,o),
(278.284,696.716,c),
(285.786,704.217,o),
(290,714.391,o),
(290,725,c)
);
},
{
closed = 1;
nodes = (
(290,590.609,o),
(285.786,600.783,o),
(278.284,608.284,c),
(270.783,615.786,o),
(260.609,620,o),
(250,620,c),
(239.391,620,o),
(229.217,615.786,o),
(221.716,608.284,c),
(214.214,600.783,o),
(210,590.609,o),
(210,580,c),
(210,569.391,o),
(214.214,559.217,o),
(221.716,551.716,c),
(229.217,544.214,o),
(239.391,540,o),
(250,540,c),
(260.609,540,o),
(270.783,544.214,o),
(278.284,551.716,c),
(285.786,559.217,o),
(290,569.391,o),
(290,580,c)
);
},
{
closed = 1;
nodes = (
(290,445.609,o),
(285.786,455.783,o),
(278.284,463.284,c),
(270.783,470.786,o),
(260.609,475,o),
(250,475,c),
(239.391,475,o),
(229.217,470.786,o),
(221.716,463.284,c),
(214.214,455.783,o),
(210,445.609,o),
(210,435,c),
(210,424.391,o),
(214.214,414.217,o),
(221.716,406.716,c),
(229.217,399.214,o),
(239.391,395,o),
(250,395,c),
(260.609,395,o),
(270.783,399.214,o),
(278.284,406.716,c),
(285.786,414.217,o),
(290,424.391,o),
(290,435,c)
);
},
{
closed = 1;
nodes = (
(290,300.609,o),
(285.786,310.783,o),
(278.284,318.284,c),
(270.783,325.786,o),
(260.609,330,o),
(250,330,c),
(239.391,330,o),
(229.217,325.786,o),
(221.716,318.284,c),
(214.214,310.783,o),
(210,300.609,o),
(210,290,c),
(210,279.391,o),
(214.214,269.217,o),
(221.716,261.716,c),
(229.217,254.214,o),
(239.391,250,o),
(250,250,c),
(260.609,250,o),
(270.783,254.214,o),
(278.284,261.716,c),
(285.786,269.217,o),
(290,279.391,o),
(290,290,c)
);
},
{
closed = 1;
nodes = (
(290,155.609,o),
(285.786,165.783,o),
(278.284,173.284,c),
(270.783,180.786,o),
(260.609,185,o),
(250,185,c),
(239.391,185,o),
(229.217,180.786,o),
(221.716,173.284,c),
(214.214,165.783,o),
(210,155.609,o),
(210,145,c),
(210,134.391,o),
(214.214,124.217,o),
(221.716,116.716,c),
(229.217,109.214,o),
(239.391,105,o),
(250,105,c),
(260.609,105,o),
(270.783,109.214,o),
(278.284,116.716,c),
(285.786,124.217,o),
(290,134.391,o),
(290,145,c)
);
},
{
closed = 1;
nodes = (
(420,880.609,o),
(415.786,890.783,o),
(408.284,898.284,c),
(400.783,905.786,o),
(390.609,910,o),
(380,910,c),
(369.391,910,o),
(359.217,905.786,o),
(351.716,898.284,c),
(344.214,890.783,o),
(340,880.609,o),
(340,870,c),
(340,859.391,o),
(344.214,849.217,o),
(351.716,841.716,c),
(359.217,834.214,o),
(369.391,830,o),
(380,830,c),
(390.609,830,o),
(400.783,834.214,o),
(408.284,841.716,c),
(415.786,849.217,o),
(420,859.391,o),
(420,870,c)
);
},
{
closed = 1;
nodes = (
(550,880.609,o),
(545.786,890.783,o),
(538.284,898.284,c),
(530.783,905.786,o),
(520.609,910,o),
(510,910,c),
(499.391,910,o),
(489.217,905.786,o),
(481.716,898.284,c),
(474.214,890.783,o),
(470,880.609,o),
(470,870,c),
(470,859.391,o),
(474.214,849.217,o),
(481.716,841.716,c),
(489.217,834.214,o),
(499.391,830,o),
(510,830,c),
(520.609,830,o),
(530.783,834.214,o),
(538.284,841.716,c),
(545.786,849.217,o),
(550,859.391,o),
(550,870,c)
);
},
{
closed = 1;
nodes = (
(680,880.609,o),
(675.786,890.783,o),
(668.284,898.284,c),
(660.783,905.786,o),
(650.609,910,o),
(640,910,c),
(629.391,910,o),
(619.217,905.786,o),
(611.716,898.284,c),
(604.214,890.783,o),
(600,880.609,o),
(600,870,c),
(600,859.391,o),
(604.214,849.217,o),
(611.716,841.716,c),
(619.217,834.214,o),
(629.391,830,o),
(640,830,c),
(650.609,830,o),
(660.783,834.214,o),
(668.284,841.716,c),
(675.786,849.217,o),
(680,859.391,o),
(680,870,c)
);
},
{
closed = 1;
nodes = (
(810,880.609,o),
(805.786,890.783,o),
(798.284,898.284,c),
(790.783,905.786,o),
(780.609,910,o),
(770,910,c),
(759.391,910,o),
(749.217,905.786,o),
(741.716,898.284,c),
(734.214,890.783,o),
(730,880.609,o),
(730,870,c),
(730,859.391,o),
(734.214,849.217,o),
(741.716,841.716,c),
(749.217,834.214,o),
(759.391,830,o),
(770,830,c),
(780.609,830,o),
(790.783,834.214,o),
(798.284,841.716,c),
(805.786,849.217,o),
(810,859.391,o),
(810,870,c)
);
},
{
closed = 1;
nodes = (
(940,880.609,o),
(935.786,890.783,o),
(928.284,898.284,c),
(920.783,905.786,o),
(910.609,910,o),
(900,910,c),
(889.391,910,o),
(879.217,905.786,o),
(871.716,898.284,c),
(864.214,890.783,o),
(860,880.609,o),
(860,870,c),
(860,859.391,o),
(864.214,849.217,o),
(871.716,841.716,c),
(879.217,834.214,o),
(889.391,830,o),
(900,830,c),
(910.609,830,o),
(920.783,834.214,o),
(928.284,841.716,c),
(935.786,849.217,o),
(940,859.391,o),
(940,870,c)
);
},
{
closed = 1;
nodes = (
(415.714,10.609,o),
(411.5,20.783,o),
(403.998,28.284,c),
(396.497,35.786,o),
(386.323,40,o),
(375.714,40,c),
(365.106,40,o),
(354.931,35.786,o),
(347.43,28.284,c),
(339.929,20.783,o),
(335.714,10.609,o),
(335.714,0,c),
(335.714,-10.609,o),
(339.929,-20.783,o),
(347.43,-28.284,c),
(354.931,-35.786,o),
(365.106,-40,o),
(375.714,-40,c),
(386.323,-40,o),
(396.497,-35.786,o),
(403.998,-28.284,c),
(411.5,-20.783,o),
(415.714,-10.609,o),
(415.714,0,c)
);
},
{
closed = 1;
nodes = (
(541.429,10.609,o),
(537.214,20.783,o),
(529.713,28.284,c),
(522.211,35.786,o),
(512.037,40,o),
(501.429,40,c),
(490.82,40,o),
(480.646,35.786,o),
(473.145,28.284,c),
(465.643,20.783,o),
(461.429,10.609,o),
(461.429,0,c),
(461.429,-10.609,o),
(465.643,-20.783,o),
(473.145,-28.284,c),
(480.646,-35.786,o),
(490.82,-40,o),
(501.429,-40,c),
(512.037,-40,o),
(522.211,-35.786,o),
(529.713,-28.284,c),
(537.214,-20.783,o),
(541.429,-10.609,o),
(541.429,0,c)
);
},
{
closed = 1;
nodes = (
(667.143,10.609,o),
(662.929,20.783,o),
(655.427,28.284,c),
(647.926,35.786,o),
(637.751,40,o),
(627.143,40,c),
(616.534,40,o),
(606.36,35.786,o),
(598.859,28.284,c),
(591.357,20.783,o),
(587.143,10.609,o),
(587.143,0,c),
(587.143,-10.609,o),
(591.357,-20.783,o),
(598.859,-28.284,c),
(606.36,-35.786,o),
(616.534,-40,o),
(627.143,-40,c),
(637.751,-40,o),
(647.926,-35.786,o),
(655.427,-28.284,c),
(662.929,-20.783,o),
(667.143,-10.609,o),
(667.143,0,c)
);
},
{
closed = 1;
nodes = (
(792.857,10.609,o),
(788.643,20.783,o),
(781.141,28.284,c),
(773.64,35.786,o),
(763.466,40,o),
(752.857,40,c),
(742.249,40,o),
(732.074,35.786,o),
(724.573,28.284,c),
(717.071,20.783,o),
(712.857,10.609,o),
(712.857,0,c),
(712.857,-10.609,o),
(717.071,-20.783,o),
(724.573,-28.284,c),
(732.074,-35.786,o),
(742.249,-40,o),
(752.857,-40,c),
(763.466,-40,o),
(773.64,-35.786,o),
(781.141,-28.284,c),
(788.643,-20.783,o),
(792.857,-10.609,o),
(792.857,0,c)
);
},
{
closed = 1;
nodes = (
(918.571,10.609,o),
(914.357,20.783,o),
(906.855,28.284,c),
(899.354,35.786,o),
(889.18,40,o),
(878.571,40,c),
(867.963,40,o),
(857.789,35.786,o),
(850.287,28.284,c),
(842.786,20.783,o),
(838.571,10.609,o),
(838.571,0,c),
(838.571,-10.609,o),
(842.786,-20.783,o),
(850.287,-28.284,c),
(857.789,-35.786,o),
(867.963,-40,o),
(878.571,-40,c),
(889.18,-40,o),
(899.354,-35.786,o),
(906.855,-28.284,c),
(914.357,-20.783,o),
(918.571,-10.609,o),
(918.571,0,c)
);
},
{
closed = 1;
nodes = (
(1044.286,10.609,o),
(1040.071,20.783,o),
(1032.57,28.284,c),
(1025.069,35.786,o),
(1014.894,40,o),
(1004.286,40,c),
(993.677,40,o),
(983.503,35.786,o),
(976.002,28.284,c),
(968.5,20.783,o),
(964.286,10.609,o),
(964.286,0,c),
(964.286,-10.609,o),
(968.5,-20.783,o),
(976.002,-28.284,c),
(983.503,-35.786,o),
(993.677,-40,o),
(1004.286,-40,c),
(1014.894,-40,o),
(1025.069,-35.786,o),
(1032.57,-28.284,c),
(1040.071,-20.783,o),
(1044.286,-10.609,o),
(1044.286,0,c)
);
},
{
closed = 1;
nodes = (
(415.714,1710.609,o),
(411.5,1720.783,o),
(403.998,1728.284,c),
(396.497,1735.786,o),
(386.323,1740,o),
(375.714,1740,c),
(365.106,1740,o),
(354.931,1735.786,o),
(347.43,1728.284,c),
(339.929,1720.783,o),
(335.714,1710.609,o),
(335.714,1700,c),
(335.714,1689.391,o),
(339.929,1679.217,o),
(347.43,1671.716,c),
(354.931,1664.214,o),
(365.106,1660,o),
(375.714,1660,c),
(386.323,1660,o),
(396.497,1664.214,o),
(403.998,1671.716,c),
(411.5,1679.217,o),
(415.714,1689.391,o),
(415.714,1700,c)
);
},
{
closed = 1;
nodes = (
(541.429,1710.609,o),
(537.214,1720.783,o),
(529.713,1728.284,c),
(522.211,1735.786,o),
(512.037,1740,o),
(501.429,1740,c),
(490.82,1740,o),
(480.646,1735.786,o),
(473.145,1728.284,c),
(465.643,1720.783,o),
(461.429,1710.609,o),
(461.429,1700,c),
(461.429,1689.391,o),
(465.643,1679.217,o),
(473.145,1671.716,c),
(480.646,1664.214,o),
(490.82,1660,o),
(501.429,1660,c),
(512.037,1660,o),
(522.211,1664.214,o),
(529.713,1671.716,c),
(537.214,1679.217,o),
(541.429,1689.391,o),
(541.429,1700,c)
);
},
{
closed = 1;
nodes = (
(667.143,1710.609,o),
(662.929,1720.783,o),
(655.427,1728.284,c),
(647.926,1735.786,o),
(637.751,1740,o),
(627.143,1740,c),
(616.534,1740,o),
(606.36,1735.786,o),
(598.859,1728.284,c),
(591.357,1720.783,o),
(587.143,1710.609,o),
(587.143,1700,c),
(587.143,1689.391,o),
(591.357,1679.217,o),
(598.859,1671.716,c),
(606.36,1664.214,o),
(616.534,1660,o),
(627.143,1660,c),
(637.751,1660,o),
(647.926,1664.214,o),
(655.427,1671.716,c),
(662.929,1679.217,o),
(667.143,1689.391,o),
(667.143,1700,c)
);
},
{
closed = 1;
nodes = (
(792.857,1710.609,o),
(788.643,1720.783,o),
(781.141,1728.284,c),
(773.64,1735.786,o),
(763.466,1740,o),
(752.857,1740,c),
(742.249,1740,o),
(732.074,1735.786,o),
(724.573,1728.284,c),
(717.071,1720.783,o),
(712.857,1710.609,o),
(712.857,1700,c),
(712.857,1689.391,o),
(717.071,1679.217,o),
(724.573,1671.716,c),
(732.074,1664.214,o),
(742.249,1660,o),
(752.857,1660,c),
(763.466,1660,o),
(773.64,1664.214,o),
(781.141,1671.716,c),
(788.643,1679.217,o),
(792.857,1689.391,o),
(792.857,1700,c)
);
},
{
closed = 1;
nodes = (
(918.571,1710.609,o),
(914.357,1720.783,o),
(906.855,1728.284,c),
(899.354,1735.786,o),
(889.18,1740,o),
(878.571,1740,c),
(867.963,1740,o),
(857.789,1735.786,o),
(850.287,1728.284,c),
(842.786,1720.783,o),
(838.571,1710.609,o),
(838.571,1700,c),
(838.571,1689.391,o),
(842.786,1679.217,o),
(850.287,1671.716,c),
(857.789,1664.214,o),
(867.963,1660,o),
(878.571,1660,c),
(889.18,1660,o),
(899.354,1664.214,o),
(906.855,1671.716,c),
(914.357,1679.217,o),
(918.571,1689.391,o),
(918.571,1700,c)
);
},
{
closed = 1;
nodes = (
(1044.286,1710.609,o),
(1040.071,1720.783,o),
(1032.57,1728.284,c),
(1025.069,1735.786,o),
(1014.894,1740,o),
(1004.286,1740,c),
(993.677,1740,o),
(983.503,1735.786,o),
(976.002,1728.284,c),
(968.5,1720.783,o),
(964.286,1710.609,o),
(964.286,1700,c),
(964.286,1689.391,o),
(968.5,1679.217,o),
(976.002,1671.716,c),
(983.503,1664.214,o),
(993.677,1660,o),
(1004.286,1660,c),
(1014.894,1660,o),
(1025.069,1664.214,o),
(1032.57,1671.716,c),
(1040.071,1679.217,o),
(1044.286,1689.391,o),
(1044.286,1700,c)
);
}
);
width = 1380;
},
{
layerId = "5BD49938-778C-46FB-8B52-6AA10854A152";
width = 600;
}
);
unicode = 69;
}
{
glyphname = H;
layers = (
{
anchors = (
{
name = bottom;
pos = (760,-100);
},
{
name = center;
pos = (760,1275);
},
{
name = top;
pos = (760,1770);
}
);
layerId = m01;
shapes = (
{
ref = _c.stemLA;
},
{
pos = (1020,0);
ref = _c.stemLA;
},
{
closed = 0;
nodes = (
(250,870,l,{
co.uk.corvelsoftware.Dotter = {
locally_forced = 1;
};
}),
(350,870,o),
(1170,870,o),
(1270,870,c,{
co.uk.corvelsoftware.Dotter = {
locally_forced = 1;
};
})
);
}
);
width = 1520;
},
{
layerId = "FDE4885D-BB7A-448A-91AC-7911E70BCCB6";
shapes = (
{
closed = 1;
nodes = (
(170,1753.333,o),
(170,1700,c),
(170,1423.333,o),
(170,1146.667,o),
(170,870,c),
(170,580,o),
(170,290,o),
(170,0,c),
(170,-53.333,o),
(210,-80,o),
(250,-80,c),
(290,-80,o),
(330,-53.333,o),
(330,0,c),
(330,290,o),
(330,580,o),
(330,870,c),
(330,1146.667,o),
(330,1423.333,o),
(330,1700,c),
(330,1753.333,o),
(290,1780,o),
(250,1780,c),
(210,1780,o)
);
},
{
closed = 1;
nodes = (
(1190,1753.333,o),
(1190,1700,c),
(1190,1423.333,o),
(1190,1146.667,o),
(1190,870,c),
(1190,580,o),
(1190,290,o),
(1190,0,c),
(1190,-53.333,o),
(1230,-80,o),
(1270,-80,c),
(1310,-80,o),
(1350,-53.333,o),
(1350,0,c),
(1350,290,o),
(1350,580,o),
(1350,870,c),
(1350,1146.667,o),
(1350,1423.333,o),
(1350,1700,c),
(1350,1753.333,o),
(1310,1780,o),
(1270,1780,c),
(1230,1780,o)
);
},
{
closed = 1;
nodes = (
(196.667,790,o),
(250,790,c),
(590,790,o),
(930,790,o),
(1270,790,c),
(1323.333,790,o),
(1350,830,o),
(1350,870,c),
(1350,910,o),
(1323.333,950,o),
(1270,950,c),
(930,950,o),
(590,950,o),
(250,950,c),
(196.667,950,o),
(170,910,o),
(170,870,c),
(170,830,o)
);
},
{
closed = 1;
nodes = (
(0,1700,l),
(1520,1700,l),
(1520,1764,l),
(0,1764,l)
);
},
{
closed = 1;
nodes = (
(0,1000,l),
(1520,1000,l),
(1520,1064,l),
(0,1064,l)
);
},
{
closed = 1;
nodes = (
(0,0,l),
(1520,0,l),
(1520,92,l),
(0,92,l)
);
},
{
closed = 1;
nodes = (
(0,-500,l),
(1520,-500,l),
(1520,-436,l),
(0,-436,l)
);
}
);
width = 1520;
},
{
layerId = "88FD4E68-2D1A-46CE-87AD-7FBA89BDFB80";
width = 600;
},
{
associatedMasterId = m01;
layerId = "F29A64FB-3395-4EB7-86AE-1245553D7193";
name = "Pendot Quick Preview";
shapes = (
{
closed = 1;
nodes = (
(290,1710.609,o),
(285.786,1720.783,o),
(278.284,1728.284,c),
(270.783,1735.786,o),
(260.609,1740,o),
(250,1740,c),
(239.391,1740,o),
(229.217,1735.786,o),
(221.716,1728.284,c),
(214.214,1720.783,o),
(210,1710.609,o),
(210,1700,c),
(210,1689.391,o),
(214.214,1679.217,o),
(221.716,1671.716,c),
(229.217,1664.214,o),
(239.391,1660,o),
(250,1660,c),
(260.609,1660,o),
(270.783,1664.214,o),
(278.284,1671.716,c),
(285.786,1679.217,o),
(290,1689.391,o),
(290,1700,c)
);
},
{
closed = 1;
nodes = (
(290,880.609,o),
(285.786,890.783,o),
(278.284,898.284,c),
(270.783,905.786,o),
(260.609,910,o),
(250,910,c),
(239.391,910,o),
(229.217,905.786,o),
(221.716,898.284,c),
(214.214,890.783,o),
(210,880.609,o),
(210,870,c),
(210,859.391,o),
(214.214,849.217,o),
(221.716,841.716,c),
(229.217,834.214,o),
(239.391,830,o),
(250,830,c),
(260.609,830,o),
(270.783,834.214,o),
(278.284,841.716,c),
(285.786,849.217,o),
(290,859.391,o),
(290,870,c)
);
},
{
closed = 1;
nodes = (
(290,10.609,o),
(285.786,20.783,o),
(278.284,28.284,c),
(270.783,35.786,o),
(260.609,40,o),
(250,40,c),
(239.391,40,o),
(229.217,35.786,o),
(221.716,28.284,c),
(214.214,20.783,o),
(210,10.609,o),
(210,0,c),
(210,-10.609,o),
(214.214,-20.783,o),
(221.716,-28.284,c),
(229.217,-35.786,o),
(239.391,-40,o),
(250,-40,c),
(260.609,-40,o),
(270.783,-35.786,o),
(278.284,-28.284,c),
(285.786,-20.783,o),
(290,-10.609,o),
(290,0,c)
);
},
{
closed = 1;
nodes = (
(1310,1710.609,o),
(1305.786,1720.783,o),
(1298.284,1728.284,c),
(1290.783,1735.786,o),
(1280.609,1740,o),
(1270,1740,c),
(1259.391,1740,o),
(1249.217,1735.786,o),
(1241.716,1728.284,c),
(1234.214,1720.783,o),
(1230,1710.609,o),
(1230,1700,c),
(1230,1689.391,o),
(1234.214,1679.217,o),
(1241.716,1671.716,c),
(1249.217,1664.214,o),
(1259.391,1660,o),
(1270,1660,c),
(1280.609,1660,o),
(1290.783,1664.214,o),
(1298.284,1671.716,c),
(1305.786,1679.217,o),
(1310,1689.391,o),
(1310,1700,c)
);
},
{
closed = 1;
nodes = (
(1310,880.609,o),
(1305.786,890.783,o),
(1298.284,898.284,c),
(1290.783,905.786,o),
(1280.609,910,o),
(1270,910,c),
(1259.391,910,o),
(1249.217,905.786,o),
(1241.716,898.284,c),
(1234.214,890.783,o),
(1230,880.609,o),
(1230,870,c),
(1230,859.391,o),
(1234.214,849.217,o),
(1241.716,841.716,c),
(1249.217,834.214,o),
(1259.391,830,o),
(1270,830,c),
(1280.609,830,o),
(1290.783,834.214,o),
(1298.284,841.716,c),
(1305.786,849.217,o),
(1310,859.391,o),
(1310,870,c)
);
},
{
closed = 1;
nodes = (
(1310,10.609,o),
(1305.786,20.783,o),
(1298.284,28.284,c),
(1290.783,35.786,o),
(1280.609,40,o),
(1270,40,c),
(1259.391,40,o),
(1249.217,35.786,o),
(1241.716,28.284,c),
(1234.214,20.783,o),
(1230,10.609,o),
(1230,0,c),
(1230,-10.609,o),
(1234.214,-20.783,o),
(1241.716,-28.284,c),
(1249.217,-35.786,o),
(1259.391,-40,o),
(1270,-40,c),
(1280.609,-40,o),
(1290.783,-35.786,o),
(1298.284,-28.284,c),
(1305.786,-20.783,o),
(1310,-10.609,o),
(1310,0,c)
);
},
{
closed = 1;
nodes = (
(290,1572.275,o),
(285.786,1582.449,o),
(278.284,1589.951,c),
(270.783,1597.452,o),
(260.609,1601.667,o),
(250,1601.667,c),
(239.391,1601.667,o),
(229.217,1597.452,o),
(221.716,1589.951,c),
(214.214,1582.449,o),
(210,1572.275,o),
(210,1561.667,c),
(210,1551.058,o),
(214.214,1540.884,o),
(221.716,1533.383,c),
(229.217,1525.881,o),
(239.391,1521.667,o),
(250,1521.667,c),
(260.609,1521.667,o),
(270.783,1525.881,o),
(278.284,1533.383,c),
(285.786,1540.884,o),
(290,1551.058,o),
(290,1561.667,c)
);
},
{
closed = 1;
nodes = (
(290,1433.942,o),
(285.786,1444.116,o),
(278.284,1451.617,c),
(270.783,1459.119,o),
(260.609,1463.333,o),
(250,1463.333,c),
(239.391,1463.333,o),
(229.217,1459.119,o),
(221.716,1451.617,c),
(214.214,1444.116,o),
(210,1433.942,o),
(210,1423.333,c),
(210,1412.725,o),
(214.214,1402.551,o),
(221.716,1395.049,c),
(229.217,1387.548,o),
(239.391,1383.333,o),
(250,1383.333,c),
(260.609,1383.333,o),
(270.783,1387.548,o),
(278.284,1395.049,c),
(285.786,1402.551,o),
(290,1412.725,o),
(290,1423.333,c)
);
},
{
closed = 1;
nodes = (
(290,1295.609,o),
(285.786,1305.783,o),
(278.284,1313.284,c),
(270.783,1320.786,o),
(260.609,1325,o),
(250,1325,c),
(239.391,1325,o),
(229.217,1320.786,o),
(221.716,1313.284,c),
(214.214,1305.783,o),
(210,1295.609,o),
(210,1285,c),
(210,1274.391,o),
(214.214,1264.217,o),
(221.716,1256.716,c),
(229.217,1249.214,o),
(239.391,1245,o),
(250,1245,c),
(260.609,1245,o),
(270.783,1249.214,o),
(278.284,1256.716,c),
(285.786,1264.217,o),
(290,1274.391,o),
(290,1285,c)
);
},
{
closed = 1;
nodes = (
(290,1157.275,o),
(285.786,1167.449,o),
(278.284,1174.951,c),
(270.783,1182.452,o),
(260.609,1186.667,o),
(250,1186.667,c),
(239.391,1186.667,o),
(229.217,1182.452,o),
(221.716,1174.951,c),
(214.214,1167.449,o),
(210,1157.275,o),
(210,1146.667,c),
(210,1136.058,o),
(214.214,1125.884,o),
(221.716,1118.383,c),
(229.217,1110.881,o),
(239.391,1106.667,o),
(250,1106.667,c),
(260.609,1106.667,o),
(270.783,1110.881,o),
(278.284,1118.383,c),
(285.786,1125.884,o),
(290,1136.058,o),
(290,1146.667,c)
);
},
{
closed = 1;
nodes = (
(290,1018.942,o),
(285.786,1029.116,o),
(278.284,1036.617,c),
(270.783,1044.119,o),
(260.609,1048.333,o),
(250,1048.333,c),
(239.391,1048.333,o),
(229.217,1044.119,o),
(221.716,1036.617,c),
(214.214,1029.116,o),
(210,1018.942,o),
(210,1008.333,c),
(210,997.725,o),
(214.214,987.551,o),
(221.716,980.049,c),
(229.217,972.548,o),
(239.391,968.333,o),
(250,968.333,c),
(260.609,968.333,o),
(270.783,972.548,o),
(278.284,980.049,c),
(285.786,987.551,o),
(290,997.725,o),
(290,1008.333,c)
);
},
{
closed = 1;
nodes = (
(290,735.609,o),
(285.786,745.783,o),
(278.284,753.284,c),
(270.783,760.786,o),
(260.609,765,o),
(250,765,c),
(239.391,765,o),
(229.217,760.786,o),
(221.716,753.284,c),
(214.214,745.783,o),
(210,735.609,o),
(210,725,c),
(210,714.391,o),
(214.214,704.217,o),
(221.716,696.716,c),
(229.217,689.214,o),
(239.391,685,o),
(250,685,c),
(260.609,685,o),
(270.783,689.214,o),
(278.284,696.716,c),
(285.786,704.217,o),
(290,714.391,o),
(290,725,c)
);
},
{
closed = 1;
nodes = (
(290,590.609,o),
(285.786,600.783,o),
(278.284,608.284,c),
(270.783,615.786,o),
(260.609,620,o),
(250,620,c),
(239.391,620,o),
(229.217,615.786,o),
(221.716,608.284,c),
(214.214,600.783,o),
(210,590.609,o),
(210,580,c),
(210,569.391,o),
(214.214,559.217,o),
(221.716,551.716,c),
(229.217,544.214,o),
(239.391,540,o),
(250,540,c),
(260.609,540,o),
(270.783,544.214,o),
(278.284,551.716,c),
(285.786,559.217,o),
(290,569.391,o),
(290,580,c)
);
},
{
closed = 1;
nodes = (
(290,445.609,o),
(285.786,455.783,o),
(278.284,463.284,c),
(270.783,470.786,o),
(260.609,475,o),
(250,475,c),
(239.391,475,o),
(229.217,470.786,o),
(221.716,463.284,c),
(214.214,455.783,o),
(210,445.609,o),
(210,435,c),
(210,424.391,o),
(214.214,414.217,o),
(221.716,406.716,c),
(229.217,399.214,o),
(239.391,395,o),
(250,395,c),
(260.609,395,o),
(270.783,399.214,o),
(278.284,406.716,c),
(285.786,414.217,o),
(290,424.391,o),
(290,435,c)
);
},
{
closed = 1;
nodes = (
(290,300.609,o),
(285.786,310.783,o),
(278.284,318.284,c),
(270.783,325.786,o),
(260.609,330,o),
(250,330,c),
(239.391,330,o),
(229.217,325.786,o),
(221.716,318.284,c),
(214.214,310.783,o),
(210,300.609,o),
(210,290,c),
(210,279.391,o),
(214.214,269.217,o),
(221.716,261.716,c),
(229.217,254.214,o),
(239.391,250,o),
(250,250,c),
(260.609,250,o),
(270.783,254.214,o),
(278.284,261.716,c),
(285.786,269.217,o),
(290,279.391,o),
(290,290,c)
);
},
{
closed = 1;
nodes = (
(290,155.609,o),
(285.786,165.783,o),
(278.284,173.284,c),
(270.783,180.786,o),
(260.609,185,o),
(250,185,c),
(239.391,185,o),
(229.217,180.786,o),
(221.716,173.284,c),
(214.214,165.783,o),
(210,155.609,o),
(210,145,c),
(210,134.391,o),
(214.214,124.217,o),
(221.716,116.716,c),
(229.217,109.214,o),
(239.391,105,o),
(250,105,c),
(260.609,105,o),
(270.783,109.214,o),
(278.284,116.716,c),
(285.786,124.217,o),
(290,134.391,o),
(290,145,c)
);
},
{
closed = 1;
nodes = (
(1310,1572.275,o),
(1305.786,1582.449,o),
(1298.284,1589.951,c),
(1290.783,1597.452,o),
(1280.609,1601.667,o),
(1270,1601.667,c),
(1259.391,1601.667,o),
(1249.217,1597.452,o),
(1241.716,1589.951,c),
(1234.214,1582.449,o),
(1230,1572.275,o),
(1230,1561.667,c),
(1230,1551.058,o),
(1234.214,1540.884,o),
(1241.716,1533.383,c),
(1249.217,1525.881,o),
(1259.391,1521.667,o),
(1270,1521.667,c),
(1280.609,1521.667,o),
(1290.783,1525.881,o),
(1298.284,1533.383,c),
(1305.786,1540.884,o),
(1310,1551.058,o),
(1310,1561.667,c)
);
},
{
closed = 1;
nodes = (
(1310,1433.942,o),
(1305.786,1444.116,o),
(1298.284,1451.617,c),
(1290.783,1459.119,o),
(1280.609,1463.333,o),
(1270,1463.333,c),
(1259.391,1463.333,o),
(1249.217,1459.119,o),
(1241.716,1451.617,c),
(1234.214,1444.116,o),
(1230,1433.942,o),
(1230,1423.333,c),
(1230,1412.725,o),
(1234.214,1402.551,o),
(1241.716,1395.049,c),
(1249.217,1387.548,o),
(1259.391,1383.333,o),
(1270,1383.333,c),
(1280.609,1383.333,o),
(1290.783,1387.548,o),
(1298.284,1395.049,c),
(1305.786,1402.551,o),
(1310,1412.725,o),
(1310,1423.333,c)
);
},
{
closed = 1;
nodes = (
(1310,1295.609,o),
(1305.786,1305.783,o),
(1298.284,1313.284,c),
(1290.783,1320.786,o),
(1280.609,1325,o),
(1270,1325,c),
(1259.391,1325,o),
(1249.217,1320.786,o),
(1241.716,1313.284,c),
(1234.214,1305.783,o),
(1230,1295.609,o),
(1230,1285,c),
(1230,1274.391,o),
(1234.214,1264.217,o),
(1241.716,1256.716,c),
(1249.217,1249.214,o),
(1259.391,1245,o),
(1270,1245,c),
(1280.609,1245,o),
(1290.783,1249.214,o),
(1298.284,1256.716,c),
(1305.786,1264.217,o),
(1310,1274.391,o),
(1310,1285,c)
);
},
{
closed = 1;
nodes = (
(1310,1157.275,o),
(1305.786,1167.449,o),
(1298.284,1174.951,c),
(1290.783,1182.452,o),
(1280.609,1186.667,o),
(1270,1186.667,c),
(1259.391,1186.667,o),
(1249.217,1182.452,o),
(1241.716,1174.951,c),
(1234.214,1167.449,o),
(1230,1157.275,o),
(1230,1146.667,c),
(1230,1136.058,o),
(1234.214,1125.884,o),
(1241.716,1118.383,c),
(1249.217,1110.881,o),
(1259.391,1106.667,o),
(1270,1106.667,c),
(1280.609,1106.667,o),
(1290.783,1110.881,o),
(1298.284,1118.383,c),
(1305.786,1125.884,o),
(1310,1136.058,o),
(1310,1146.667,c)
);
},
{
closed = 1;
nodes = (
(1310,1018.942,o),
(1305.786,1029.116,o),
(1298.284,1036.617,c),
(1290.783,1044.119,o),
(1280.609,1048.333,o),
(1270,1048.333,c),
(1259.391,1048.333,o),
(1249.217,1044.119,o),
(1241.716,1036.617,c),
(1234.214,1029.116,o),
(1230,1018.942,o),
(1230,1008.333,c),
(1230,997.725,o),
(1234.214,987.551,o),
(1241.716,980.049,c),
(1249.217,972.548,o),
(1259.391,968.333,o),
(1270,968.333,c),
(1280.609,968.333,o),
(1290.783,972.548,o),
(1298.284,980.049,c),
(1305.786,987.551,o),
(1310,997.725,o),
(1310,1008.333,c)
);
},
{
closed = 1;
nodes = (
(1310,735.609,o),
(1305.786,745.783,o),
(1298.284,753.284,c),
(1290.783,760.786,o),
(1280.609,765,o),
(1270,765,c),
(1259.391,765,o),
(1249.217,760.786,o),
(1241.716,753.284,c),
(1234.214,745.783,o),
(1230,735.609,o),
(1230,725,c),
(1230,714.391,o),
(1234.214,704.217,o),
(1241.716,696.716,c),
(1249.217,689.214,o),
(1259.391,685,o),
(1270,685,c),
(1280.609,685,o),
(1290.783,689.214,o),
(1298.284,696.716,c),
(1305.786,704.217,o),
(1310,714.391,o),
(1310,725,c)
);
},
{
closed = 1;
nodes = (
(1310,590.609,o),
(1305.786,600.783,o),
(1298.284,608.284,c),
(1290.783,615.786,o),
(1280.609,620,o),
(1270,620,c),
(1259.391,620,o),
(1249.217,615.786,o),
(1241.716,608.284,c),
(1234.214,600.783,o),
(1230,590.609,o),
(1230,580,c),
(1230,569.391,o),
(1234.214,559.217,o),
(1241.716,551.716,c),
(1249.217,544.214,o),
(1259.391,540,o),
(1270,540,c),
(1280.609,540,o),
(1290.783,544.214,o),
(1298.284,551.716,c),
(1305.786,559.217,o),
(1310,569.391,o),
(1310,580,c)
);
},
{
closed = 1;
nodes = (
(1310,445.609,o),
(1305.786,455.783,o),
(1298.284,463.284,c),
(1290.783,470.786,o),
(1280.609,475,o),
(1270,475,c),
(1259.391,475,o),
(1249.217,470.786,o),
(1241.716,463.284,c),
(1234.214,455.783,o),
(1230,445.609,o),
(1230,435,c),
(1230,424.391,o),
(1234.214,414.217,o),
(1241.716,406.716,c),
(1249.217,399.214,o),
(1259.391,395,o),
(1270,395,c),
(1280.609,395,o),
(1290.783,399.214,o),
(1298.284,406.716,c),
(1305.786,414.217,o),
(1310,424.391,o),
(1310,435,c)
);
},
{
closed = 1;
nodes = (
(1310,300.609,o),
(1305.786,310.783,o),
(1298.284,318.284,c),
(1290.783,325.786,o),
(1280.609,330,o),
(1270,330,c),
(1259.391,330,o),
(1249.217,325.786,o),
(1241.716,318.284,c),
(1234.214,310.783,o),
(1230,300.609,o),
(1230,290,c),
(1230,279.391,o),
(1234.214,269.217,o),
(1241.716,261.716,c),
(1249.217,254.214,o),
(1259.391,250,o),
(1270,250,c),
(1280.609,250,o),
(1290.783,254.214,o),
(1298.284,261.716,c),
(1305.786,269.217,o),
(1310,279.391,o),
(1310,290,c)
);
},
{
closed = 1;
nodes = (
(1310,155.609,o),
(1305.786,165.783,o),
(1298.284,173.284,c),
(1290.783,180.786,o),
(1280.609,185,o),
(1270,185,c),
(1259.391,185,o),
(1249.217,180.786,o),
(1241.716,173.284,c),
(1234.214,165.783,o),
(1230,155.609,o),
(1230,145,c),
(1230,134.391,o),
(1234.214,124.217,o),
(1241.716,116.716,c),
(1249.217,109.214,o),
(1259.391,105,o),
(1270,105,c),
(1280.609,105,o),
(1290.783,109.214,o),
(1298.284,116.716,c),
(1305.786,124.217,o),
(1310,134.391,o),
(1310,145,c)
);
},
{
closed = 1;
nodes = (
(417.5,880.609,o),
(413.286,890.783,o),
(405.784,898.284,c),
(398.283,905.786,o),
(388.109,910,o),
(377.5,910,c),
(366.891,910,o),
(356.717,905.786,o),
(349.216,898.284,c),
(341.714,890.783,o),
(337.5,880.609,o),
(337.5,870,c),
(337.5,859.391,o),
(341.714,849.217,o),
(349.216,841.716,c),
(356.717,834.214,o),
(366.891,830,o),
(377.5,830,c),
(388.109,830,o),
(398.283,834.214,o),
(405.784,841.716,c),
(413.286,849.217,o),
(417.5,859.391,o),
(417.5,870,c)
);
},
{
closed = 1;
nodes = (
(545,880.609,o),
(540.786,890.783,o),
(533.284,898.284,c),
(525.783,905.786,o),
(515.609,910,o),
(505,910,c),
(494.391,910,o),
(484.217,905.786,o),
(476.716,898.284,c),
(469.214,890.783,o),
(465,880.609,o),
(465,870,c),
(465,859.391,o),
(469.214,849.217,o),
(476.716,841.716,c),
(484.217,834.214,o),
(494.391,830,o),
(505,830,c),
(515.609,830,o),
(525.783,834.214,o),
(533.284,841.716,c),
(540.786,849.217,o),
(545,859.391,o),
(545,870,c)
);
},
{
closed = 1;
nodes = (
(672.5,880.609,o),
(668.286,890.783,o),
(660.784,898.284,c),
(653.283,905.786,o),
(643.109,910,o),
(632.5,910,c),
(621.891,910,o),
(611.717,905.786,o),
(604.216,898.284,c),
(596.714,890.783,o),
(592.5,880.609,o),
(592.5,870,c),
(592.5,859.391,o),
(596.714,849.217,o),
(604.216,841.716,c),
(611.717,834.214,o),
(621.891,830,o),
(632.5,830,c),
(643.109,830,o),
(653.283,834.214,o),
(660.784,841.716,c),
(668.286,849.217,o),
(672.5,859.391,o),
(672.5,870,c)
);
},
{
closed = 1;
nodes = (
(800,880.609,o),
(795.786,890.783,o),
(788.284,898.284,c),
(780.783,905.786,o),
(770.609,910,o),
(760,910,c),
(749.391,910,o),
(739.217,905.786,o),
(731.716,898.284,c),
(724.214,890.783,o),
(720,880.609,o),
(720,870,c),
(720,859.391,o),
(724.214,849.217,o),
(731.716,841.716,c),
(739.217,834.214,o),
(749.391,830,o),
(760,830,c),
(770.609,830,o),
(780.783,834.214,o),
(788.284,841.716,c),
(795.786,849.217,o),
(800,859.391,o),
(800,870,c)
);
},
{
closed = 1;
nodes = (
(927.5,880.609,o),
(923.286,890.783,o),
(915.784,898.284,c),
(908.283,905.786,o),
(898.109,910,o),
(887.5,910,c),
(876.891,910,o),
(866.717,905.786,o),
(859.216,898.284,c),
(851.714,890.783,o),
(847.5,880.609,o),
(847.5,870,c),
(847.5,859.391,o),
(851.714,849.217,o),
(859.216,841.716,c),
(866.717,834.214,o),
(876.891,830,o),
(887.5,830,c),
(898.109,830,o),
(908.283,834.214,o),
(915.784,841.716,c),
(923.286,849.217,o),
(927.5,859.391,o),
(927.5,870,c)
);
},
{
closed = 1;
nodes = (
(1055,880.609,o),
(1050.786,890.783,o),
(1043.284,898.284,c),
(1035.783,905.786,o),
(1025.609,910,o),
(1015,910,c),
(1004.391,910,o),
(994.217,905.786,o),
(986.716,898.284,c),
(979.214,890.783,o),
(975,880.609,o),
(975,870,c),
(975,859.391,o),
(979.214,849.217,o),
(986.716,841.716,c),
(994.217,834.214,o),
(1004.391,830,o),
(1015,830,c),
(1025.609,830,o),
(1035.783,834.214,o),
(1043.284,841.716,c),
(1050.786,849.217,o),
(1055,859.391,o),
(1055,870,c)
);
},
{
closed = 1;
nodes = (
(1182.5,880.609,o),
(1178.286,890.783,o),
(1170.784,898.284,c),
(1163.283,905.786,o),
(1153.109,910,o),
(1142.5,910,c),
(1131.891,910,o),
(1121.717,905.786,o),
(1114.216,898.284,c),
(1106.714,890.783,o),
(1102.5,880.609,o),
(1102.5,870,c),
(1102.5,859.391,o),
(1106.714,849.217,o),
(1114.216,841.716,c),
(1121.717,834.214,o),
(1131.891,830,o),
(1142.5,830,c),
(1153.109,830,o),
(1163.283,834.214,o),
(1170.784,841.716,c),
(1178.286,849.217,o),
(1182.5,859.391,o),
(1182.5,870,c)
);
}
);
width = 1520;
},
{
layerId = "5BD49938-778C-46FB-8B52-6AA10854A152";
width = 600;
}
);
unicode = 72;
}
{
glyphname = M;
layers = (
{
anchors = (
{
name = bottom;
pos = (980,-100);
},
{
name = top;
pos = (980,1770);
}
);
layerId = m01;
shapes = (
{
ref = _c.stemLA;
},
{
pos = (1460,0);
ref = _c.stemLA;
},
{
closed = 0;
nodes = (
(250,1700,l,{
co.uk.corvelsoftware.Dotter = {
locally_forced = 1;
};
}),
(980,0,l,{
co.uk.corvelsoftware.Dotter = {
forced = 1;
};
}),
(1710,1704,l)
);
}
);
width = 1960;
},
{
layerId = "FDE4885D-BB7A-448A-91AC-7911E70BCCB6";
shapes = (
{
closed = 1;
nodes = (
(170,1753.333,o),
(170,1700,c),
(170,1423.333,o),
(170,1146.667,o),
(170,870,c),
(170,580,o),
(170,290,o),
(170,0,c),
(170,-53.333,o),
(210,-80,o),
(250,-80,c),
(290,-80,o),
(330,-53.333,o),
(330,0,c),
(330,290,o),
(330,580,o),
(330,870,c),
(330,1146.667,o),
(330,1423.333,o),
(330,1700,c),
(330,1753.333,o),
(290,1780,o),
(250,1780,c),
(210,1780,o)
);
},
{
closed = 1;
nodes = (
(1630,1753.333,o),
(1630,1700,c),
(1630,1423.333,o),
(1630,1146.667,o),
(1630,870,c),
(1630,580,o),
(1630,290,o),
(1630,0,c),
(1630,-53.333,o),
(1670,-80,o),
(1710,-80,c),
(1750,-80,o),
(1790,-53.333,o),
(1790,0,c),
(1790,290,o),
(1790,580,o),
(1790,870,c),
(1790,1146.667,o),
(1790,1423.333,o),
(1790,1700,c),
(1790,1753.333,o),
(1750,1780,o),
(1710,1780,c),
(1670,1780,o)
);
},
{
closed = 1;
nodes = (
(155.447,1717.44,o),
(176.491,1668.434,c),
(419.824,1101.768,o),
(663.157,535.101,o),
(906.491,-31.566,c),
(919.24,-61.255,o),
(949.639,-76.089,o),
(980.032,-76.076,c),
(1010.426,-76.063,o),
(1040.813,-61.203,o),
(1053.536,-31.503,c),
(1296.869,536.497,o),
(1540.203,1104.497,o),
(1783.536,1672.497,c),
(1804.538,1721.521,o),
(1778.271,1761.785,o),
(1741.503,1777.536,c),
(1704.735,1793.288,o),
(1657.466,1784.527,o),
(1636.464,1735.503,c),
(1393.131,1167.503,o),
(1149.797,599.503,o),
(906.464,31.503,c),
(893.74,1.803,o),
(936.876,-13.025,o),
(980.006,-13.007,c),
(1023.135,-12.989,o),
(1066.258,1.877,o),
(1053.509,31.566,c),
(810.176,598.232,o),
(566.843,1164.899,o),
(323.509,1731.566,c),
(302.465,1780.572,o),
(255.189,1789.292,o),
(218.434,1773.509,c),
(181.68,1757.726,o)
);
},
{
closed = 1;
nodes = (
(0,1718,l),
(1960,1718,l),
(1960,1774,l),
(0,1774,l)
);
},
{
closed = 1;
nodes = (
(0,1008,l),
(1960,1008,l),
(1960,1064,l),
(0,1064,l)
);
},
{
closed = 1;
nodes = (
(0,-96,l),
(1960,-96,l),
(1960,-18,l),
(0,-18,l)
);
},
{
closed = 1;
nodes = (
(0,-574,l),
(1960,-574,l),
(1960,-518,l),
(0,-518,l)
);
}
);
width = 1960;
},
{
layerId = "88FD4E68-2D1A-46CE-87AD-7FBA89BDFB80";
width = 600;
},
{
associatedMasterId = m01;
layerId = "8010004A-FE20-4096-A740-BC924C47A184";
name = "Pendot Quick Preview";
shapes = (
{
closed = 1;
nodes = (
(290,1710.609,o),
(285.786,1720.783,o),
(278.284,1728.284,c),
(270.783,1735.786,o),
(260.609,1740,o),
(250,1740,c),
(239.391,1740,o),
(229.217,1735.786,o),
(221.716,1728.284,c),
(214.214,1720.783,o),
(210,1710.609,o),
(210,1700,c),
(210,1689.391,o),
(214.214,1679.217,o),
(221.716,1671.716,c),
(229.217,1664.214,o),
(239.391,1660,o),
(250,1660,c),
(260.609,1660,o),
(270.783,1664.214,o),
(278.284,1671.716,c),
(285.786,1679.217,o),
(290,1689.391,o),
(290,1700,c)
);
},
{
closed = 1;
nodes = (
(290,880.609,o),
(285.786,890.783,o),
(278.284,898.284,c),
(270.783,905.786,o),
(260.609,910,o),
(250,910,c),
(239.391,910,o),
(229.217,905.786,o),
(221.716,898.284,c),
(214.214,890.783,o),
(210,880.609,o),
(210,870,c),
(210,859.391,o),
(214.214,849.217,o),
(221.716,841.716,c),
(229.217,834.214,o),
(239.391,830,o),
(250,830,c),
(260.609,830,o),
(270.783,834.214,o),
(278.284,841.716,c),
(285.786,849.217,o),
(290,859.391,o),
(290,870,c)
);
},
{
closed = 1;
nodes = (
(290,10.609,o),
(285.786,20.783,o),
(278.284,28.284,c),
(270.783,35.786,o),
(260.609,40,o),
(250,40,c),
(239.391,40,o),
(229.217,35.786,o),
(221.716,28.284,c),
(214.214,20.783,o),
(210,10.609,o),
(210,0,c),
(210,-10.609,o),
(214.214,-20.783,o),
(221.716,-28.284,c),
(229.217,-35.786,o),
(239.391,-40,o),
(250,-40,c),
(260.609,-40,o),
(270.783,-35.786,o),
(278.284,-28.284,c),
(285.786,-20.783,o),
(290,-10.609,o),
(290,0,c)
);
},
{
closed = 1;
nodes = (
(1750,1710.609,o),
(1745.786,1720.783,o),
(1738.284,1728.284,c),
(1730.783,1735.786,o),
(1720.609,1740,o),
(1710,1740,c),
(1699.391,1740,o),
(1689.217,1735.786,o),
(1681.716,1728.284,c),
(1674.214,1720.783,o),
(1670,1710.609,o),
(1670,1700,c),
(1670,1689.391,o),
(1674.214,1679.217,o),
(1681.716,1671.716,c),
(1689.217,1664.214,o),
(1699.391,1660,o),
(1710,1660,c),
(1720.609,1660,o),
(1730.783,1664.214,o),
(1738.284,1671.716,c),
(1745.786,1679.217,o),
(1750,1689.391,o),
(1750,1700,c)
);
},
{
closed = 1;
nodes = (
(1750,880.609,o),
(1745.786,890.783,o),
(1738.284,898.284,c),
(1730.783,905.786,o),
(1720.609,910,o),
(1710,910,c),
(1699.391,910,o),
(1689.217,905.786,o),
(1681.716,898.284,c),
(1674.214,890.783,o),
(1670,880.609,o),
(1670,870,c),
(1670,859.391,o),
(1674.214,849.217,o),
(1681.716,841.716,c),
(1689.217,834.214,o),
(1699.391,830,o),
(1710,830,c),
(1720.609,830,o),
(1730.783,834.214,o),
(1738.284,841.716,c),
(1745.786,849.217,o),
(1750,859.391,o),
(1750,870,c)
);
},
{
closed = 1;
nodes = (
(1750,10.609,o),
(1745.786,20.783,o),
(1738.284,28.284,c),
(1730.783,35.786,o),
(1720.609,40,o),
(1710,40,c),
(1699.391,40,o),
(1689.217,35.786,o),
(1681.716,28.284,c),
(1674.214,20.783,o),
(1670,10.609,o),
(1670,0,c),
(1670,-10.609,o),
(1674.214,-20.783,o),
(1681.716,-28.284,c),
(1689.217,-35.786,o),
(1699.391,-40,o),
(1710,-40,c),
(1720.609,-40,o),
(1730.783,-35.786,o),
(1738.284,-28.284,c),
(1745.786,-20.783,o),
(1750,-10.609,o),
(1750,0,c)
);
},
{
closed = 1;
nodes = (
(1020,10.609,o),
(1015.786,20.783,o),
(1008.284,28.284,c),
(1000.783,35.786,o),
(990.609,40,o),
(980,40,c),
(969.391,40,o),
(959.217,35.786,o),
(951.716,28.284,c),
(944.214,20.783,o),
(940,10.609,o),
(940,0,c),
(940,-10.609,o),
(944.214,-20.783,o),
(951.716,-28.284,c),
(959.217,-35.786,o),
(969.391,-40,o),
(980,-40,c),
(990.609,-40,o),
(1000.783,-35.786,o),
(1008.284,-28.284,c),
(1015.786,-20.783,o),
(1020,-10.609,o),
(1020,0,c)
);
},
{
closed = 1;
nodes = (
(290,1572.275,o),
(285.786,1582.449,o),
(278.284,1589.951,c),
(270.783,1597.452,o),
(260.609,1601.667,o),
(250,1601.667,c),
(239.391,1601.667,o),
(229.217,1597.452,o),
(221.716,1589.951,c),
(214.214,1582.449,o),
(210,1572.275,o),
(210,1561.667,c),
(210,1551.058,o),
(214.214,1540.884,o),
(221.716,1533.383,c),
(229.217,1525.881,o),
(239.391,1521.667,o),
(250,1521.667,c),
(260.609,1521.667,o),
(270.783,1525.881,o),
(278.284,1533.383,c),
(285.786,1540.884,o),
(290,1551.058,o),
(290,1561.667,c)
);
},
{
closed = 1;
nodes = (
(290,1433.942,o),
(285.786,1444.116,o),
(278.284,1451.617,c),
(270.783,1459.119,o),
(260.609,1463.333,o),
(250,1463.333,c),
(239.391,1463.333,o),
(229.217,1459.119,o),
(221.716,1451.617,c),
(214.214,1444.116,o),
(210,1433.942,o),
(210,1423.333,c),
(210,1412.725,o),
(214.214,1402.551,o),
(221.716,1395.049,c),
(229.217,1387.548,o),
(239.391,1383.333,o),
(250,1383.333,c),
(260.609,1383.333,o),
(270.783,1387.548,o),
(278.284,1395.049,c),
(285.786,1402.551,o),
(290,1412.725,o),
(290,1423.333,c)
);
},
{
closed = 1;
nodes = (
(290,1295.609,o),
(285.786,1305.783,o),
(278.284,1313.284,c),
(270.783,1320.786,o),
(260.609,1325,o),
(250,1325,c),
(239.391,1325,o),
(229.217,1320.786,o),
(221.716,1313.284,c),
(214.214,1305.783,o),
(210,1295.609,o),
(210,1285,c),
(210,1274.391,o),
(214.214,1264.217,o),
(221.716,1256.716,c),
(229.217,1249.214,o),
(239.391,1245,o),
(250,1245,c),
(260.609,1245,o),
(270.783,1249.214,o),
(278.284,1256.716,c),
(285.786,1264.217,o),
(290,1274.391,o),
(290,1285,c)
);
},
{
closed = 1;
nodes = (
(290,1157.275,o),
(285.786,1167.449,o),
(278.284,1174.951,c),
(270.783,1182.452,o),
(260.609,1186.667,o),
(250,1186.667,c),
(239.391,1186.667,o),
(229.217,1182.452,o),
(221.716,1174.951,c),
(214.214,1167.449,o),
(210,1157.275,o),
(210,1146.667,c),
(210,1136.058,o),
(214.214,1125.884,o),
(221.716,1118.383,c),
(229.217,1110.881,o),
(239.391,1106.667,o),
(250,1106.667,c),
(260.609,1106.667,o),
(270.783,1110.881,o),
(278.284,1118.383,c),
(285.786,1125.884,o),
(290,1136.058,o),
(290,1146.667,c)
);
},
{
closed = 1;
nodes = (
(290,1018.942,o),
(285.786,1029.116,o),
(278.284,1036.617,c),
(270.783,1044.119,o),
(260.609,1048.333,o),
(250,1048.333,c),
(239.391,1048.333,o),
(229.217,1044.119,o),
(221.716,1036.617,c),
(214.214,1029.116,o),
(210,1018.942,o),
(210,1008.333,c),
(210,997.725,o),
(214.214,987.551,o),
(221.716,980.049,c),
(229.217,972.548,o),
(239.391,968.333,o),
(250,968.333,c),
(260.609,968.333,o),
(270.783,972.548,o),
(278.284,980.049,c),
(285.786,987.551,o),
(290,997.725,o),
(290,1008.333,c)
);
},
{
closed = 1;
nodes = (
(290,735.609,o),
(285.786,745.783,o),
(278.284,753.284,c),
(270.783,760.786,o),
(260.609,765,o),
(250,765,c),
(239.391,765,o),
(229.217,760.786,o),
(221.716,753.284,c),
(214.214,745.783,o),
(210,735.609,o),
(210,725,c),
(210,714.391,o),
(214.214,704.217,o),
(221.716,696.716,c),
(229.217,689.214,o),
(239.391,685,o),
(250,685,c),
(260.609,685,o),
(270.783,689.214,o),
(278.284,696.716,c),
(285.786,704.217,o),
(290,714.391,o),
(290,725,c)
);
},
{
closed = 1;
nodes = (
(290,590.609,o),
(285.786,600.783,o),
(278.284,608.284,c),
(270.783,615.786,o),
(260.609,620,o),
(250,620,c),
(239.391,620,o),
(229.217,615.786,o),
(221.716,608.284,c),
(214.214,600.783,o),
(210,590.609,o),
(210,580,c),
(210,569.391,o),
(214.214,559.217,o),
(221.716,551.716,c),
(229.217,544.214,o),
(239.391,540,o),
(250,540,c),
(260.609,540,o),
(270.783,544.214,o),
(278.284,551.716,c),
(285.786,559.217,o),
(290,569.391,o),
(290,580,c)
);
},
{
closed = 1;
nodes = (
(290,445.609,o),
(285.786,455.783,o),
(278.284,463.284,c),
(270.783,470.786,o),
(260.609,475,o),
(250,475,c),
(239.391,475,o),
(229.217,470.786,o),
(221.716,463.284,c),
(214.214,455.783,o),
(210,445.609,o),
(210,435,c),
(210,424.391,o),
(214.214,414.217,o),
(221.716,406.716,c),
(229.217,399.214,o),
(239.391,395,o),
(250,395,c),
(260.609,395,o),
(270.783,399.214,o),
(278.284,406.716,c),
(285.786,414.217,o),
(290,424.391,o),
(290,435,c)
);
},
{
closed = 1;
nodes = (
(290,300.609,o),
(285.786,310.783,o),
(278.284,318.284,c),
(270.783,325.786,o),
(260.609,330,o),
(250,330,c),
(239.391,330,o),
(229.217,325.786,o),
(221.716,318.284,c),
(214.214,310.783,o),
(210,300.609,o),
(210,290,c),
(210,279.391,o),
(214.214,269.217,o),
(221.716,261.716,c),
(229.217,254.214,o),
(239.391,250,o),
(250,250,c),
(260.609,250,o),
(270.783,254.214,o),
(278.284,261.716,c),
(285.786,269.217,o),
(290,279.391,o),
(290,290,c)
);
},
{
closed = 1;
nodes = (
(290,155.609,o),
(285.786,165.783,o),
(278.284,173.284,c),
(270.783,180.786,o),
(260.609,185,o),
(250,185,c),
(239.391,185,o),
(229.217,180.786,o),
(221.716,173.284,c),
(214.214,165.783,o),
(210,155.609,o),
(210,145,c),
(210,134.391,o),
(214.214,124.217,o),
(221.716,116.716,c),
(229.217,109.214,o),
(239.391,105,o),
(250,105,c),
(260.609,105,o),
(270.783,109.214,o),
(278.284,116.716,c),
(285.786,124.217,o),
(290,134.391,o),
(290,145,c)
);
},
{
closed = 1;
nodes = (
(1750,1572.275,o),
(1745.786,1582.449,o),
(1738.284,1589.951,c),
(1730.783,1597.452,o),
(1720.609,1601.667,o),
(1710,1601.667,c),
(1699.391,1601.667,o),
(1689.217,1597.452,o),
(1681.716,1589.951,c),
(1674.214,1582.449,o),
(1670,1572.275,o),
(1670,1561.667,c),
(1670,1551.058,o),
(1674.214,1540.884,o),
(1681.716,1533.383,c),
(1689.217,1525.881,o),
(1699.391,1521.667,o),
(1710,1521.667,c),
(1720.609,1521.667,o),
(1730.783,1525.881,o),
(1738.284,1533.383,c),
(1745.786,1540.884,o),
(1750,1551.058,o),
(1750,1561.667,c)
);
},
{
closed = 1;
nodes = (
(1750,1433.942,o),
(1745.786,1444.116,o),
(1738.284,1451.617,c),
(1730.783,1459.119,o),
(1720.609,1463.333,o),
(1710,1463.333,c),
(1699.391,1463.333,o),
(1689.217,1459.119,o),
(1681.716,1451.617,c),
(1674.214,1444.116,o),
(1670,1433.942,o),
(1670,1423.333,c),
(1670,1412.725,o),
(1674.214,1402.551,o),
(1681.716,1395.049,c),
(1689.217,1387.548,o),
(1699.391,1383.333,o),
(1710,1383.333,c),
(1720.609,1383.333,o),
(1730.783,1387.548,o),
(1738.284,1395.049,c),
(1745.786,1402.551,o),
(1750,1412.725,o),
(1750,1423.333,c)
);
},
{
closed = 1;
nodes = (
(1750,1295.609,o),
(1745.786,1305.783,o),
(1738.284,1313.284,c),
(1730.783,1320.786,o),
(1720.609,1325,o),
(1710,1325,c),
(1699.391,1325,o),
(1689.217,1320.786,o),
(1681.716,1313.284,c),
(1674.214,1305.783,o),
(1670,1295.609,o),
(1670,1285,c),
(1670,1274.391,o),
(1674.214,1264.217,o),
(1681.716,1256.716,c),
(1689.217,1249.214,o),
(1699.391,1245,o),
(1710,1245,c),
(1720.609,1245,o),
(1730.783,1249.214,o),
(1738.284,1256.716,c),
(1745.786,1264.217,o),
(1750,1274.391,o),
(1750,1285,c)
);
},
{
closed = 1;
nodes = (
(1750,1157.275,o),
(1745.786,1167.449,o),
(1738.284,1174.951,c),
(1730.783,1182.452,o),
(1720.609,1186.667,o),
(1710,1186.667,c),
(1699.391,1186.667,o),
(1689.217,1182.452,o),
(1681.716,1174.951,c),
(1674.214,1167.449,o),
(1670,1157.275,o),
(1670,1146.667,c),
(1670,1136.058,o),
(1674.214,1125.884,o),
(1681.716,1118.383,c),
(1689.217,1110.881,o),
(1699.391,1106.667,o),
(1710,1106.667,c),
(1720.609,1106.667,o),
(1730.783,1110.881,o),
(1738.284,1118.383,c),
(1745.786,1125.884,o),
(1750,1136.058,o),
(1750,1146.667,c)
);
},
{
closed = 1;
nodes = (
(1750,1018.942,o),
(1745.786,1029.116,o),
(1738.284,1036.617,c),
(1730.783,1044.119,o),
(1720.609,1048.333,o),
(1710,1048.333,c),
(1699.391,1048.333,o),
(1689.217,1044.119,o),
(1681.716,1036.617,c),
(1674.214,1029.116,o),
(1670,1018.942,o),
(1670,1008.333,c),
(1670,997.725,o),
(1674.214,987.551,o),
(1681.716,980.049,c),
(1689.217,972.548,o),
(1699.391,968.333,o),
(1710,968.333,c),
(1720.609,968.333,o),
(1730.783,972.548,o),
(1738.284,980.049,c),
(1745.786,987.551,o),
(1750,997.725,o),
(1750,1008.333,c)
);
},
{
closed = 1;
nodes = (
(1750,735.609,o),
(1745.786,745.783,o),
(1738.284,753.284,c),
(1730.783,760.786,o),
(1720.609,765,o),
(1710,765,c),
(1699.391,765,o),
(1689.217,760.786,o),
(1681.716,753.284,c),
(1674.214,745.783,o),
(1670,735.609,o),
(1670,725,c),
(1670,714.391,o),
(1674.214,704.217,o),
(1681.716,696.716,c),
(1689.217,689.214,o),
(1699.391,685,o),
(1710,685,c),
(1720.609,685,o),
(1730.783,689.214,o),
(1738.284,696.716,c),
(1745.786,704.217,o),
(1750,714.391,o),
(1750,725,c)
);
},
{
closed = 1;
nodes = (
(1750,590.609,o),
(1745.786,600.783,o),
(1738.284,608.284,c),
(1730.783,615.786,o),
(1720.609,620,o),
(1710,620,c),
(1699.391,620,o),
(1689.217,615.786,o),
(1681.716,608.284,c),
(1674.214,600.783,o),
(1670,590.609,o),
(1670,580,c),
(1670,569.391,o),
(1674.214,559.217,o),
(1681.716,551.716,c),
(1689.217,544.214,o),
(1699.391,540,o),
(1710,540,c),
(1720.609,540,o),
(1730.783,544.214,o),
(1738.284,551.716,c),
(1745.786,559.217,o),
(1750,569.391,o),
(1750,580,c)
);
},
{
closed = 1;
nodes = (
(1750,445.609,o),
(1745.786,455.783,o),
(1738.284,463.284,c),
(1730.783,470.786,o),
(1720.609,475,o),
(1710,475,c),
(1699.391,475,o),
(1689.217,470.786,o),
(1681.716,463.284,c),
(1674.214,455.783,o),
(1670,445.609,o),
(1670,435,c),
(1670,424.391,o),
(1674.214,414.217,o),
(1681.716,406.716,c),
(1689.217,399.214,o),
(1699.391,395,o),
(1710,395,c),
(1720.609,395,o),
(1730.783,399.214,o),
(1738.284,406.716,c),
(1745.786,414.217,o),
(1750,424.391,o),
(1750,435,c)
);
},
{
closed = 1;
nodes = (
(1750,300.609,o),
(1745.786,310.783,o),
(1738.284,318.284,c),
(1730.783,325.786,o),
(1720.609,330,o),
(1710,330,c),
(1699.391,330,o),
(1689.217,325.786,o),
(1681.716,318.284,c),
(1674.214,310.783,o),
(1670,300.609,o),
(1670,290,c),
(1670,279.391,o),
(1674.214,269.217,o),
(1681.716,261.716,c),
(1689.217,254.214,o),
(1699.391,250,o),
(1710,250,c),
(1720.609,250,o),
(1730.783,254.214,o),
(1738.284,261.716,c),
(1745.786,269.217,o),
(1750,279.391,o),
(1750,290,c)
);
},
{
closed = 1;
nodes = (
(1750,155.609,o),
(1745.786,165.783,o),
(1738.284,173.284,c),
(1730.783,180.786,o),
(1720.609,185,o),
(1710,185,c),
(1699.391,185,o),
(1689.217,180.786,o),
(1681.716,173.284,c),
(1674.214,165.783,o),
(1670,155.609,o),
(1670,145,c),
(1670,134.391,o),
(1674.214,124.217,o),
(1681.716,116.716,c),
(1689.217,109.214,o),
(1699.391,105,o),
(1710,105,c),
(1720.609,105,o),
(1730.783,109.214,o),
(1738.284,116.716,c),
(1745.786,124.217,o),
(1750,134.391,o),
(1750,145,c)
);
},
{
closed = 1;
nodes = (
(394.286,1467.751,o),
(390.071,1477.926,o),
(382.57,1485.427,c),
(375.069,1492.929,o),
(364.894,1497.143,o),
(354.286,1497.143,c),
(343.677,1497.143,o),
(333.503,1492.929,o),
(326.002,1485.427,c),
(318.5,1477.926,o),
(314.286,1467.751,o),
(314.286,1457.143,c),
(314.286,1446.534,o),
(318.5,1436.36,o),
(326.002,1428.859,c),
(333.503,1421.357,o),
(343.677,1417.143,o),
(354.286,1417.143,c),
(364.894,1417.143,o),
(375.069,1421.357,o),
(382.57,1428.859,c),
(390.071,1436.36,o),
(394.286,1446.534,o),
(394.286,1457.143,c)
);
},
{
closed = 1;
nodes = (
(446.429,1346.323,o),
(442.214,1356.497,o),
(434.713,1363.998,c),
(427.211,1371.5,o),
(417.037,1375.714,o),
(406.429,1375.714,c),
(395.82,1375.714,o),
(385.646,1371.5,o),
(378.145,1363.998,c),
(370.643,1356.497,o),
(366.429,1346.323,o),
(366.429,1335.714,c),
(366.429,1325.106,o),
(370.643,1314.931,o),
(378.145,1307.43,c),
(385.646,1299.929,o),
(395.82,1295.714,o),
(406.429,1295.714,c),
(417.037,1295.714,o),
(427.211,1299.929,o),
(434.713,1307.43,c),
(442.214,1314.931,o),
(446.429,1325.106,o),
(446.429,1335.714,c)
);
},
{
closed = 1;
nodes = (
(498.571,1224.894,o),
(494.357,1235.069,o),
(486.855,1242.57,c),
(479.354,1250.071,o),
(469.18,1254.286,o),
(458.571,1254.286,c),
(447.963,1254.286,o),
(437.789,1250.071,o),
(430.287,1242.57,c),
(422.786,1235.069,o),
(418.571,1224.894,o),
(418.571,1214.286,c),
(418.571,1203.677,o),
(422.786,1193.503,o),
(430.287,1186.002,c),
(437.789,1178.5,o),
(447.963,1174.286,o),
(458.571,1174.286,c),
(469.18,1174.286,o),
(479.354,1178.5,o),
(486.855,1186.002,c),
(494.357,1193.503,o),
(498.571,1203.677,o),
(498.571,1214.286,c)
);
},
{
closed = 1;
nodes = (
(550.714,1103.466,o),
(546.5,1113.64,o),
(538.998,1121.141,c),
(531.497,1128.643,o),
(521.323,1132.857,o),
(510.714,1132.857,c),
(500.106,1132.857,o),
(489.931,1128.643,o),
(482.43,1121.141,c),
(474.929,1113.64,o),
(470.714,1103.466,o),
(470.714,1092.857,c),
(470.714,1082.249,o),
(474.929,1072.074,o),
(482.43,1064.573,c),
(489.931,1057.071,o),
(500.106,1052.857,o),
(510.714,1052.857,c),
(521.323,1052.857,o),
(531.497,1057.071,o),
(538.998,1064.573,c),
(546.5,1072.074,o),
(550.714,1082.249,o),
(550.714,1092.857,c)
);
},
{
closed = 1;
nodes = (
(602.857,982.037,o),
(598.643,992.211,o),
(591.141,999.713,c),
(583.64,1007.214,o),
(573.466,1011.429,o),
(562.857,1011.429,c),
(552.249,1011.429,o),
(542.074,1007.214,o),
(534.573,999.713,c),
(527.071,992.211,o),
(522.857,982.037,o),
(522.857,971.429,c),
(522.857,960.82,o),
(527.071,950.646,o),
(534.573,943.145,c),
(542.074,935.643,o),
(552.249,931.429,o),
(562.857,931.429,c),
(573.466,931.429,o),
(583.64,935.643,o),
(591.141,943.145,c),
(598.643,950.646,o),
(602.857,960.82,o),
(602.857,971.429,c)
);
},
{
closed = 1;
nodes = (
(655,860.609,o),
(650.786,870.783,o),
(643.284,878.284,c),
(635.783,885.786,o),
(625.609,890,o),
(615,890,c),
(604.391,890,o),
(594.217,885.786,o),
(586.716,878.284,c),
(579.214,870.783,o),
(575,860.609,o),
(575,850,c),
(575,839.391,o),
(579.214,829.217,o),
(586.716,821.716,c),
(594.217,814.214,o),
(604.391,810,o),
(615,810,c),
(625.609,810,o),
(635.783,814.214,o),
(643.284,821.716,c),
(650.786,829.217,o),
(655,839.391,o),
(655,850,c)
);
},
{
closed = 1;
nodes = (
(707.143,739.18,o),
(702.929,749.354,o),
(695.427,756.855,c),
(687.926,764.357,o),
(677.751,768.571,o),
(667.143,768.571,c),
(656.534,768.571,o),
(646.36,764.357,o),
(638.859,756.855,c),
(631.357,749.354,o),
(627.143,739.18,o),
(627.143,728.571,c),
(627.143,717.963,o),
(631.357,707.789,o),
(638.859,700.287,c),
(646.36,692.786,o),
(656.534,688.571,o),
(667.143,688.571,c),
(677.751,688.571,o),
(687.926,692.786,o),
(695.427,700.287,c),
(702.929,707.789,o),
(707.143,717.963,o),
(707.143,728.571,c)
);
},
{
closed = 1;
nodes = (
(759.286,617.751,o),
(755.071,627.926,o),
(747.57,635.427,c),
(740.069,642.929,o),
(729.894,647.143,o),
(719.286,647.143,c),
(708.677,647.143,o),
(698.503,642.929,o),
(691.002,635.427,c),
(683.5,627.926,o),
(679.286,617.751,o),
(679.286,607.143,c),
(679.286,596.534,o),
(683.5,586.36,o),
(691.002,578.859,c),
(698.503,571.357,o),
(708.677,567.143,o),
(719.286,567.143,c),
(729.894,567.143,o),
(740.069,571.357,o),
(747.57,578.859,c),
(755.071,586.36,o),
(759.286,596.534,o),
(759.286,607.143,c)
);
},
{
closed = 1;
nodes = (
(811.429,496.323,o),
(807.214,506.497,o),
(799.713,513.998,c),
(792.211,521.5,o),
(782.037,525.714,o),
(771.429,525.714,c),
(760.82,525.714,o),
(750.646,521.5,o),
(743.145,513.998,c),
(735.643,506.497,o),
(731.429,496.323,o),
(731.429,485.714,c),
(731.429,475.106,o),
(735.643,464.931,o),
(743.145,457.43,c),
(750.646,449.929,o),
(760.82,445.714,o),
(771.429,445.714,c),
(782.037,445.714,o),
(792.211,449.929,o),
(799.713,457.43,c),
(807.214,464.931,o),
(811.429,475.106,o),
(811.429,485.714,c)
);
},
{
closed = 1;
nodes = (
(863.571,374.894,o),
(859.357,385.069,o),
(851.855,392.57,c),
(844.354,400.071,o),
(834.18,404.286,o),
(823.571,404.286,c),
(812.963,404.286,o),
(802.789,400.071,o),
(795.287,392.57,c),
(787.786,385.069,o),
(783.571,374.894,o),
(783.571,364.286,c),
(783.571,353.677,o),
(787.786,343.503,o),
(795.287,336.002,c),
(802.789,328.5,o),
(812.963,324.286,o),
(823.571,324.286,c),
(834.18,324.286,o),
(844.354,328.5,o),
(851.855,336.002,c),
(859.357,343.503,o),
(863.571,353.677,o),
(863.571,364.286,c)
);
},
{
closed = 1;
nodes = (
(915.714,253.466,o),
(911.5,263.64,o),
(903.998,271.141,c),
(896.497,278.643,o),
(886.323,282.857,o),
(875.714,282.857,c),
(865.106,282.857,o),
(854.931,278.643,o),
(847.43,271.141,c),
(839.929,263.64,o),
(835.714,253.466,o),
(835.714,242.857,c),
(835.714,232.249,o),
(839.929,222.074,o),
(847.43,214.573,c),
(854.931,207.071,o),
(865.106,202.857,o),
(875.714,202.857,c),
(886.323,202.857,o),
(896.497,207.071,o),
(903.998,214.573,c),
(911.5,222.074,o),
(915.714,232.249,o),
(915.714,242.857,c)
);
},
{
closed = 1;
nodes = (
(967.857,132.037,o),
(963.643,142.211,o),
(956.141,149.713,c),
(948.64,157.214,o),
(938.466,161.429,o),
(927.857,161.429,c),
(917.249,161.429,o),
(907.074,157.214,o),
(899.573,149.713,c),
(892.071,142.211,o),
(887.857,132.037,o),
(887.857,121.429,c),
(887.857,110.82,o),
(892.071,100.646,o),
(899.573,93.145,c),
(907.074,85.643,o),
(917.249,81.429,o),
(927.857,81.429,c),
(938.466,81.429,o),
(948.64,85.643,o),
(956.141,93.145,c),
(963.643,100.646,o),
(967.857,110.82,o),
(967.857,121.429,c)
);
},
{
closed = 1;
nodes = (
(1072.143,132.323,o),
(1067.929,142.497,o),
(1060.427,149.998,c),
(1052.926,157.5,o),
(1042.751,161.714,o),
(1032.143,161.714,c),
(1021.534,161.714,o),
(1011.36,157.5,o),
(1003.859,149.998,c),
(996.357,142.497,o),
(992.143,132.323,o),
(992.143,121.714,c),
(992.143,111.106,o),
(996.357,100.931,o),
(1003.859,93.43,c),
(1011.36,85.929,o),
(1021.534,81.714,o),
(1032.143,81.714,c),
(1042.751,81.714,o),
(1052.926,85.929,o),
(1060.427,93.43,c),
(1067.929,100.931,o),
(1072.143,111.106,o),
(1072.143,121.714,c)
);
},
{
closed = 1;
nodes = (
(1124.286,254.037,o),
(1120.071,264.211,o),
(1112.57,271.713,c),
(1105.069,279.214,o),
(1094.894,283.429,o),
(1084.286,283.429,c),
(1073.677,283.429,o),
(1063.503,279.214,o),
(1056.002,271.713,c),
(1048.5,264.211,o),
(1044.286,254.037,o),
(1044.286,243.429,c),
(1044.286,232.82,o),
(1048.5,222.646,o),
(1056.002,215.145,c),
(1063.503,207.643,o),
(1073.677,203.429,o),
(1084.286,203.429,c),
(1094.894,203.429,o),
(1105.069,207.643,o),
(1112.57,215.145,c),
(1120.071,222.646,o),
(1124.286,232.82,o),
(1124.286,243.429,c)
);
},
{
closed = 1;
nodes = (
(1176.429,375.751,o),
(1172.214,385.926,o),
(1164.713,393.427,c),
(1157.211,400.929,o),
(1147.037,405.143,o),
(1136.429,405.143,c),
(1125.82,405.143,o),
(1115.646,400.929,o),
(1108.145,393.427,c),
(1100.643,385.926,o),
(1096.429,375.751,o),
(1096.429,365.143,c),
(1096.429,354.534,o),
(1100.643,344.36,o),
(1108.145,336.859,c),
(1115.646,329.357,o),
(1125.82,325.143,o),
(1136.429,325.143,c),
(1147.037,325.143,o),
(1157.211,329.357,o),
(1164.713,336.859,c),
(1172.214,344.36,o),
(1176.429,354.534,o),
(1176.429,365.143,c)
);
},
{
closed = 1;
nodes = (
(1228.571,497.466,o),
(1224.357,507.64,o),
(1216.855,515.141,c),
(1209.354,522.643,o),
(1199.18,526.857,o),
(1188.571,526.857,c),
(1177.963,526.857,o),
(1167.789,522.643,o),
(1160.287,515.141,c),
(1152.786,507.64,o),
(1148.571,497.466,o),
(1148.571,486.857,c),
(1148.571,476.249,o),
(1152.786,466.074,o),
(1160.287,458.573,c),
(1167.789,451.071,o),
(1177.963,446.857,o),
(1188.571,446.857,c),
(1199.18,446.857,o),
(1209.354,451.071,o),
(1216.855,458.573,c),
(1224.357,466.074,o),
(1228.571,476.249,o),
(1228.571,486.857,c)
);
},
{
closed = 1;
nodes = (
(1280.714,619.18,o),
(1276.5,629.354,o),
(1268.998,636.855,c),
(1261.497,644.357,o),
(1251.323,648.571,o),
(1240.714,648.571,c),
(1230.106,648.571,o),
(1219.931,644.357,o),
(1212.43,636.855,c),
(1204.929,629.354,o),
(1200.714,619.18,o),
(1200.714,608.571,c),
(1200.714,597.963,o),
(1204.929,587.789,o),
(1212.43,580.287,c),
(1219.931,572.786,o),
(1230.106,568.571,o),
(1240.714,568.571,c),
(1251.323,568.571,o),
(1261.497,572.786,o),
(1268.998,580.287,c),
(1276.5,587.789,o),
(1280.714,597.963,o),
(1280.714,608.571,c)
);
},
{
closed = 1;
nodes = (
(1332.857,740.894,o),
(1328.643,751.069,o),
(1321.141,758.57,c),
(1313.64,766.071,o),
(1303.466,770.286,o),
(1292.857,770.286,c),
(1282.249,770.286,o),
(1272.074,766.071,o),
(1264.573,758.57,c),
(1257.071,751.069,o),
(1252.857,740.894,o),
(1252.857,730.286,c),
(1252.857,719.677,o),
(1257.071,709.503,o),
(1264.573,702.002,c),
(1272.074,694.5,o),
(1282.249,690.286,o),
(1292.857,690.286,c),
(1303.466,690.286,o),
(1313.64,694.5,o),
(1321.141,702.002,c),
(1328.643,709.503,o),
(1332.857,719.677,o),
(1332.857,730.286,c)
);
},
{
closed = 1;
nodes = (
(1385,862.609,o),
(1380.786,872.783,o),
(1373.284,880.284,c),
(1365.783,887.786,o),
(1355.609,892,o),
(1345,892,c),
(1334.391,892,o),
(1324.217,887.786,o),
(1316.716,880.284,c),
(1309.214,872.783,o),
(1305,862.609,o),
(1305,852,c),
(1305,841.391,o),
(1309.214,831.217,o),
(1316.716,823.716,c),
(1324.217,816.214,o),
(1334.391,812,o),
(1345,812,c),
(1355.609,812,o),
(1365.783,816.214,o),
(1373.284,823.716,c),
(1380.786,831.217,o),
(1385,841.391,o),
(1385,852,c)
);
},
{
closed = 1;
nodes = (
(1437.143,984.323,o),
(1432.929,994.497,o),
(1425.427,1001.998,c),
(1417.926,1009.5,o),
(1407.751,1013.714,o),
(1397.143,1013.714,c),
(1386.534,1013.714,o),
(1376.36,1009.5,o),
(1368.859,1001.998,c),
(1361.357,994.497,o),
(1357.143,984.323,o),
(1357.143,973.714,c),
(1357.143,963.106,o),
(1361.357,952.931,o),
(1368.859,945.43,c),
(1376.36,937.929,o),
(1386.534,933.714,o),
(1397.143,933.714,c),
(1407.751,933.714,o),
(1417.926,937.929,o),
(1425.427,945.43,c),
(1432.929,952.931,o),
(1437.143,963.106,o),
(1437.143,973.714,c)
);
},
{
closed = 1;
nodes = (
(1489.286,1106.037,o),
(1485.071,1116.211,o),
(1477.57,1123.713,c),
(1470.069,1131.214,o),
(1459.894,1135.429,o),
(1449.286,1135.429,c),
(1438.677,1135.429,o),
(1428.503,1131.214,o),
(1421.002,1123.713,c),
(1413.5,1116.211,o),
(1409.286,1106.037,o),
(1409.286,1095.429,c),
(1409.286,1084.82,o),
(1413.5,1074.646,o),
(1421.002,1067.145,c),
(1428.503,1059.643,o),
(1438.677,1055.429,o),
(1449.286,1055.429,c),
(1459.894,1055.429,o),
(1470.069,1059.643,o),
(1477.57,1067.145,c),
(1485.071,1074.646,o),
(1489.286,1084.82,o),
(1489.286,1095.429,c)
);
},
{
closed = 1;
nodes = (
(1541.429,1227.751,o),
(1537.214,1237.926,o),
(1529.713,1245.427,c),
(1522.211,1252.929,o),
(1512.037,1257.143,o),
(1501.429,1257.143,c),
(1490.82,1257.143,o),
(1480.646,1252.929,o),
(1473.145,1245.427,c),
(1465.643,1237.926,o),
(1461.429,1227.751,o),
(1461.429,1217.143,c),
(1461.429,1206.534,o),
(1465.643,1196.36,o),
(1473.145,1188.859,c),
(1480.646,1181.357,o),
(1490.82,1177.143,o),
(1501.429,1177.143,c),
(1512.037,1177.143,o),
(1522.211,1181.357,o),
(1529.713,1188.859,c),
(1537.214,1196.36,o),
(1541.429,1206.534,o),
(1541.429,1217.143,c)
);
},
{
closed = 1;
nodes = (
(1593.571,1349.466,o),
(1589.357,1359.64,o),
(1581.855,1367.141,c),
(1574.354,1374.643,o),
(1564.18,1378.857,o),
(1553.571,1378.857,c),
(1542.963,1378.857,o),
(1532.789,1374.643,o),
(1525.287,1367.141,c),
(1517.786,1359.64,o),
(1513.571,1349.466,o),
(1513.571,1338.857,c),
(1513.571,1328.249,o),
(1517.786,1318.074,o),
(1525.287,1310.573,c),
(1532.789,1303.071,o),
(1542.963,1298.857,o),
(1553.571,1298.857,c),
(1564.18,1298.857,o),
(1574.354,1303.071,o),
(1581.855,1310.573,c),
(1589.357,1318.074,o),
(1593.571,1328.249,o),
(1593.571,1338.857,c)
);
},
{
closed = 1;
nodes = (
(1645.714,1471.18,o),
(1641.5,1481.354,o),
(1633.998,1488.855,c),
(1626.497,1496.357,o),
(1616.323,1500.571,o),
(1605.714,1500.571,c),
(1595.106,1500.571,o),
(1584.931,1496.357,o),
(1577.43,1488.855,c),
(1569.929,1481.354,o),
(1565.714,1471.18,o),
(1565.714,1460.571,c),
(1565.714,1449.963,o),
(1569.929,1439.789,o),
(1577.43,1432.287,c),
(1584.931,1424.786,o),
(1595.106,1420.571,o),
(1605.714,1420.571,c),
(1616.323,1420.571,o),
(1626.497,1424.786,o),
(1633.998,1432.287,c),
(1641.5,1439.789,o),
(1645.714,1449.963,o),
(1645.714,1460.571,c)
);
}
);
width = 1960;
},
{
layerId = "5BD49938-778C-46FB-8B52-6AA10854A152";
width = 600;
}
);
unicode = 77;
}
{
glyphname = O;
layers = (
{
anchors = (
{
name = bottom;
pos = (760,-100);
},
{
name = center;
pos = (760,870);
},
{
name = ogonek;
pos = (1340,-100);
},
{
name = top;
pos = (760,1770);
},
{
name = topright;
pos = (1340,1700);
}
);
layerId = m01;
shapes = (
{
closed = 0;
nodes = (
(762,1700,l),
(437,1700,o),
(180,1420,o),
(180,870,cs,{
co.uk.corvelsoftware.Dotter = {
forced = 1;
};
}),
(180,310,o),
(435,0,o),
(760,0,cs,{
co.uk.corvelsoftware.Dotter = {
forced = 1;
};
}),
(1085,0,o),
(1340,310,o),
(1340,870,cs,{
co.uk.corvelsoftware.Dotter = {
forced = 1;
};
}),
(1340,1420,o),
(1086,1700,o),
(761,1700,cs)
);
}
);
width = 1520;
},
{
layerId = "FDE4885D-BB7A-448A-91AC-7911E70BCCB6";
shapes = (
{
pos = (762,1700);
ref = _dot;
},
{
pos = (180,870);
ref = _dot;
},
{
pos = (760,0);
ref = _dot;
},
{
pos = (1340,870);
ref = _dot;
},
{
pos = (637.015,1685.304);
ref = _dot;
},
{
pos = (519.597,1640.169);
ref = _dot;
},
{
pos = (417.372,1566.818);
ref = _dot;
},
{
pos = (334.934,1471.665);
ref = _dot;
},
{
pos = (272.744,1362.108);
ref = _dot;
},
{
pos = (228.774,1243.987);
ref = _dot;
},
{
pos = (200.336,1121.159);
ref = _dot;
},
{
pos = (184.78,996.024);
ref = _dot;
},
{
pos = (184.788,740.623);
ref = _dot;
},
{
pos = (200.247,612.097);
ref = _dot;
},
{
pos = (228.249,485.73);
ref = _dot;
},
{
pos = (271.185,363.66);
ref = _dot;
},
{
pos = (331.703,249.344);
ref = _dot;
},
{
pos = (412.222,148.223);
ref = _dot;
},
{
pos = (513.438,67.994);
ref = _dot;
},
{
pos = (632.019,17);
ref = _dot;
},
{
pos = (887.981,17.001);
ref = _dot;
},
{
pos = (1006.564,67.995);
ref = _dot;
},
{
pos = (1107.78,148.225);
ref = _dot;
},
{
pos = (1188.299,249.346);
ref = _dot;
},
{
pos = (1248.816,363.662);
ref = _dot;
},
{
pos = (1291.751,485.731);
ref = _dot;
},
{
pos = (1319.752,612.096);
ref = _dot;
},
{
pos = (1335.212,740.619);
ref = _dot;
},
{
pos = (1335.288,995.833);
ref = _dot;
},
{
pos = (1319.945,1120.802);
ref = _dot;
},
{
pos = (1291.864,1243.513);
ref = _dot;
},
{
pos = (1248.385,1361.609);
ref = _dot;
},
{
pos = (1186.745,1471.254);
ref = _dot;
},
{
pos = (1104.822,1566.592);
ref = _dot;
},
{
pos = (1002.968,1640.119);
ref = _dot;
},
{
pos = (885.79,1685.317);
ref = _dot;
}
);
width = 1520;
},
{
anchors = (
{
name = bottom;
pos = (760,-100);
},
{
name = center;
pos = (760,870);
},
{
name = ogonek;
pos = (1340,-100);
},
{
name = top;
pos = (760,1770);
},
{
name = topright;
pos = (1340,1700);
}
);
layerId = "88FD4E68-2D1A-46CE-87AD-7FBA89BDFB80";
shapes = (
{
closed = 0;
nodes = (
(762,1700,l),
(437,1700,o),
(180,1420,o),
(180,870,cs,{
co.uk.corvelsoftware.Dotter = {
forced = "1";
};
}),
(180,310,o),
(435,0,o),
(760,0,cs,{
co.uk.corvelsoftware.Dotter = {
forced = "1";
};
}),
(1085,0,o),
(1340,310,o),
(1340,870,cs,{
co.uk.corvelsoftware.Dotter = {
forced = "1";
};
}),
(1340,1420,o),
(1086,1700,o),
(761,1700,cs)
);
}
);
width = 1520;
},
{
associatedMasterId = m01;
layerId = "BF090F5B-9F2C-46D5-8EE9-7035FD51A4A2";
name = "Pendot Quick Preview";
shapes = (
{
closed = 1;
nodes = (
(819,1715.117,o),
(812.995,1729.615,o),
(802.305,1740.305,c),
(791.615,1750.995,o),
(777.117,1757,o),
(762,1757,c),
(746.883,1757,o),
(732.385,1750.995,o),
(721.695,1740.305,c),
(711.005,1729.615,o),
(705,1715.117,o),
(705,1700,c),
(705,1684.883,o),
(711.005,1670.385,o),
(721.695,1659.695,c),
(732.385,1649.005,o),
(746.883,1643,o),
(762,1643,c),
(777.117,1643,o),
(791.615,1649.005,o),
(802.305,1659.695,c),
(812.995,1670.385,o),
(819,1684.883,o),
(819,1700,c)
);
},
{
closed = 1;
nodes = (
(237,885.117,o),
(230.995,899.615,o),
(220.305,910.305,c),
(209.615,920.995,o),
(195.117,927,o),
(180,927,c),
(164.883,927,o),
(150.385,920.995,o),
(139.695,910.305,c),
(129.005,899.615,o),
(123,885.117,o),
(123,870,c),
(123,854.883,o),
(129.005,840.385,o),
(139.695,829.695,c),
(150.385,819.005,o),
(164.883,813,o),
(180,813,c),
(195.117,813,o),
(209.615,819.005,o),
(220.305,829.695,c),
(230.995,840.385,o),
(237,854.883,o),
(237,870,c)
);
},
{
closed = 1;
nodes = (
(817,15.117,o),
(810.995,29.615,o),
(800.305,40.305,c),
(789.615,50.995,o),
(775.117,57,o),
(760,57,c),
(744.883,57,o),
(730.385,50.995,o),
(719.695,40.305,c),
(709.005,29.615,o),
(703,15.117,o),
(703,0,c),
(703,-15.117,o),
(709.005,-29.615,o),
(719.695,-40.305,c),
(730.385,-50.995,o),
(744.883,-57,o),
(760,-57,c),
(775.117,-57,o),
(789.615,-50.995,o),
(800.305,-40.305,c),
(810.995,-29.615,o),
(817,-15.117,o),
(817,0,c)
);
},
{
closed = 1;
nodes = (
(1397,885.117,o),
(1390.995,899.615,o),
(1380.305,910.305,c),
(1369.615,920.995,o),
(1355.117,927,o),
(1340,927,c),
(1324.883,927,o),
(1310.385,920.995,o),
(1299.695,910.305,c),
(1289.005,899.615,o),
(1283,885.117,o),
(1283,870,c),
(1283,854.883,o),
(1289.005,840.385,o),
(1299.695,829.695,c),
(1310.385,819.005,o),
(1324.883,813,o),
(1340,813,c),
(1355.117,813,o),
(1369.615,819.005,o),
(1380.305,829.695,c),
(1390.995,840.385,o),
(1397,854.883,o),
(1397,870,c)
);
},
{
closed = 1;
nodes = (
(633.842,1681.661,o),
(627.837,1696.159,o),
(617.147,1706.848,c),
(606.458,1717.538,o),
(591.959,1723.544,o),
(576.842,1723.544,c),
(561.725,1723.544,o),
(547.227,1717.538,o),
(536.537,1706.848,c),
(525.847,1696.159,o),
(519.842,1681.661,o),
(519.842,1666.544,c),
(519.842,1651.426,o),
(525.847,1636.928,o),
(536.537,1626.239,c),
(547.227,1615.549,o),
(561.725,1609.544,o),
(576.842,1609.544,c),
(591.959,1609.544,o),
(606.458,1615.549,o),
(617.147,1626.239,c),
(627.837,1636.928,o),
(633.842,1651.426,o),
(633.842,1666.544,c)
);
},
{
closed = 1;
nodes = (
(474.372,1581.935,o),
(468.367,1596.433,o),
(457.677,1607.123,c),
(446.988,1617.813,o),
(432.49,1623.818,o),
(417.372,1623.818,c),
(402.255,1623.818,o),
(387.757,1617.813,o),
(377.068,1607.123,c),
(366.378,1596.433,o),
(360.372,1581.935,o),
(360.372,1566.818,c),
(360.372,1551.701,o),
(366.378,1537.203,o),
(377.068,1526.513,c),
(387.757,1515.823,o),
(402.255,1509.818,o),
(417.372,1509.818,c),
(432.49,1509.818,o),
(446.988,1515.823,o),
(457.677,1526.513,c),
(468.367,1537.203,o),
(474.372,1551.701,o),
(474.372,1566.818,c)
);
},
{
closed = 1;
nodes = (
(358.391,1433.397,o),
(352.385,1447.895,o),
(341.695,1458.584,c),
(331.006,1469.274,o),
(316.508,1475.279,o),
(301.391,1475.279,c),
(286.273,1475.279,o),
(271.775,1469.274,o),
(261.086,1458.584,c),
(250.396,1447.895,o),
(244.391,1433.397,o),
(244.391,1418.279,c),
(244.391,1403.162,o),
(250.396,1388.664,o),
(261.086,1377.975,c),
(271.775,1367.285,o),
(286.273,1361.279,o),
(301.391,1361.279,c),
(316.508,1361.279,o),
(331.006,1367.285,o),
(341.695,1377.975,c),
(352.385,1388.664,o),
(358.391,1403.162,o),
(358.391,1418.279,c)
);
},
{
closed = 1;
nodes = (
(285.774,1259.104,o),
(279.769,1273.602,o),
(269.079,1284.292,c),
(258.39,1294.982,o),
(243.892,1300.987,o),
(228.774,1300.987,c),
(213.657,1300.987,o),
(199.159,1294.982,o),
(188.47,1284.292,c),
(177.78,1273.602,o),
(171.774,1259.104,o),
(171.774,1243.987,c),
(171.774,1228.87,o),
(177.78,1214.371,o),
(188.47,1203.682,c),
(199.159,1192.992,o),
(213.657,1186.987,o),
(228.774,1186.987,c),
(243.892,1186.987,o),
(258.39,1192.992,o),
(269.079,1203.682,c),
(279.769,1214.371,o),
(285.774,1228.87,o),
(285.774,1243.987,c)
);
},
{
closed = 1;
nodes = (
(248.088,1073.892,o),
(242.083,1088.39,o),
(231.393,1099.08,c),
(220.703,1109.77,o),
(206.205,1115.775,o),
(191.088,1115.775,c),
(175.971,1115.775,o),
(161.472,1109.77,o),
(150.783,1099.08,c),
(140.093,1088.39,o),
(134.088,1073.892,o),
(134.088,1058.775,c),
(134.088,1043.658,o),
(140.093,1029.159,o),
(150.783,1018.47,c),
(161.472,1007.78,o),
(175.971,1001.775,o),
(191.088,1001.775,c),
(206.205,1001.775,o),
(220.703,1007.78,o),
(231.393,1018.47,c),
(242.083,1029.159,o),
(248.088,1043.658,o),
(248.088,1058.775,c)
);
},
{
closed = 1;
nodes = (
(245.053,718.887,o),
(239.048,733.385,o),
(228.358,744.074,c),
(217.669,754.764,o),
(203.171,760.769,o),
(188.053,760.769,c),
(172.936,760.769,o),
(158.438,754.764,o),
(147.749,744.074,c),
(137.059,733.385,o),
(131.053,718.887,o),
(131.053,703.769,c),
(131.053,688.652,o),
(137.059,674.154,o),
(147.749,663.465,c),
(158.438,652.775,o),
(172.936,646.769,o),
(188.053,646.769,c),
(203.171,646.769,o),
(217.669,652.775,o),
(228.358,663.465,c),
(239.048,674.154,o),
(245.053,688.652,o),
(245.053,703.769,c)
);
},
{
closed = 1;
nodes = (
(271.568,554.627,o),
(265.563,569.125,o),
(254.873,579.814,c),
(244.184,590.504,o),
(229.685,596.509,o),
(214.568,596.509,c),
(199.451,596.509,o),
(184.953,590.504,o),
(174.263,579.814,c),
(163.574,569.125,o),
(157.568,554.627,o),
(157.568,539.509,c),
(157.568,524.392,o),
(163.574,509.894,o),
(174.263,499.205,c),
(184.953,488.515,o),
(199.451,482.509,o),
(214.568,482.509,c),
(229.685,482.509,o),
(244.184,488.515,o),
(254.873,499.205,c),
(265.563,509.894,o),
(271.568,524.392,o),
(271.568,539.509,c)
);
},
{
closed = 1;
nodes = (
(321.049,395.844,o),
(315.043,410.342,o),
(304.353,421.032,c),
(293.664,431.721,o),
(279.166,437.727,o),
(264.049,437.727,c),
(248.931,437.727,o),
(234.433,431.721,o),
(223.744,421.032,c),
(213.054,410.342,o),
(207.049,395.844,o),
(207.049,380.727,c),
(207.049,365.61,o),
(213.054,351.111,o),
(223.744,340.422,c),
(234.433,329.732,o),
(248.931,323.727,o),
(264.049,323.727,c),
(279.166,323.727,o),
(293.664,329.732,o),
(304.353,340.422,c),
(315.043,351.111,o),
(321.049,365.61,o),
(321.049,380.727,c)
);
},
{
closed = 1;
nodes = (
(398.919,249.04,o),
(392.914,263.538,o),
(382.224,274.227,c),
(371.535,284.917,o),
(357.037,290.922,o),
(341.919,290.922,c),
(326.802,290.922,o),
(312.304,284.917,o),
(301.615,274.227,c),
(290.925,263.538,o),
(284.919,249.04,o),
(284.919,233.922,c),
(284.919,218.805,o),
(290.925,204.307,o),
(301.615,193.618,c),
(312.304,182.928,o),
(326.802,176.922,o),
(341.919,176.922,c),
(357.037,176.922,o),
(371.535,182.928,o),
(382.224,193.618,c),
(392.914,204.307,o),
(398.919,218.805,o),
(398.919,233.922,c)
);
},
{
closed = 1;
nodes = (
(510.135,125.879,o),
(504.13,140.377,o),
(493.44,151.066,c),
(482.75,161.756,o),
(468.252,167.761,o),
(453.135,167.761,c),
(438.018,167.761,o),
(423.519,161.756,o),
(412.83,151.066,c),
(402.14,140.377,o),
(396.135,125.879,o),
(396.135,110.761,c),
(396.135,95.644,o),
(402.14,81.146,o),
(412.83,70.457,c),
(423.519,59.767,o),
(438.018,53.761,o),
(453.135,53.761,c),
(468.252,53.761,o),
(482.75,59.767,o),
(493.44,70.457,c),
(504.13,81.146,o),
(510.135,95.644,o),
(510.135,110.761,c)
);
},
{
closed = 1;
nodes = (
(653.768,43.313,o),
(647.762,57.811,o),
(637.072,68.501,c),
(626.383,79.19,o),
(611.885,85.196,o),
(596.768,85.196,c),
(581.65,85.196,o),
(567.152,79.19,o),
(556.463,68.501,c),
(545.773,57.811,o),
(539.768,43.313,o),
(539.768,28.196,c),
(539.768,13.079,o),
(545.773,-1.42,o),
(556.463,-12.109,c),
(567.152,-22.799,o),
(581.65,-28.804,o),
(596.768,-28.804,c),
(611.885,-28.804,o),
(626.383,-22.799,o),
(637.072,-12.109,c),
(647.762,-1.42,o),
(653.768,13.079,o),
(653.768,28.196,c)
);
},
{
closed = 1;
nodes = (
(980.234,43.314,o),
(974.228,57.812,o),
(963.538,68.501,c),
(952.849,79.191,o),
(938.351,85.196,o),
(923.234,85.196,c),
(908.116,85.196,o),
(893.618,79.191,o),
(882.929,68.501,c),
(872.239,57.812,o),
(866.234,43.314,o),
(866.234,28.196,c),
(866.234,13.079,o),
(872.239,-1.419,o),
(882.929,-12.108,c),
(893.618,-22.798,o),
(908.116,-28.804,o),
(923.234,-28.804,c),
(938.351,-28.804,o),
(952.849,-22.798,o),
(963.538,-12.108,c),
(974.228,-1.419,o),
(980.234,13.079,o),
(980.234,28.196,c)
);
},
{
closed = 1;
nodes = (
(1123.867,125.88,o),
(1117.862,140.379,o),
(1107.172,151.068,c),
(1096.483,161.758,o),
(1081.984,167.763,o),
(1066.867,167.763,c),
(1051.75,167.763,o),
(1037.252,161.758,o),
(1026.562,151.068,c),
(1015.872,140.379,o),
(1009.867,125.88,o),
(1009.867,110.763,c),
(1009.867,95.646,o),
(1015.872,81.148,o),
(1026.562,70.458,c),
(1037.252,59.768,o),
(1051.75,53.763,o),
(1066.867,53.763,c),
(1081.984,53.763,o),
(1096.483,59.768,o),
(1107.172,70.458,c),
(1117.862,81.148,o),
(1123.867,95.646,o),
(1123.867,110.763,c)
);
},
{
closed = 1;
nodes = (
(1235.082,249.042,o),
(1229.077,263.54,o),
(1218.387,274.229,c),
(1207.698,284.919,o),
(1193.199,290.925,o),
(1178.082,290.925,c),
(1162.965,290.925,o),
(1148.467,284.919,o),
(1137.777,274.229,c),
(1127.087,263.54,o),
(1121.082,249.042,o),
(1121.082,233.925,c),
(1121.082,218.807,o),
(1127.087,204.309,o),
(1137.777,193.62,c),
(1148.467,182.93,o),
(1162.965,176.925,o),
(1178.082,176.925,c),
(1193.199,176.925,o),
(1207.698,182.93,o),
(1218.387,193.62,c),
(1229.077,204.309,o),
(1235.082,218.807,o),
(1235.082,233.925,c)
);
},
{
closed = 1;
nodes = (
(1312.952,395.846,o),
(1306.947,410.344,o),
(1296.257,421.034,c),
(1285.568,431.724,o),
(1271.069,437.729,o),
(1255.952,437.729,c),
(1240.835,437.729,o),
(1226.337,431.724,o),
(1215.647,421.034,c),
(1204.957,410.344,o),
(1198.952,395.846,o),
(1198.952,380.729,c),
(1198.952,365.612,o),
(1204.957,351.114,o),
(1215.647,340.424,c),
(1226.337,329.734,o),
(1240.835,323.729,o),
(1255.952,323.729,c),
(1271.069,323.729,o),
(1285.568,329.734,o),
(1296.257,340.424,c),
(1306.947,351.114,o),
(1312.952,365.612,o),
(1312.952,380.729,c)
);
},
{
closed = 1;
nodes = (
(1362.432,554.628,o),
(1356.427,569.126,o),
(1345.737,579.815,c),
(1335.048,590.505,o),
(1320.549,596.51,o),
(1305.432,596.51,c),
(1290.315,596.51,o),
(1275.817,590.505,o),
(1265.127,579.815,c),
(1254.437,569.126,o),
(1248.432,554.628,o),
(1248.432,539.51,c),
(1248.432,524.393,o),
(1254.437,509.895,o),
(1265.127,499.206,c),
(1275.817,488.516,o),
(1290.315,482.51,o),
(1305.432,482.51,c),
(1320.549,482.51,o),
(1335.048,488.516,o),
(1345.737,499.206,c),
(1356.427,509.895,o),
(1362.432,524.393,o),
(1362.432,539.51,c)
);
},
{
closed = 1;
nodes = (
(1388.946,718.884,o),
(1382.941,733.382,o),
(1372.251,744.071,c),
(1361.562,754.761,o),
(1347.064,760.766,o),
(1331.946,760.766,c),
(1316.829,760.766,o),
(1302.331,754.761,o),
(1291.641,744.071,c),
(1280.952,733.382,o),
(1274.946,718.884,o),
(1274.946,703.766,c),
(1274.946,688.649,o),
(1280.952,674.151,o),
(1291.641,663.462,c),
(1302.331,652.772,o),
(1316.829,646.766,o),
(1331.946,646.766,c),
(1347.064,646.766,o),
(1361.562,652.772,o),
(1372.251,663.462,c),
(1382.941,674.151,o),
(1388.946,688.649,o),
(1388.946,703.766,c)
);
},
{
closed = 1;
nodes = (
(1386.07,1073.614,o),
(1380.064,1088.112,o),
(1369.374,1098.801,c),
(1358.685,1109.491,o),
(1344.187,1115.497,o),
(1329.07,1115.497,c),
(1313.952,1115.497,o),
(1299.454,1109.491,o),
(1288.765,1098.801,c),
(1278.075,1088.112,o),
(1272.07,1073.614,o),
(1272.07,1058.497,c),
(1272.07,1043.379,o),
(1278.075,1028.881,o),
(1288.765,1018.192,c),
(1299.454,1007.502,o),
(1313.952,1001.497,o),
(1329.07,1001.497,c),
(1344.187,1001.497,o),
(1358.685,1007.502,o),
(1369.374,1018.192,c),
(1380.064,1028.881,o),
(1386.07,1043.379,o),
(1386.07,1058.497,c)
);
},
{
closed = 1;
nodes = (
(1348.864,1258.63,o),
(1342.859,1273.128,o),
(1332.169,1283.818,c),
(1321.479,1294.508,o),
(1306.981,1300.513,o),
(1291.864,1300.513,c),
(1276.747,1300.513,o),
(1262.248,1294.508,o),
(1251.559,1283.818,c),
(1240.869,1273.128,o),
(1234.864,1258.63,o),
(1234.864,1243.513,c),
(1234.864,1228.396,o),
(1240.869,1213.897,o),
(1251.559,1203.208,c),
(1262.248,1192.518,o),
(1276.747,1186.513,o),
(1291.864,1186.513,c),
(1306.981,1186.513,o),
(1321.479,1192.518,o),
(1332.169,1203.208,c),
(1342.859,1213.897,o),
(1348.864,1228.396,o),
(1348.864,1243.513,c)
);
},
{
closed = 1;
nodes = (
(1277.008,1432.925,o),
(1271.003,1447.423,o),
(1260.313,1458.112,c),
(1249.624,1468.802,o),
(1235.126,1474.808,o),
(1220.008,1474.808,c),
(1204.891,1474.808,o),
(1190.393,1468.802,o),
(1179.703,1458.112,c),
(1169.014,1447.423,o),
(1163.008,1432.925,o),
(1163.008,1417.808,c),
(1163.008,1402.69,o),
(1169.014,1388.192,o),
(1179.703,1377.503,c),
(1190.393,1366.813,o),
(1204.891,1360.808,o),
(1220.008,1360.808,c),
(1235.126,1360.808,o),
(1249.624,1366.813,o),
(1260.313,1377.503,c),
(1271.003,1388.192,o),
(1277.008,1402.69,o),
(1277.008,1417.808,c)
);
},
{
closed = 1;
nodes = (
(1161.822,1581.71,o),
(1155.817,1596.208,o),
(1145.127,1606.897,c),
(1134.438,1617.587,o),
(1119.94,1623.592,o),
(1104.822,1623.592,c),
(1089.705,1623.592,o),
(1075.207,1617.587,o),
(1064.518,1606.897,c),
(1053.828,1596.208,o),
(1047.822,1581.71,o),
(1047.822,1566.592,c),
(1047.822,1551.475,o),
(1053.828,1536.977,o),
(1064.518,1526.288,c),
(1075.207,1515.598,o),
(1089.705,1509.592,o),
(1104.822,1509.592,c),
(1119.94,1509.592,o),
(1134.438,1515.598,o),
(1145.127,1526.288,c),
(1155.817,1536.977,o),
(1161.822,1551.475,o),
(1161.822,1566.592,c)
);
},
{
closed = 1;
nodes = (
(1002.854,1681.658,o),
(996.849,1696.156,o),
(986.159,1706.845,c),
(975.47,1717.535,o),
(960.972,1723.541,o),
(945.854,1723.541,c),
(930.737,1723.541,o),
(916.239,1717.535,o),
(905.55,1706.845,c),
(894.86,1696.156,o),
(888.854,1681.658,o),
(888.854,1666.541,c),
(888.854,1651.423,o),
(894.86,1636.925,o),
(905.55,1626.236,c),
(916.239,1615.546,o),
(930.737,1609.541,o),
(945.854,1609.541,c),
(960.972,1609.541,o),
(975.47,1615.546,o),
(986.159,1626.236,c),
(996.849,1636.925,o),
(1002.854,1651.423,o),
(1002.854,1666.541,c)
);
}
);
visible = 1;
width = 1520;
},
{
anchors = (
{
name = bottom;
pos = (760,-100);
},
{
name = center;
pos = (760,870);
},
{
name = ogonek;
pos = (1340,-100);
},
{
name = top;
pos = (760,1770);
},
{
name = topright;
pos = (1340,1700);
}
);
layerId = "5BD49938-778C-46FB-8B52-6AA10854A152";
shapes = (
{
closed = 0;
nodes = (
(762,1700,l),
(437,1700,o),
(180,1420,o),
(180,870,cs,{
co.uk.corvelsoftware.Dotter = {
forced = "1";
};
}),
(180,310,o),
(435,0,o),
(760,0,cs,{
co.uk.corvelsoftware.Dotter = {
forced = "1";
};
}),
(1085,0,o),
(1340,310,o),
(1340,870,cs,{
co.uk.corvelsoftware.Dotter = {
forced = "1";
};
}),
(1340,1420,o),
(1086,1700,o),
(761,1700,cs)
);
}
);
width = 1520;
}
);
unicode = 79;
}
{
glyphname = P;
layers = (
{
anchors = (
{
name = bottom;
pos = (690,-100);
},
{
name = top;
pos = (690,1770);
}
);
layerId = m01;
shapes = (
{
ref = _c.stemLA;
},
{
closed = 0;
nodes = (
(250,1700,l),
(350,1700,o),
(590,1700,o),
(690,1700,cs),
(955,1700,o),
(1200,1590,o),
(1200,1300,cs),
(1200,1010,o),
(955,870,o),
(690,870,cs),
(590,870,o),
(350,870,o),
(250,870,c)
);
}
);
width = 1380;
},
{
layerId = "FDE4885D-BB7A-448A-91AC-7911E70BCCB6";
shapes = (
{
closed = 1;
nodes = (
(170,1753.333,o),
(170,1700,c),
(170,1423.333,o),
(170,1146.667,o),
(170,870,c),
(170,580,o),
(170,290,o),
(170,0,c),
(170,-53.333,o),
(210,-80,o),
(250,-80,c),
(290,-80,o),
(330,-53.333,o),
(330,0,c),
(330,290,o),
(330,580,o),
(330,870,c),
(330,1146.667,o),
(330,1423.333,o),
(330,1700,c),
(330,1753.333,o),
(290,1780,o),
(250,1780,c),
(210,1780,o)
);
},
{
closed = 1;
nodes = (
(196.667,1620,o),
(250,1620,c),
(396.667,1620,o),
(543.333,1620,o),
(690,1620,c),
(898.923,1620,o),
(1120,1543.952,o),
(1120,1300,c),
(1120,1058.046,o),
(906.833,950,o),
(690,950,c),
(543.333,950,o),
(396.667,950,o),
(250,950,c),
(196.667,950,o),
(170,910,o),
(170,870,c),
(170,830,o),
(196.667,790,o),
(250,790,c),
(396.667,790,o),
(543.333,790,o),
(690,790,c),
(996.388,790,o),
(1280,967.084,o),
(1280,1300,c),
(1280,1637.983,o),
(990.075,1780,o),
(690,1780,c),
(543.333,1780,o),
(396.667,1780,o),
(250,1780,c),
(196.667,1780,o),
(170,1740,o),
(170,1700,c),
(170,1660,o)
);
},
{
closed = 1;
nodes = (
(0,1700,l),
(1380,1700,l),
(1380,1764,l),
(0,1764,l)
);
},
{
closed = 1;
nodes = (
(0,1000,l),
(1380,1000,l),
(1380,1064,l),
(0,1064,l)
);
},
{
closed = 1;
nodes = (
(0,0,l),
(1380,0,l),
(1380,92,l),
(0,92,l)
);
},
{
closed = 1;
nodes = (
(0,-500,l),
(1380,-500,l),
(1380,-436,l),
(0,-436,l)
);
}
);
width = 1380;
},
{
layerId = "88FD4E68-2D1A-46CE-87AD-7FBA89BDFB80";
width = 600;
},
{
associatedMasterId = m01;
layerId = "AC9DEC84-890B-46BC-9F02-6AC503233EC0";
name = "Pendot Quick Preview";
shapes = (
{
closed = 1;
nodes = (
(290,1710.609,o),
(285.786,1720.783,o),
(278.284,1728.284,c),
(270.783,1735.786,o),
(260.609,1740,o),
(250,1740,c),
(239.391,1740,o),
(229.217,1735.786,o),
(221.716,1728.284,c),
(214.214,1720.783,o),
(210,1710.609,o),
(210,1700,c),
(210,1689.391,o),
(214.214,1679.217,o),
(221.716,1671.716,c),
(229.217,1664.214,o),
(239.391,1660,o),
(250,1660,c),
(260.609,1660,o),
(270.783,1664.214,o),
(278.284,1671.716,c),
(285.786,1679.217,o),
(290,1689.391,o),
(290,1700,c)
);
},
{
closed = 1;
nodes = (
(290,880.609,o),
(285.786,890.783,o),
(278.284,898.284,c),
(270.783,905.786,o),
(260.609,910,o),
(250,910,c),
(239.391,910,o),
(229.217,905.786,o),
(221.716,898.284,c),
(214.214,890.783,o),
(210,880.609,o),
(210,870,c),
(210,859.391,o),
(214.214,849.217,o),
(221.716,841.716,c),
(229.217,834.214,o),
(239.391,830,o),
(250,830,c),
(260.609,830,o),
(270.783,834.214,o),
(278.284,841.716,c),
(285.786,849.217,o),
(290,859.391,o),
(290,870,c)
);
},
{
closed = 1;
nodes = (
(290,10.609,o),
(285.786,20.783,o),
(278.284,28.284,c),
(270.783,35.786,o),
(260.609,40,o),
(250,40,c),
(239.391,40,o),
(229.217,35.786,o),
(221.716,28.284,c),
(214.214,20.783,o),
(210,10.609,o),
(210,0,c),
(210,-10.609,o),
(214.214,-20.783,o),
(221.716,-28.284,c),
(229.217,-35.786,o),
(239.391,-40,o),
(250,-40,c),
(260.609,-40,o),
(270.783,-35.786,o),
(278.284,-28.284,c),
(285.786,-20.783,o),
(290,-10.609,o),
(290,0,c)
);
},
{
closed = 1;
nodes = (
(290,1572.275,o),
(285.786,1582.449,o),
(278.284,1589.951,c),
(270.783,1597.452,o),
(260.609,1601.667,o),
(250,1601.667,c),
(239.391,1601.667,o),
(229.217,1597.452,o),
(221.716,1589.951,c),
(214.214,1582.449,o),
(210,1572.275,o),
(210,1561.667,c),
(210,1551.058,o),
(214.214,1540.884,o),
(221.716,1533.383,c),
(229.217,1525.881,o),
(239.391,1521.667,o),
(250,1521.667,c),
(260.609,1521.667,o),
(270.783,1525.881,o),
(278.284,1533.383,c),
(285.786,1540.884,o),
(290,1551.058,o),
(290,1561.667,c)
);
},
{
closed = 1;
nodes = (
(290,1433.942,o),
(285.786,1444.116,o),
(278.284,1451.617,c),
(270.783,1459.119,o),
(260.609,1463.333,o),
(250,1463.333,c),
(239.391,1463.333,o),
(229.217,1459.119,o),
(221.716,1451.617,c),
(214.214,1444.116,o),
(210,1433.942,o),
(210,1423.333,c),
(210,1412.725,o),
(214.214,1402.551,o),
(221.716,1395.049,c),
(229.217,1387.548,o),
(239.391,1383.333,o),
(250,1383.333,c),
(260.609,1383.333,o),
(270.783,1387.548,o),
(278.284,1395.049,c),
(285.786,1402.551,o),
(290,1412.725,o),
(290,1423.333,c)
);
},
{
closed = 1;
nodes = (
(290,1295.609,o),
(285.786,1305.783,o),
(278.284,1313.284,c),
(270.783,1320.786,o),
(260.609,1325,o),
(250,1325,c),
(239.391,1325,o),
(229.217,1320.786,o),
(221.716,1313.284,c),
(214.214,1305.783,o),
(210,1295.609,o),
(210,1285,c),
(210,1274.391,o),
(214.214,1264.217,o),
(221.716,1256.716,c),
(229.217,1249.214,o),
(239.391,1245,o),
(250,1245,c),
(260.609,1245,o),
(270.783,1249.214,o),
(278.284,1256.716,c),
(285.786,1264.217,o),
(290,1274.391,o),
(290,1285,c)
);
},
{
closed = 1;
nodes = (
(290,1157.275,o),
(285.786,1167.449,o),
(278.284,1174.951,c),
(270.783,1182.452,o),
(260.609,1186.667,o),
(250,1186.667,c),
(239.391,1186.667,o),
(229.217,1182.452,o),
(221.716,1174.951,c),
(214.214,1167.449,o),
(210,1157.275,o),
(210,1146.667,c),
(210,1136.058,o),
(214.214,1125.884,o),
(221.716,1118.383,c),
(229.217,1110.881,o),
(239.391,1106.667,o),
(250,1106.667,c),
(260.609,1106.667,o),
(270.783,1110.881,o),
(278.284,1118.383,c),
(285.786,1125.884,o),
(290,1136.058,o),
(290,1146.667,c)
);
},
{
closed = 1;
nodes = (
(290,1018.942,o),
(285.786,1029.116,o),
(278.284,1036.617,c),
(270.783,1044.119,o),
(260.609,1048.333,o),
(250,1048.333,c),
(239.391,1048.333,o),
(229.217,1044.119,o),
(221.716,1036.617,c),
(214.214,1029.116,o),
(210,1018.942,o),
(210,1008.333,c),
(210,997.725,o),
(214.214,987.551,o),
(221.716,980.049,c),
(229.217,972.548,o),
(239.391,968.333,o),
(250,968.333,c),
(260.609,968.333,o),
(270.783,972.548,o),
(278.284,980.049,c),
(285.786,987.551,o),
(290,997.725,o),
(290,1008.333,c)
);
},
{
closed = 1;
nodes = (
(290,735.609,o),
(285.786,745.783,o),
(278.284,753.284,c),
(270.783,760.786,o),
(260.609,765,o),
(250,765,c),
(239.391,765,o),
(229.217,760.786,o),
(221.716,753.284,c),
(214.214,745.783,o),
(210,735.609,o),
(210,725,c),
(210,714.391,o),
(214.214,704.217,o),
(221.716,696.716,c),
(229.217,689.214,o),
(239.391,685,o),
(250,685,c),
(260.609,685,o),
(270.783,689.214,o),
(278.284,696.716,c),
(285.786,704.217,o),
(290,714.391,o),
(290,725,c)
);
},
{
closed = 1;
nodes = (
(290,590.609,o),
(285.786,600.783,o),
(278.284,608.284,c),
(270.783,615.786,o),
(260.609,620,o),
(250,620,c),
(239.391,620,o),
(229.217,615.786,o),
(221.716,608.284,c),
(214.214,600.783,o),
(210,590.609,o),
(210,580,c),
(210,569.391,o),
(214.214,559.217,o),
(221.716,551.716,c),
(229.217,544.214,o),
(239.391,540,o),
(250,540,c),
(260.609,540,o),
(270.783,544.214,o),
(278.284,551.716,c),
(285.786,559.217,o),
(290,569.391,o),
(290,580,c)
);
},
{
closed = 1;
nodes = (
(290,445.609,o),
(285.786,455.783,o),
(278.284,463.284,c),
(270.783,470.786,o),
(260.609,475,o),
(250,475,c),
(239.391,475,o),
(229.217,470.786,o),
(221.716,463.284,c),
(214.214,455.783,o),
(210,445.609,o),
(210,435,c),
(210,424.391,o),
(214.214,414.217,o),
(221.716,406.716,c),
(229.217,399.214,o),
(239.391,395,o),
(250,395,c),
(260.609,395,o),
(270.783,399.214,o),
(278.284,406.716,c),
(285.786,414.217,o),
(290,424.391,o),
(290,435,c)
);
},
{
closed = 1;
nodes = (
(290,300.609,o),
(285.786,310.783,o),
(278.284,318.284,c),
(270.783,325.786,o),
(260.609,330,o),
(250,330,c),
(239.391,330,o),
(229.217,325.786,o),
(221.716,318.284,c),
(214.214,310.783,o),
(210,300.609,o),
(210,290,c),
(210,279.391,o),
(214.214,269.217,o),
(221.716,261.716,c),
(229.217,254.214,o),
(239.391,250,o),
(250,250,c),
(260.609,250,o),
(270.783,254.214,o),
(278.284,261.716,c),
(285.786,269.217,o),
(290,279.391,o),
(290,290,c)
);
},
{
closed = 1;
nodes = (
(290,155.609,o),
(285.786,165.783,o),
(278.284,173.284,c),
(270.783,180.786,o),
(260.609,185,o),
(250,185,c),
(239.391,185,o),
(229.217,180.786,o),
(221.716,173.284,c),
(214.214,165.783,o),
(210,155.609,o),
(210,145,c),
(210,134.391,o),
(214.214,124.217,o),
(221.716,116.716,c),
(229.217,109.214,o),
(239.391,105,o),
(250,105,c),
(260.609,105,o),
(270.783,109.214,o),
(278.284,116.716,c),
(285.786,124.217,o),
(290,134.391,o),
(290,145,c)
);
},
{
closed = 1;
nodes = (
(421.213,1710.609,o),
(416.998,1720.783,o),
(409.497,1728.284,c),
(401.995,1735.786,o),
(391.821,1740,o),
(381.213,1740,c),
(370.604,1740,o),
(360.43,1735.786,o),
(352.929,1728.284,c),
(345.427,1720.783,o),
(341.213,1710.609,o),
(341.213,1700,c),
(341.213,1689.391,o),
(345.427,1679.217,o),
(352.929,1671.716,c),
(360.43,1664.214,o),
(370.604,1660,o),
(381.213,1660,c),
(391.821,1660,o),
(401.995,1664.214,o),
(409.497,1671.716,c),
(416.998,1679.217,o),
(421.213,1689.391,o),
(421.213,1700,c)
);
},
{
closed = 1;
nodes = (
(552.425,1710.609,o),
(548.211,1720.783,o),
(540.709,1728.284,c),
(533.208,1735.786,o),
(523.034,1740,o),
(512.425,1740,c),
(501.817,1740,o),
(491.642,1735.786,o),
(484.141,1728.284,c),
(476.64,1720.783,o),
(472.425,1710.609,o),
(472.425,1700,c),
(472.425,1689.391,o),
(476.64,1679.217,o),
(484.141,1671.716,c),
(491.642,1664.214,o),
(501.817,1660,o),
(512.425,1660,c),
(523.034,1660,o),
(533.208,1664.214,o),
(540.709,1671.716,c),
(548.211,1679.217,o),
(552.425,1689.391,o),
(552.425,1700,c)
);
},
{
closed = 1;
nodes = (
(683.638,1710.609,o),
(679.424,1720.783,o),
(671.922,1728.284,c),
(664.421,1735.786,o),
(654.247,1740,o),
(643.638,1740,c),
(633.029,1740,o),
(622.855,1735.786,o),
(615.354,1728.284,c),
(607.852,1720.783,o),
(603.638,1710.609,o),
(603.638,1700,c),
(603.638,1689.391,o),
(607.852,1679.217,o),
(615.354,1671.716,c),
(622.855,1664.214,o),
(633.029,1660,o),
(643.638,1660,c),
(654.247,1660,o),
(664.421,1664.214,o),
(671.922,1671.716,c),
(679.424,1679.217,o),
(683.638,1689.391,o),
(683.638,1700,c)
);
},
{
closed = 1;
nodes = (
(814.728,1706.679,o),
(810.513,1716.853,o),
(803.012,1724.355,c),
(795.51,1731.856,o),
(785.336,1736.071,o),
(774.728,1736.071,c),
(764.119,1736.071,o),
(753.945,1731.856,o),
(746.444,1724.355,c),
(738.942,1716.853,o),
(734.728,1706.679,o),
(734.728,1696.071,c),
(734.728,1685.462,o),
(738.942,1675.288,o),
(746.444,1667.787,c),
(753.945,1660.285,o),
(764.119,1656.071,o),
(774.728,1656.071,c),
(785.336,1656.071,o),
(795.51,1660.285,o),
(803.012,1667.787,c),
(810.513,1675.288,o),
(814.728,1685.462,o),
(814.728,1696.071,c)
);
},
{
closed = 1;
nodes = (
(943.602,1683.013,o),
(939.388,1693.187,o),
(931.886,1700.688,c),
(924.385,1708.19,o),
(914.21,1712.404,o),
(903.602,1712.404,c),
(892.993,1712.404,o),
(882.819,1708.19,o),
(875.318,1700.688,c),
(867.816,1693.187,o),
(863.602,1683.013,o),
(863.602,1672.404,c),
(863.602,1661.795,o),
(867.816,1651.621,o),
(875.318,1644.12,c),
(882.819,1636.618,o),
(892.993,1632.404,o),
(903.602,1632.404,c),
(914.21,1632.404,o),
(924.385,1636.618,o),
(931.886,1644.12,c),
(939.388,1651.621,o),
(943.602,1661.795,o),
(943.602,1672.404,c)
);
},
{
closed = 1;
nodes = (
(1064.159,1632.152,o),
(1059.945,1642.326,o),
(1052.443,1649.828,c),
(1044.942,1657.329,o),
(1034.768,1661.544,o),
(1024.159,1661.544,c),
(1013.551,1661.544,o),
(1003.377,1657.329,o),
(995.875,1649.828,c),
(988.374,1642.326,o),
(984.159,1632.152,o),
(984.159,1621.544,c),
(984.159,1610.935,o),
(988.374,1600.761,o),
(995.875,1593.26,c),
(1003.377,1585.758,o),
(1013.551,1581.544,o),
(1024.159,1581.544,c),
(1034.768,1581.544,o),
(1044.942,1585.758,o),
(1052.443,1593.26,c),
(1059.945,1600.761,o),
(1064.159,1610.935,o),
(1064.159,1621.544,c)
);
},
{
closed = 1;
nodes = (
(1163.368,1547.36,o),
(1159.153,1557.534,o),
(1151.652,1565.035,c),
(1144.151,1572.537,o),
(1133.976,1576.751,o),
(1123.368,1576.751,c),
(1112.759,1576.751,o),
(1102.585,1572.537,o),
(1095.084,1565.035,c),
(1087.582,1557.534,o),
(1083.368,1547.36,o),
(1083.368,1536.751,c),
(1083.368,1526.142,o),
(1087.582,1515.968,o),
(1095.084,1508.467,c),
(1102.585,1500.965,o),
(1112.759,1496.751,o),
(1123.368,1496.751,c),
(1133.976,1496.751,o),
(1144.151,1500.965,o),
(1151.652,1508.467,c),
(1159.153,1515.968,o),
(1163.368,1526.142,o),
(1163.368,1536.751,c)
);
},
{
closed = 1;
nodes = (
(1223.478,1431.682,o),
(1219.264,1441.857,o),
(1211.762,1449.358,c),
(1204.261,1456.859,o),
(1194.087,1461.074,o),
(1183.478,1461.074,c),
(1172.869,1461.074,o),
(1162.695,1456.859,o),
(1155.194,1449.358,c),
(1147.692,1441.857,o),
(1143.478,1431.682,o),
(1143.478,1421.074,c),
(1143.478,1410.465,o),
(1147.692,1400.291,o),
(1155.194,1392.79,c),
(1162.695,1385.288,o),
(1172.869,1381.074,o),
(1183.478,1381.074,c),
(1194.087,1381.074,o),
(1204.261,1385.288,o),
(1211.762,1392.79,c),
(1219.264,1400.291,o),
(1223.478,1410.465,o),
(1223.478,1421.074,c)
);
},
{
closed = 1;
nodes = (
(1239.927,1302.017,o),
(1235.712,1312.191,o),
(1228.211,1319.692,c),
(1220.71,1327.194,o),
(1210.535,1331.408,o),
(1199.927,1331.408,c),
(1189.318,1331.408,o),
(1179.144,1327.194,o),
(1171.643,1319.692,c),
(1164.141,1312.191,o),
(1159.927,1302.017,o),
(1159.927,1291.408,c),
(1159.927,1280.799,o),
(1164.141,1270.625,o),
(1171.643,1263.124,c),
(1179.144,1255.622,o),
(1189.318,1251.408,o),
(1199.927,1251.408,c),
(1210.535,1251.408,o),
(1220.71,1255.622,o),
(1228.211,1263.124,c),
(1235.712,1270.625,o),
(1239.927,1280.799,o),
(1239.927,1291.408,c)
);
},
{
closed = 1;
nodes = (
(1218.978,1172.993,o),
(1214.764,1183.167,o),
(1207.262,1190.668,c),
(1199.761,1198.17,o),
(1189.587,1202.384,o),
(1178.978,1202.384,c),
(1168.369,1202.384,o),
(1158.195,1198.17,o),
(1150.694,1190.668,c),
(1143.192,1183.167,o),
(1138.978,1172.993,o),
(1138.978,1162.384,c),
(1138.978,1151.776,o),
(1143.192,1141.601,o),
(1150.694,1134.1,c),
(1158.195,1126.598,o),
(1168.369,1122.384,o),
(1178.978,1122.384,c),
(1189.587,1122.384,o),
(1199.761,1126.598,o),
(1207.262,1134.1,c),
(1214.764,1141.601,o),
(1218.978,1151.776,o),
(1218.978,1162.384,c)
);
},
{
closed = 1;
nodes = (
(1157.343,1057.929,o),
(1153.128,1068.103,o),
(1145.627,1075.604,c),
(1138.126,1083.106,o),
(1127.951,1087.32,o),
(1117.343,1087.32,c),
(1106.734,1087.32,o),
(1096.56,1083.106,o),
(1089.059,1075.604,c),
(1081.557,1068.103,o),
(1077.343,1057.929,o),
(1077.343,1047.32,c),
(1077.343,1036.711,o),
(1081.557,1026.537,o),
(1089.059,1019.036,c),
(1096.56,1011.534,o),
(1106.734,1007.32,o),
(1117.343,1007.32,c),
(1127.951,1007.32,o),
(1138.126,1011.534,o),
(1145.627,1019.036,c),
(1153.128,1026.537,o),
(1157.343,1036.711,o),
(1157.343,1047.32,c)
);
},
{
closed = 1;
nodes = (
(1060.605,970.131,o),
(1056.39,980.306,o),
(1048.889,987.807,c),
(1041.387,995.309,o),
(1031.213,999.523,o),
(1020.605,999.523,c),
(1009.996,999.523,o),
(999.822,995.309,o),
(992.321,987.807,c),
(984.819,980.306,o),
(980.605,970.131,o),
(980.605,959.523,c),
(980.605,948.914,o),
(984.819,938.74,o),
(992.321,931.239,c),
(999.822,923.737,o),
(1009.996,919.523,o),
(1020.605,919.523,c),
(1031.213,919.523,o),
(1041.387,923.737,o),
(1048.889,931.239,c),
(1056.39,938.74,o),
(1060.605,948.914,o),
(1060.605,959.523,c)
);
},
{
closed = 1;
nodes = (
(942.582,913.633,o),
(938.368,923.807,o),
(930.866,931.309,c),
(923.365,938.81,o),
(913.191,943.025,o),
(902.582,943.025,c),
(891.974,943.025,o),
(881.799,938.81,o),
(874.298,931.309,c),
(866.797,923.807,o),
(862.582,913.633,o),
(862.582,903.025,c),
(862.582,892.416,o),
(866.797,882.242,o),
(874.298,874.741,c),
(881.799,867.239,o),
(891.974,863.025,o),
(902.582,863.025,c),
(913.191,863.025,o),
(923.365,867.239,o),
(930.866,874.741,c),
(938.368,882.242,o),
(942.582,892.416,o),
(942.582,903.025,c)
);
},
{
closed = 1;
nodes = (
(814.666,885.503,o),
(810.452,895.677,o),
(802.95,903.178,c),
(795.449,910.68,o),
(785.275,914.894,o),
(774.666,914.894,c),
(764.057,914.894,o),
(753.883,910.68,o),
(746.382,903.178,c),
(738.88,895.677,o),
(734.666,885.503,o),
(734.666,874.894,c),
(734.666,864.286,o),
(738.88,854.112,o),
(746.382,846.61,c),
(753.883,839.109,o),
(764.057,834.894,o),
(774.666,834.894,c),
(785.275,834.894,o),
(795.449,839.109,o),
(802.95,846.61,c),
(810.452,854.112,o),
(814.666,864.286,o),
(814.666,874.894,c)
);
},
{
closed = 1;
nodes = (
(683.638,880.609,o),
(679.424,890.783,o),
(671.922,898.284,c),
(664.421,905.786,o),
(654.247,910,o),
(643.638,910,c),
(633.029,910,o),
(622.855,905.786,o),
(615.354,898.284,c),
(607.852,890.783,o),
(603.638,880.609,o),
(603.638,870,c),
(603.638,859.391,o),
(607.852,849.217,o),
(615.354,841.716,c),
(622.855,834.214,o),
(633.029,830,o),
(643.638,830,c),
(654.247,830,o),
(664.421,834.214,o),
(671.922,841.716,c),
(679.424,849.217,o),
(683.638,859.391,o),
(683.638,870,c)
);
},
{
closed = 1;
nodes = (
(552.425,880.609,o),
(548.211,890.783,o),
(540.709,898.284,c),
(533.208,905.786,o),
(523.034,910,o),
(512.425,910,c),
(501.817,910,o),
(491.642,905.786,o),
(484.141,898.284,c),
(476.64,890.783,o),
(472.425,880.609,o),
(472.425,870,c),
(472.425,859.391,o),
(476.64,849.217,o),
(484.141,841.716,c),
(491.642,834.214,o),
(501.817,830,o),
(512.425,830,c),
(523.034,830,o),
(533.208,834.214,o),
(540.709,841.716,c),
(548.211,849.217,o),
(552.425,859.391,o),
(552.425,870,c)
);
},
{
closed = 1;
nodes = (
(421.213,880.609,o),
(416.998,890.783,o),
(409.497,898.284,c),
(401.995,905.786,o),
(391.821,910,o),
(381.213,910,c),
(370.604,910,o),
(360.43,905.786,o),
(352.929,898.284,c),
(345.427,890.783,o),
(341.213,880.609,o),
(341.213,870,c),
(341.213,859.391,o),
(345.427,849.217,o),
(352.929,841.716,c),
(360.43,834.214,o),
(370.604,830,o),
(381.213,830,c),
(391.821,830,o),
(401.995,834.214,o),
(409.497,841.716,c),
(416.998,849.217,o),
(421.213,859.391,o),
(421.213,870,c)
);
}
);
width = 1380;
},
{
layerId = "5BD49938-778C-46FB-8B52-6AA10854A152";
width = 600;
}
);
unicode = 80;
}
